<?xml version="1.0" standalone="no"?>
<!DOCTYPE svg PUBLIC "-//W3C//DTD SVG 20010904//EN"
 "http://www.w3.org/TR/2001/REC-SVG-20010904/DTD/svg10.dtd">
<svg version="1.0" xmlns="http://www.w3.org/2000/svg"
 width="188.000000pt" height="188.000000pt" viewBox="0 0 188.000000 188.000000"
 preserveAspectRatio="xMidYMid meet">
<metadata>
Created by potrace 1.11, written by Peter Selinger 2001-2013
</metadata>
<g transform="translate(0.000000,188.000000) scale(0.100000,-0.100000)"
fill="#000000" stroke="none">
<path d="M205 1863 c-36 -12 -67 -34 -110 -78 -100 -99 -95 -55 -95 -845 0
-769 -3 -742 78 -832 25 -27 68 -61 96 -76 l51 -27 715 0 715 0 45 24 c61 32
116 86 148 146 l27 50 0 715 0 715 -27 50 c-33 63 -87 117 -147 147 l-46 23
-700 2 c-628 2 -705 0 -750 -14z m591 -766 c78 -148 144 -269 148 -270 5 -1
71 121 148 271 l140 272 79 0 79 0 0 -430 0 -430 -80 0 -80 0 -1 293 0 292
-115 -227 -114 -228 -63 0 -62 0 -110 218 -110 217 -3 -283 -2 -282 -80 0 -80
0 0 430 0 431 83 -3 82 -3 141 -268z"/>
</g>
</svg>
