<?xml version="1.0" encoding="UTF-8"?>
<svg width="400mm" height="250mm" version="1.1" viewBox="0 0 400 250" xmlns="http://www.w3.org/2000/svg" xmlns:cc="http://creativecommons.org/ns#" xmlns:dc="http://purl.org/dc/elements/1.1/" xmlns:rdf="http://www.w3.org/1999/02/22-rdf-syntax-ns#">
<defs>
<style>.a7e91070-bc4e-4d7e-a1a4-375ce9b112ea{fill:#668362;}.e069c3a9-1290-428d-a99d-a7a75a876e99{fill:#cfdc96;}.ec5503ae-b2fc-4350-8cf0-207ea5f2789d{fill:#d7fc7e;}.e6e955ec-e082-4119-afd9-8e160ee00eeb{fill:#a7adf0;}.ffafc15d-45ce-401a-977b-63c6adf03024{fill:#57a4ff;}.bea5a0fc-33fd-4abe-9c27-42190133ddc3{fill:#231f20;}</style>
</defs>
<metadata>
<rdf:RDF>
<cc:Work rdf:about="">
<dc:format>image/svg+xml</dc:format>
<dc:type rdf:resource="http://purl.org/dc/dcmitype/StillImage"/>
<dc:title/>
</cc:Work>
</rdf:RDF>
</metadata>
<g>
<rect x=".63876" y="-.030498" width="401.13" height="251.52" fill="#f44336" fill-rule="evenodd" stroke-width=".26458"/>
<g transform="matrix(.10477 0 0 .10477 134.95 38.468)" fill="#f1c40f">
<g transform="matrix(.95477 0 0 .95477 .77461 1.5967)" fill="#f1c40f">
<path d="m649.2 35.9h93 104 104.5c93.2-0.1 186.3-0.2 279.5-0.3 11.8 0 23.7-0.3 35.5-0.3 2.7 0 5.3 0.3 7.9 0.6 4.3 0.5 7 3 7.6 7.3 0.4 2.5 0.6 5 0.6 7.4 0 52 0.1 104 0 156-0.1 174.2-0.2 348.3-0.4 522.5-0.1 93.2-0.2 186.3-0.3 279.5-0.1 34.7 0.4 69.3-0.5 104-1.9 76.6-19.3 149.6-52.4 218.8-29.6 61.9-69 116.8-116.4 166.3-91.3 95.3-202.5 154.4-331.3 181-36.9 7.6-74.3 11.6-112 12.6-77.3 1.9-152.8-8.2-226.2-32.7-81.3-27.2-153.6-70.1-218-126.5-102.4-89.8-166.3-202.1-194.9-334.9-6.4-29.9-9.6-60.2-9.8-90.7-0.4-47.8-0.5-95.6-0.7-143.5-0.3-77.3-0.7-154.6-1-231.9-0.3-77.7-0.5-155.3-0.7-233-0.1-72.8-0.1-145.7 0-218.5 0.1-55.1 0.6-110.3 1-165.4 0.2-22 0.6-44 0.8-66 0.1-10.3 2.4-12.7 12.7-12.7 43.5 0.1 87 0.3 130.5 0.3h484c1 0.1 2 0.1 3 0.1zm0.6 327.1v-0.2h-37.5c-80.2 0.1-160.3 0.2-240.5 0.3-42 0-84-0.2-126-0.2h-175.5c-13.3 0-15.4 2.1-15.4 15.3 0.2 104.8 0.4 209.6 0.4 314.5 0 76.3-0.2 152.6-0.3 229-0.1 41.3 0.2 82.7-0.3 124-0.3 32 1.8 63.9 7.2 95.4 9.8 57.7 28.6 112.5 54.4 165 37.9 77 90.2 142.7 155.5 198.1 67.8 57.6 144.7 98 230.2 122.3 35.7 10.2 72 17.4 109.1 20 21.4 1.5 42.9 3 64.3 2.4 31.4-0.9 62.5-5.8 93.2-12.7 116.7-26.6 217.4-82.1 301.4-167.3 65.9-66.8 114.1-144.6 144.2-233.5 13-38.5 23-77.7 25.9-118.4 1.6-22.4 4.8-44.8 4.8-67.1 0.3-126.5 0-253-0.2-379.4 0-24.5-0.1-49-0.2-73.5-0.2-73.3-0.5-146.6-0.3-219.9 0-8.8-3.8-13.6-13.7-13.6-193.4-0.5-387.1-0.5-580.7-0.5zm-5.4-292.2h-559-24.5c-4.4 0-6.9 2.1-7.5 6.3-0.3 2-0.4 4-0.4 6 0 50.3 0.2 100.7 0.2 151 0 32.5-0.1 65-0.2 97.5 0 10.4 2.6 13 12.9 13.3h3.5c26.2-0.2 52.3-0.5 78.5-0.5h1080.9c1.8 0 3.7 0.1 5.5-0.1 4.2-0.4 6.7-2.5 6.9-7 0.2-4.7 0.5-9.3 0.5-14-0.1-44.3-0.4-88.6-0.5-133-0.1-34.7 0-69.3 0-104 0-1.8 0-3.7-0.2-5.5-0.9-6-3.1-8.5-9.2-9.4-3.6-0.5-7.3-0.7-10.9-0.7-192.2 0-384.3 0.1-576.5 0.1z"/>
<path d="m902.6 1035.5c1.1-2 2.4-3.9 3.4-6 9.6-19.5 19.6-38.8 28.6-58.6 4.9-10.6 2.9-21.8-1.3-32.4-3.3-8.3-2.3-12.3 5.5-16.4 2.8-1.5 5.7-2.7 8.7-3.8 5.5-2 9-0.2 11.4 5.3 3.1 7.1 2 14.2-0.8 20.8-8 18.8-15.6 37.7-24.9 55.8-9.2 17.8-19.9 34.9-30.7 51.9-3.5 5.4-9 9.8-14.3 13.6-6.6 4.7-13.5 1-13.3-7.1 0.5-17.1 1.8-34.2 2.3-51.3 0.3-11.1 0.1-22.3-0.9-33.3-0.9-9.2-6.6-14.3-15.7-16.3-2.3-0.5-4.5-1.1-7.2-1.8-3 6.1-6 12.2-9.1 18.1-9.8 18.5-19.5 37.1-33.1 53.2-2.4 2.9-5.2 5.7-8.1 8.1-8.8 7.1-17.4 4.3-20.8-6.5-8.9-28.2-7.7-56 3.4-83.3 3.7-9.2 8.2-18.1 13.2-26.7 2.7-4.5 7.2-8 10.9-12-4.7-5.4-4.7-5.4-0.8-12.8 8.6-16.4 11.5-33.7 9.5-52.1-2.2-20.6-9.1-40-15.4-59.4-4.4-13.5-8.6-27.2-14.4-40.1-8.9-19.8-25-33.3-43.4-44.1-7.2-4.2-13.9-0.5-12.9 7.6 1.5 12.6 3.7 25.3 6.5 37.7 5.8 25.2 8.9 50.6 10.1 76.4 0.8 17.8 2.1 35.6 2.1 53.4 0 19-0.6 38-1.9 56.9-1.5 21.2-3.9 42.3-6.3 63.4-5.6 47.4-15.8 93.7-32.8 138.4-2.8 7.3-5.8 14.5-8 21.9-0.8 2.6-0.3 6.4 1.2 8.6 2 3 5.9 2.8 9.1 1 6-3.5 12.1-6.9 18-10.7 25.4-16.1 53.1-26.5 82.5-32.2 35-6.8 70.7 8 88.1 37.9 4 6.9 8.5 13.7 10.9 21.2 2.3 7.1 3 15 2.9 22.5-0.4 24.1-4.8 47.3-18.2 67.9-14 21.6-34.3 34-59.4 38.1-38.2 6.3-75.1-0.5-111-13.5-10.1-3.7-20-8.1-30-12-1.9-0.8-4.2-1.1-6.3-1.1-7.8 0.3-10.9 5.8-8.1 13 9.9 26 20.3 51.9 29.2 78.2 9.9 29.3 15.8 59.7 18.9 90.5 2.6 25.7 3.7 51.5-1 77.1-4.1 22.5-12.7 43-27.7 60.5-23 26.9-53.8 30-82.5 8.8-22.4-16.5-34.3-39.2-39.7-65.8-7.8-38.8-6.4-77.6-0.2-116.5 5.2-32.4 13.9-63.8 22.5-95.3 3.6-13.1 8.8-25.7 13-38.6 1-3.1 1.6-6.5 1.8-9.8 0.1-2.3-0.2-5.7-1.6-6.6-1.7-1.1-5.1-0.7-7.2 0.2-12.2 5.1-24.1 11.1-36.5 15.6-30 10.9-60.9 17.6-93.1 16.3-21.8-0.8-42.5-5.5-59.8-19.9-12.1-10-18.8-23.2-21-38.4-1.9-12.8-3.8-25.7-3.9-38.6-0.5-36.8 24.4-68 60.1-76.1 12.6-2.9 25.4-2.6 38.2-1.2 27.8 3.3 54.2 11.3 78.8 24.7 8.3 4.5 16.1 10 24.4 14.5 3.4 1.9 7.3 2.8 11.1 3.6 3 0.6 4.3-1.3 3.7-4.2-4.2-20.9-8.6-41.8-12.6-62.8-3.2-16.6-6.3-33.2-8.8-49.9-2.5-16.6-4.4-33.2-6.3-49.9-1.3-11.2-2.5-22.5-3.1-33.7-0.8-14.6-1.5-29.3-1.3-43.9 0.4-28.9 2.9-57.7 8.1-86.2 6.3-34.7 17.1-67.7 32.5-99.3 10.4-21.4 24.5-40.3 39.8-58.3 7.4-8.8 14.6-17.7 21.9-26.6 1-1.3 2-2.8 2.3-4.4 1.9-10 1.3-19.9-3.2-29.2-2.4-4.9-6.3-5.4-11.3-2.7-30.6 16.6-60.9 34-93.4 47.1-30.6 12.4-62.1 18.4-95 15.1-18.3-1.9-36.1-5.7-51.8-16.3-18-12.2-28.6-29.6-33.9-50.1-15.6-60.9-3.9-116.7 33.8-166.7 16.6-22 40-35.2 65.5-44.7 19.8-7.4 40-13.2 61.2-15.1 27.6-2.5 54.3 1.8 80.3 11.1 31.1 11.1 58.9 28.4 87 45.2 27.4 16.4 54.9 32.5 83 47.6 16.9 9.1 35.7 13.6 55 14.4 17.2 0.7 31.8-6.3 44-18 8.3-7.9 15.4-17.1 23.9-24.7 10.5-9.5 21.7-18.4 36.4-20.4 5.3-0.7 11-0.4 16.3 0.5 5 0.8 7.3 5.1 6.8 10.6-0.4 4.7-2.7 8.8-8.3 9.4-17 1.8-29 11.7-37.8 25.7-5.5 8.7-9.9 18.2-16.1 26.4-14.1 18.6-33.9 28.3-56.5 32.6-24.1 4.6-46.9-1.3-69.4-8.9-32.1-10.9-61.6-27.3-90.6-44.6-20.8-12.4-41.9-24.5-63-36.4-20.3-11.3-42.6-14.5-65.5-13.8s-45 5.4-66.5 13.7c-27.2 10.5-46.3 29.9-61.7 53.8-11.1 17.3-17.5 36.2-16.9 56.9 0.5 20 6.7 37.6 24 49.6 13.2 9.1 28.2 11.3 43.8 10.6 36.7-1.6 69.9-15 102.1-31.2 21.8-10.9 43.1-23 64.8-34.3 4.8-2.5 10-4.3 15.3-5.7 4.9-1.3 9.8 0.4 11.8 5.2 4 9.6 7.6 19.4 10.5 29.4 4.1 14.2 7.4 28.6 11.3 42.8 1.3 4.6 3.4 9 5.5 13.3 0.6 1.3 2.3 2.4 3.7 2.9 10.9 4 21.9 7.6 32.7 11.9 36.5 14.6 61.7 40.6 77.2 76.5 9.6 22.3 15 45.7 17.5 69.6 2.7 25.8 1.3 51.4-7.9 76.1-2.2 5.9-5.5 11.1-11.6 13.6-2.8 1.1-2.7 2.7-2.9 5.3-0.4 4.6-1.1 9.6-3.1 13.7-3.2 6.4-9.3 6.7-15.5 1.8-5.6-4.4-6.2-4.4-11.1 1.1-10 11.4-13.9 25.4-16.7 39.8-1.9 9.7-2.2 19.3 2.4 28.2 2.4 4.6 5.9 8.8 9.7 12.4 5 4.7 10.4 4.8 15-0.4 8.6-9.7 17.2-19.5 24.3-30.2 9.7-14.7 17.7-30.4 27-45.4 3.6-5.7 8.5-10.6 13.3-15.4 3.4-3.3 7.7-2.3 11.5 0.1 7.2 4.6 10.1 11.7 11.2 19.7 2.9 19.6 2 39.1 0.5 58.7-0.8 11.1-0.3 22.3-0.3 33.4 0 1 0.7 2 1 3.1 0.1 1 0.8 1.5 1.5 2.1zm-211.2-314.8c-0.6-0.1-1.3-0.2-1.9-0.2-4.1 5.3-8.9 10.2-12.3 16-13.9 24.2-26.8 48.9-36 75.3-11.5 33-16.8 67.4-21.2 101.8-3.3 26.1-4.3 52.3-4 78.6 0.3 27.7 3.1 55.1 7.6 82.3 3.7 22.5 8.5 44.8 13.1 67.2 1.5 7.4 3.6 14.8 5.9 22 1.2 3.9 4.3 6.3 8.7 6.2 4.1-0.1 6.2-2.8 7.6-6.2 15.4-37.3 26.5-75.8 33.2-115.5 4.3-25.2 7.6-50.5 9.8-75.9 2.4-27.3 3.8-54.8 4.2-82.2 0.4-24.6-1-49.2-1.8-73.8-0.8-23.6-1.4-47.2-6-70.4-1.8-8.7-4.6-16.9-6.9-25.2zm-41.3 583c-5.7 2-7.3 3.6-8.5 8.8-6.2 28.4-12.6 56.7-18.3 85.2-4.9 24.5-6.3 49.4-6.2 74.4 0.1 15.6 0.9 31.3 3.1 46.7 1.7 11.8 5.2 23.5 9.5 34.7 5.6 14.5 21 19.1 33 10.7 6-4.1 9-10.5 11.5-17.1 11.2-29.6 12.4-60.4 10.2-91.3-1.5-20.6-4.2-41.2-8.7-61.4-5.3-24-12.9-47.5-19.5-71.1-1.8-6.6-4.1-13.1-6.1-19.6zm136.7-44.3c22.9 0.3 44.4-5.4 64.9-15.4 13.5-6.6 20-17.5 19.2-32.6-0.7-14.3-6.8-25.4-20.3-31.1-21-8.9-42.7-9.1-64.5-4.1-26.5 6.1-50 18.6-72 34.1-7.7 5.4-14.8 11.9-21.7 18.3-4.3 4-3.4 7.6 1.9 10 2.4 1.1 4.9 2 7.4 2.9 27.3 10.7 55.6 17.5 85.1 17.9zm-294.5 5.6c10.5-1.3 21.2-1.8 31.6-4 26.5-5.7 50.1-18.1 72.1-33.6 6.1-4.2 5.9-9-0.3-12.9-5.3-3.4-10.7-6.8-16-10.1-22.4-13.9-45.4-26.2-72.4-28.3-21.6-1.7-41.5 2.2-59.1 15.9-21.1 16.4-22 54 8.4 66.5 11.5 4.7 23.5 5.6 35.7 6.5z"/>
<path d="m1013 755.7c-1.6 28.5-3.2 57-4.8 85.6-1.4 24.4-2.5 48.8-4.1 73.2-0.8 12.2-2.5 24.4-3.9 36.6-0.3 2.2-0.4 5.5-3.8 4.4-1.7-0.5-3.5-3-3.8-4.9-0.9-5.2-1.1-10.6-1.4-15.9-1.6-25.6-3.1-51.1-4.6-76.7-1.3-22.2-2.5-44.5-3.7-66.7-0.8-15.1-1.9-30.2-2.3-45.3-0.2-7.7 2.6-14.7 7.6-20.6 6.2-7.2 16.3-6.3 19.9 2.5 2.5 6.1 2.7 13.1 3.7 19.8 0.4 2.6 0.1 5.3 0.1 8h1.1z"/>
<path d="m982.1 1052.4c0-10.9 6-16.2 18.6-16.2 10.6 0 13.4 5.7 14 15.5 0.6 10.1-8.4 19.5-17.5 19.3-9.5-0.2-15.1-7.2-15.1-18.6z"/>
<path d="m1066 188.8c-5.6 0-11.3 0.1-16.9-0.1-1 0-2.5-1.1-2.8-2-3.7-10.5-12-14.2-22.2-14.3-10.3-0.1-18.6 4.5-23 13.9-6.2 13.4-6.4 27.5-1 41.2 4 10 16.7 15.8 27.9 14 11.8-2 19.4-9.7 20.7-21.4h-22.2v-15.9h39.8v51.1c-11.2 2.6-12.1 2-14.9-10.6-1.2 0.9-2.4 1.5-3.1 2.4-12.9 16.6-44.9 15.3-60.7-3.1-16.3-18.9-15.9-60.4 5.9-78.2 17.8-14.5 49.6-12.9 64.6 4.1 4.9 5.4 7.6 11.8 7.9 18.9z"/>
<path d="m841.4 186.9h-18.3c-6-13.5-17.3-18.3-30.9-13.1-5.4 2.1-8.4 5.8-8.4 10.6 0 5.7 3.7 8.4 8.5 9.7 10.1 2.7 20.3 4.9 30.4 7.8 15.1 4.3 21.6 11.8 22.1 24.6 0.5 13-7.3 24.7-20.6 29.3-14.3 4.9-28.8 4.6-42.8-1.7-11.7-5.2-18.2-16-17-27.5h18.2c0.4 1.2 0.9 2.5 1.2 3.9 1.3 5.6 4.9 9.8 10.2 10.4 7.4 0.9 15.2 0.8 22.6-0.3 5.9-0.9 8.5-5.4 8.6-10.7 0.1-5.4-1.8-8.2-8.3-10.1-8.9-2.6-18-4.6-27-6.9-1.3-0.3-2.6-0.6-3.8-1-14.1-4.3-20-11.3-20.8-24.6-0.8-11.9 6.5-23.5 18.5-28.1 13.6-5.2 27.4-5.1 40.7 1.2 10.9 5.2 15.8 13.1 16.9 26.5z"/>
<path d="m678.5 158.4h71v16.8h-51.3v21.4h46.8v16.6h-46.9v26h53.7v16.6h-73.3v-97.4z"/>
<path d="m284.4 158.5h70.6v16.8h-5.4c-13.8 0-27.7 0.1-41.5-0.1-3.6 0-5.2 0.8-4.9 4.7 0.5 5.4 0.6 10.8 0.8 16.3 5.3 0.2 10.6 0.5 15.9 0.5 10.1 0.1 20.3 0 30.8 0v16.6h-31.5c-4.2 0-8.3-0.2-12.5 0.1-1.2 0.1-3.3 1.5-3.3 2.4-0.3 7.6-0.2 15.2-0.2 23.3h54.2v16.6h-73.1c0.1-32.3 0.1-64.7 0.1-97.2z"/>
<path d="m539.7 256c-6.2 0-12.5 0.1-18.8-0.1-1 0-2.4-1.5-2.9-2.6-1.7-4.7-3.4-9.4-4.7-14.2-0.7-2.6-2-3.4-4.6-3.4-9.8 0.1-19.7-0.1-29.5 0.2-1.6 0-3.8 1.7-4.4 3.2-2 4.6-3.1 9.4-5 14.1-0.5 1.2-2.4 2.6-3.7 2.7-5.6 0.3-11.3 0.1-17.9 0.1 11.7-32.9 23.3-65.2 34.9-97.9 6.9 0 13.7-0.1 20.5 0.1 1 0 2.5 1.1 2.8 2 11.2 31.4 22.2 62.8 33.2 94.3 0.4 0.4 0.2 0.7 0.1 1.5zm-58.2-36.8h25.6c-4.2-12.9-8.1-25.1-12.1-37.4-0.4 0-0.8 0.1-1.2 0.1-4.1 12.3-8.2 24.6-12.3 37.3z"/>
<path d="m1118.1 256.1c5.6-15.8 11-31 16.3-46.1 5.6-15.8 11.3-31.5 16.8-47.4 1.2-3.3 2.7-4.8 6.4-4.5 4.8 0.4 9.7 0.2 14.5 0 2.5-0.1 3.8 0.5 4.7 3.1 10.7 30.7 21.6 61.3 32.4 92 0.3 0.7 0.3 1.5 0.6 2.9-6.6 0-12.9 0.1-19.2-0.1-1 0-2.4-1.5-2.8-2.6-1.7-4.7-2.9-9.6-4.8-14.1-0.6-1.5-2.9-3.2-4.4-3.3-9.8-0.3-19.7 0-29.5-0.2-3-0.1-4.1 1.2-4.8 3.8-1.3 4.5-2.7 8.9-4.5 13.2-0.6 1.4-2.5 3.1-3.9 3.2-5.6 0.3-11.3 0.1-17.8 0.1zm46.6-74h-1.4c-4 12.3-8.1 24.7-12.3 37.3h25.6c-4-12.8-7.9-25.1-11.9-37.3z"/>
<path d="m178.1 255.7c4.5-12.8 8.9-25.3 13.4-37.8 6.6-18.4 13.3-36.8 19.7-55.3 1.2-3.3 2.6-4.8 6.3-4.5 5.8 0.3 11.6 0.1 18 0.1 11.5 32.4 22.9 64.8 34.6 97.9-6.9 0-13.2 0.1-19.5-0.1-1.1-0.1-2.7-1.7-3.1-2.9-1.6-4.3-3.1-8.8-4.2-13.3-0.8-3.3-2.5-4-5.6-4-9.3 0.2-18.7 0.2-28 0-2.9-0.1-4.8 0.6-5.3 3.7-0.1 0.7-0.3 1.3-0.5 1.9-1.8 4.8-3.6 9.6-5.4 14.3h-20.4zm46.5-73.7c-0.5 0-1 0-1.5 0.1-4 12.3-8 24.6-12.2 37.3h25.6c-4-12.8-7.9-25.1-11.9-37.4z"/>
<path d="m394.9 255.8h-20v-97.6c4.3 0 8.4-0.1 12.5 0 11.3 0.2 22.7-0.2 33.9 0.7 17.4 1.5 25.9 10.8 26.6 28.2 0.2 4 0.1 8-0.6 11.9-2.7 13.9-12.8 21.5-28.6 21.8-7.8 0.1-15.6 0-24 0 0.2 11.8 0.2 23.2 0.2 35zm0.2-80.7v29.1h19.2c8.7-0.1 13.6-4.7 13.8-12.9 0.3-10.7-3.7-15.8-13.1-16.1-6.3-0.3-12.8-0.1-19.9-0.1z"/>
<path d="m167.1 223.2c-1.8 19.7-18.7 35-37.8 35.7-30.8 1.2-48.2-20.2-47.4-52.3 0.4-14.9 3.6-28.8 15.1-39.3 13.3-12.2 29.1-12.9 45.4-8.2 14.3 4.2 22.1 14.7 25.2 28.9 0.1 0.6 0.1 1.3 0.2 2.7-6.2 0-12.3 0.1-18.3-0.1-0.8 0-2.1-1.2-2.3-2-3.1-12-12.7-16-24.4-14.8-8.7 0.9-16.3 8.6-18.8 19.6-2.2 9.7-2.4 19.5-0.1 29.1 3.2 13.5 13.8 20.7 27 18.5 8.1-1.3 13-6.4 15.3-13.9 1-3.2 2.6-4.4 6-4.2 4.9 0.5 9.7 0.3 14.9 0.3z"/>
<path d="m579.6 158.2c6.4 0 12.5-0.2 18.6 0.2 1.3 0.1 3.1 2.4 3.6 4.1 6.4 21.9 12.7 43.9 19 65.9 0.3 1.1 0.8 2.1 1.7 4.4 3.1-10.8 5.9-20.3 8.7-29.9 4-13.7 8-27.4 11.8-41.1 0.8-2.7 1.9-3.8 4.7-3.7 5.5 0.2 11 0.1 17.1 0.1-4 11.9-7.9 23.5-11.9 35-6.7 19.6-13.5 39.2-20 58.9-1 3-2.3 4.6-5.5 4-1-0.2-2 0-3 0-12.1 0-12.1 0-15.8-11.2-9.4-27.6-18.7-55.3-28.1-82.9-0.4-1.2-0.6-2.3-0.9-3.8z"/>
<path d="m851.5 175.4v-16.8h78.4v16.7h-28.7v80.3h-20.1v-80.2h-29.6z"/>
<path d="m1104.8 255.9h-19.3v-97.3h19.3v97.3z"/>
<path d="m960.8 255.9h-19.2v-97.3h19.2v97.3z"/>
</g>
</g>
</g>
<style type="text/css">.st0{fill:#FFFFFF;}</style>
</svg>
