<?xml version="1.0" encoding="UTF-8" standalone="no"?>
<svg
   xmlns:dc="http://purl.org/dc/elements/1.1/"
   xmlns:cc="http://creativecommons.org/ns#"
   xmlns:rdf="http://www.w3.org/1999/02/22-rdf-syntax-ns#"
   xmlns:svg="http://www.w3.org/2000/svg"
   xmlns="http://www.w3.org/2000/svg"
   xmlns:sodipodi="http://sodipodi.sourceforge.net/DTD/sodipodi-0.dtd"
   xmlns:inkscape="http://www.inkscape.org/namespaces/inkscape"
   width="400mm"
   height="250mm"
   viewBox="0 0 400 250"
   version="1.1"
   id="svg16"
   inkscape:version="1.0.1 (3bc2e813f5, 2020-09-07, custom)"
   sodipodi:docname="directus.svg"
   inkscape:export-filename="/home/maartenvn/Development/Website/src/content/projects/img/directus.png"
   inkscape:export-xdpi="100"
   inkscape:export-ydpi="100">
  <defs
     id="defs10" />
  <sodipodi:namedview
     id="base"
     pagecolor="#ffffff"
     bordercolor="#666666"
     borderopacity="1.0"
     inkscape:pageopacity="0.0"
     inkscape:pageshadow="2"
     inkscape:zoom="0.24748737"
     inkscape:cx="442.10855"
     inkscape:cy="503.45247"
     inkscape:document-units="mm"
     inkscape:current-layer="layer1"
     inkscape:document-rotation="0"
     showgrid="false"
     inkscape:window-width="1498"
     inkscape:window-height="1034"
     inkscape:window-x="2887"
     inkscape:window-y="177"
     inkscape:window-maximized="0" />
  <metadata
     id="metadata13">
    <rdf:RDF>
      <cc:Work
         rdf:about="">
        <dc:format>image/svg+xml</dc:format>
        <dc:type
           rdf:resource="http://purl.org/dc/dcmitype/StillImage" />
        <dc:title />
      </cc:Work>
    </rdf:RDF>
  </metadata>
  <g
     inkscape:label="Layer 1"
     inkscape:groupmode="layer"
     id="layer1">
    <rect
       style="fill:#2c3e50;fill-opacity:1;fill-rule:evenodd;stroke-width:0.272846"
       id="rect853"
       width="405.26022"
       height="264.74841"
       x="-3.4916608"
       y="-13.26004" />
    <g
       id="g851"
       transform="translate(-15.709857,0.19891854)"
       style="fill:#ffffff">
      <path
         fill-rule="evenodd"
         clip-rule="evenodd"
         d="m 150.64166,132.64971 c -0.46465,-0.10494 -0.8396,-0.2249 -1.19942,-0.37483 -0.23969,-0.11996 -0.44992,-0.23987 -0.62966,-0.40482 a 0.47976168,0.47976168 0 0 1 -0.16489,-0.41977 c 0.17962,-1.90405 -0.017,-3.59821 0.15016,-5.47228 0.76458,-7.67619 5.59219,-5.2474 9.92506,-6.49178 2.47375,-0.70464 4.96253,-2.08396 5.87704,-4.79761 0.15016,-0.44975 0.017,-0.92954 -0.29976,-1.27437 a 55.562397,55.562397 0 0 0 -9.38532,-8.51577 56.222069,56.222069 0 0 0 -39.91019,-9.535263 0.70464996,0.70464996 0 0 0 -0.50998,1.079464 21.019558,21.019558 0 0 0 6.61176,6.506769 c 0.47995,0.29987 0.28502,0.94453 -0.26973,0.8096 a 12.578751,12.578751 0 0 1 -4.46779,-1.94903 0.53973187,0.53973187 0 0 0 -0.50998,-0.0448 l -2.53371,1.01949 a 0.68965737,0.68965737 0 0 0 -0.17962,1.16942 20.989573,20.989573 0 0 0 24.63273,2.08396 c 0.47996,-0.29987 1.24442,0.29987 1.09448,0.83958 -0.25499,0.85458 -0.54001,2.03899 -0.8396,3.6432 -1.94904,9.79013 -7.52627,9.0405 -14.43784,6.56674 -13.79311,-5.00751 -21.63421,-0.73463 -28.590766,-9.19043 -0.49469,-0.5997 -1.3493,-0.79461 -1.91907,-0.29987 a 6.5367524,6.5367524 0 0 0 0.65969,10.44981 c 0.22496,0.14993 0.50999,0.09 0.67465,-0.10495 0.43462,-0.55474 0.77966,-0.89955 1.2294,-1.13943 0.46465,-0.23986 0.70469,0.44974 0.29976,0.79461 -1.48428,1.30435 -1.90405,2.86357 -2.86361,5.95204 -1.52921,4.81261 -0.88454,9.74515 -7.97602,11.03451 -3.74815,0.19492 -3.68814,2.74364 -5.05251,6.53675 -1.58917,4.58772 -3.65817,6.59676 -7.49624,10.61475 -0.53945,0.54 -0.58472,1.42426 0,1.91906 1.52921,1.3043 3.11843,1.37927 4.72267,0.71964 3.98801,-1.67921 7.06145,-6.83661 9.95503,-10.17997 3.22338,-3.71816 10.95953,-2.12894 16.806656,-5.77213 3.14841,-1.93405 5.05245,-4.40782 4.45277,-8.09598 -0.10483,-0.5997 0.58473,-0.95952 0.82459,-0.40481 0.46465,1.04947 0.77959,2.15892 0.89955,3.29836 0.0453,0.31483 0.29976,0.53972 0.6147,0.52471 6.32685,-0.35983 14.49779,6.61171 22.14402,8.50077 0.46465,0.11996 0.79456,-0.41977 0.53945,-0.82459 a 14.107991,14.107991 0 0 1 -1.99403,-4.64769 c -0.15016,-0.58471 0.71964,-0.74963 1.01951,-0.20988 a 14.122984,14.122984 0 0 0 11.33437,7.25639 c 1.85906,0.14994 3.89803,-0.075 6.02698,-0.71964 2.54872,-0.76462 4.90258,-1.75413 7.70618,-1.2144 a 7.9460527,7.9460527 0 0 1 5.24738,3.2234 c 1.69416,2.48877 5.29238,3.14841 7.21144,0.53973 a 1.2443818,1.2443818 0 0 0 0.12013,-1.22939 c -4.22793,-9.89508 -14.9476,-10.56975 -19.56532,-11.76915 z"
         fill="#fff"
         id="path2"
         style="fill:#ffffff;stroke-width:1.49925" />
      <path
         d="m 209.00767,110.98547 a 1.4992552,1.4992552 0 0 1 1.3493,-1.22939 l 5.12748,-0.44974 a 0.59970206,0.59970206 0 0 1 0.64468,0.71964 l -5.15746,28.71074 a 1.4992552,1.4992552 0 0 1 -1.46926,1.22938 h -3.88306 c -0.34509,0 -0.59974,-0.29987 -0.55475,-0.65967 0.0901,-0.52471 -0.55475,-0.89955 -1.0045,-0.58471 -1.69416,1.19941 -3.58325,1.79911 -5.62222,1.79911 a 9.1454564,9.1454564 0 0 1 -7.04649,-3.05848 10.584741,10.584741 0 0 1 -2.81862,-7.43631 c 0,-3.74814 1.15443,-6.86659 3.46329,-9.35535 a 11.529272,11.529272 0 0 1 8.8456,-3.73315 c 2.14391,0 3.95803,0.56972 5.44231,1.69416 0.49469,0.37484 1.27434,0.14994 1.37928,-0.46476 l 1.30436,-7.19643 z m -8.69572,23.68824 a 5.5472442,5.5472442 0 0 0 4.34783,-1.88907 6.8066184,6.8066184 0 0 0 1.64923,-4.64769 c 0,-1.58921 -0.44992,-2.87857 -1.34936,-3.85308 a 4.5277507,4.5277507 0 0 0 -3.52324,-1.48427 c -1.76913,0 -3.1934,0.62969 -4.30284,1.88907 a 6.7016707,6.7016707 0 0 0 -1.66419,4.64768 c 0,1.57423 0.44992,2.84859 1.3493,3.8531 a 4.4977656,4.4977656 0 0 0 3.50829,1.46926 z m 23.38838,-20.77968 c -1.04948,0 -1.94904,-0.37484 -2.69865,-1.09446 a 3.5982124,3.5982124 0 0 1 -1.1244,-2.69866 c 0,-1.31934 0.49468,-2.45877 1.46926,-3.38831 0.9595,-0.94453 2.09892,-1.4093 3.44827,-1.4093 1.03448,0 1.91901,0.37484 2.66869,1.13943 0.74962,0.77961 1.10944,1.67916 1.10944,2.68367 0,1.31934 -0.47995,2.42879 -1.43929,3.35833 -0.95956,0.94453 -2.09897,1.4093 -3.43332,1.4093 z m -0.71964,24.85765 a 1.4992552,1.4992552 0 0 1 -1.46926,1.22939 h -3.88306 a 1.4992552,1.4992552 0 0 1 -1.46927,-1.76912 l 3.49327,-19.49032 a 1.4992552,1.4992552 0 0 1 1.48428,-1.22939 h 3.89803 a 1.4992552,1.4992552 0 0 1 1.46926,1.76912 z m 24.27298,-21.15449 c 0.16489,0.075 0.29975,0.20989 0.37455,0.37484 0.0748,0.17991 0.0601,0.38979 -0.017,0.56972 l -2.069,4.45278 a 0.74962761,0.74962761 0 0 1 -0.32979,0.35982 0.82459033,0.82459033 0 0 1 -0.7346,0 c -0.70468,-0.3448 -1.49929,-0.49474 -2.33884,-0.47978 -1.8441,0 -3.25341,0.74963 -4.2579,2.24888 -0.35982,0.56972 -0.74962,1.90406 -1.18441,3.98803 l -1.67943,9.61022 a 1.4992552,1.4992552 0 0 1 -1.46932,1.24438 h -3.89802 a 1.4992552,1.4992552 0 0 1 -1.4993,-1.76912 l 3.50829,-19.49031 a 1.4992552,1.4992552 0 0 1 1.48428,-1.2294 h 3.29834 c 0.62972,0 1.10944,0.55475 1.0045,1.16942 -0.0901,0.52472 0.59968,0.85458 1.00449,0.50976 a 8.155948,8.155948 0 0 1 8.78814,-1.57423 z m 11.97904,-0.65967 c 3.59821,0 6.29687,1.15442 8.09598,3.44828 a 9.6552036,9.6552036 0 0 1 1.7391,8.30588 c -0.017,0.19493 -0.0601,0.3898 -0.12013,0.5997 -0.15016,0.5997 -0.71964,0.98951 -1.3493,0.98951 h -13.79317 c -0.79461,0 -1.46926,0.5997 -1.3493,1.37932 0.15016,1.00449 0.56971,1.7991 1.25937,2.4138 0.98948,0.88455 2.26387,1.31934 3.85309,1.31934 2.2339,0 4.22787,-0.77961 5.99701,-2.33884 0.12012,-0.09 0.25499,-0.14994 0.38985,-0.14994 0.16489,0 0.32979,0.075 0.44992,0.20989 l 2.14396,2.54874 a 0.68965737,0.68965737 0 0 1 -0.0453,0.89955 13.838126,13.838126 0 0 1 -9.92511,3.97303 c -3.32832,0 -5.99701,-1.04949 -8.06595,-3.16343 a 9.9550542,9.9550542 0 0 1 -2.75884,-8.03602 12.398841,12.398841 0 0 1 6.37184,-10.4498 13.673207,13.673207 0 0 1 7.1065,-1.94904 z m -5.32235,7.4363 c -0.55475,0.85458 0.16489,1.84409 1.16939,1.84409 h 6.29687 c 0.79461,0 1.49924,-0.64468 1.30437,-1.4243 a 3.9430412,3.9430412 0 0 0 -0.70468,-1.45427 c -0.71965,-1.00451 -1.85906,-1.49926 -3.37331,-1.48426 -1.36432,0 -2.54873,0.38979 -3.52325,1.16942 -0.44992,0.38979 -0.8396,0.85457 -1.16939,1.34932 z m 28.26093,16.16197 c -3.22338,0 -5.84707,-1.01949 -7.88609,-3.05848 a 10.524771,10.524771 0 0 1 -3.07345,-7.8411 12.368855,12.368855 0 0 1 5.24739,-10.20993 13.80814,13.80814 0 0 1 8.02101,-2.48876 c 3.88307,0 6.85162,1.28936 8.93558,3.86807 0.12013,0.14994 0.15016,0.34481 0.10483,0.53974 a 0.59970206,0.59970206 0 0 1 -0.20966,0.29987 l -4.04802,3.2234 a 0.59970206,0.59970206 0 0 1 -0.34452,0.13492 0.61469464,0.61469464 0 0 1 -0.49468,-0.23986 5.0674825,5.0674825 0 0 0 -4.18288,-1.94904 c -1.69417,0 -3.10348,0.50976 -4.21291,1.54423 a 6.4318047,6.4318047 0 0 0 -1.9491,4.88757 c 0,1.64918 0.47995,2.93854 1.42427,3.92805 0.91457,0.98951 2.15892,1.49925 3.70315,1.49925 1.60424,0 3.04352,-0.5997 4.28788,-1.76912 a 0.59970206,0.59970206 0 0 1 0.85462,0.03 l 2.84854,3.17842 a 0.62968718,0.62968718 0 0 1 -0.0283,0.86956 12.668707,12.668707 0 0 1 -8.99553,3.55324 z m 30.01509,-19.16048 a 1.4992552,1.4992552 0 0 1 -1.48427,1.22939 h -3.95804 a 1.4992552,1.4992552 0 0 0 -1.48422,1.24438 l -1.37933,7.67619 c -0.37455,2.06897 0.29976,3.10346 2.06894,3.10346 0.73466,0 1.42433,-0.2249 2.09898,-0.65967 a 0.52473933,0.52473933 0 0 1 0.56971,-0.0153 c 0.10483,0.0599 0.17963,0.16489 0.20966,0.29987 l 0.97452,3.58322 a 1.004501,1.004501 0 0 1 -0.38986,1.06447 9.4902853,9.4902853 0 0 1 -5.44231,1.63418 c -2.42876,0 -4.33281,-0.70464 -5.69713,-2.11394 -1.37933,-1.3793 -1.8441,-3.44827 -1.36432,-6.22189 l 1.42427,-7.82611 a 1.4992552,1.4992552 0 0 0 -1.46926,-1.76913 h -0.28502 a 1.4992552,1.4992552 0 0 1 -1.46926,-1.75412 l 0.35982,-2.11395 a 1.4992552,1.4992552 0 0 1 1.48422,-1.24439 h 1.39435 a 1.4992552,1.4992552 0 0 0 1.46926,-1.22938 l 0.79461,-4.42281 a 1.4992552,1.4992552 0 0 1 1.3493,-1.22938 l 5.0375,-0.44975 a 0.59970206,0.59970206 0 0 1 0.62971,0.71964 l -0.86957,4.84259 a 1.4992552,1.4992552 0 0 0 1.46926,1.76912 h 2.84859 a 1.4992552,1.4992552 0 0 1 1.48428,1.75413 z m 16.02707,9.38534 2.14391,-12.03902 a 1.4992552,1.4992552 0 0 1 1.48427,-1.22939 h 3.83808 a 1.4992552,1.4992552 0 0 1 1.48428,1.76912 l -3.49327,19.49032 a 1.4992552,1.4992552 0 0 1 -1.46926,1.22939 h -3.8081 a 0.56971699,0.56971699 0 0 1 -0.56971,-0.67466 c 0.0901,-0.53974 -0.56976,-0.92954 -1.01951,-0.59971 a 9.7901365,9.7901365 0 0 1 -5.66722,1.82909 c -2.69866,0 -4.73762,-0.89955 -6.10194,-2.66867 -1.37933,-1.76912 -1.81412,-4.12295 -1.31933,-7.06149 l 2.17389,-12.084 a 1.4992552,1.4992552 0 0 1 1.46926,-1.22939 h 3.9131 a 1.4992552,1.4992552 0 0 1 1.48422,1.76912 l -2.00899,11.18445 c -0.20966,1.27436 -0.0601,2.29386 0.44992,3.05848 0.50998,0.74963 1.31938,1.12444 2.4138,1.12444 1.54423,0 2.74365,-0.58471 3.59821,-1.72414 0.46465,-0.49474 0.79461,-1.19941 1.0045,-2.14394 z m 18.8306,9.82012 c -2.23389,0 -4.19789,-0.3898 -5.93705,-1.16942 a 7.7811344,7.7811344 0 0 1 -3.59821,-2.77362 0.64467971,0.64467971 0 0 1 -0.0901,-0.46477 c 0.0283,-0.14993 0.10483,-0.29987 0.22496,-0.38979 l 3.35835,-3.13345 c 0.10483,-0.09 0.22496,-0.14993 0.35982,-0.14993 0.1649,0 0.32979,0.10494 0.44992,0.23986 0.47995,0.65968 1.25938,1.24438 2.30887,1.75413 1.15443,0.56972 2.30886,0.85458 3.46329,0.85458 0.91451,0 1.61919,-0.17991 2.11393,-0.52472 0.50999,-0.35982 0.76464,-0.83958 0.76464,-1.45428 0,-0.35982 -0.13486,-0.70465 -0.40459,-1.00449 -0.26972,-0.32985 -0.59968,-0.58472 -0.97446,-0.77962 -0.49468,-0.2249 -0.97452,-0.43479 -1.4543,-0.5997 a 15.742179,15.742179 0 0 1 -4.57274,-2.18892 5.0974676,5.0974676 0 0 1 -2.23389,-4.43779 c 0,-2.18891 0.89955,-3.98802 2.6837,-5.36733 a 11.154459,11.154459 0 0 1 7.04649,-2.09896 13.793148,13.793148 0 0 1 5.27736,0.98951 c 1.46926,0.61469 2.5787,1.43929 3.32837,2.48876 0.10483,0.13492 0.15017,0.29987 0.10483,0.47978 -0.017,0.14994 -0.0901,0.29987 -0.20966,0.40482 l -3.2534,2.86357 a 0.62968718,0.62968718 0 0 1 -0.40459,0.14993 0.6596723,0.6596723 0 0 1 -0.47995,-0.20988 6.3868271,6.3868271 0 0 0 -2.09892,-1.49925 6.5667377,6.5667377 0 0 0 -2.72864,-0.59971 c -0.77965,0 -1.4093,0.14994 -1.88908,0.47978 a 1.4092999,1.4092999 0 0 0 -0.70463,1.22939 c 0,0.31483 0.15016,0.59971 0.41988,0.8096 0.35983,0.29987 0.74962,0.52471 1.1694,0.70465 l 0.64467,0.28486 a 66.042192,66.042192 0 0 0 1.99403,0.77961 11.45431,11.45431 0 0 1 4.04802,2.77362 c 0.86952,1.0045 1.30431,2.27887 1.30431,3.79311 0,2.38382 -0.91451,4.25789 -2.75861,5.6522 a 11.679198,11.679198 0 0 1 -7.27139,2.09895 z"
         fill="#fff"
         id="path4"
         style="fill:#ffffff;stroke-width:1.49925" />
    </g>
  </g>
</svg>
