<?xml version="1.0" encoding="UTF-8"?>
<svg width="400mm" height="250mm" version="1.1" viewBox="0 0 400 250" xmlns="http://www.w3.org/2000/svg" xmlns:cc="http://creativecommons.org/ns#" xmlns:dc="http://purl.org/dc/elements/1.1/" xmlns:rdf="http://www.w3.org/1999/02/22-rdf-syntax-ns#">
<metadata>
<rdf:RDF>
<cc:Work rdf:about="">
<dc:format>image/svg+xml</dc:format>
<dc:type rdf:resource="http://purl.org/dc/dcmitype/StillImage"/>
<dc:title/>
</cc:Work>
</rdf:RDF>
</metadata>
<rect x="-3.4917" y="-13.26" width="405.26" height="264.75" fill="#2c3e50" fill-rule="evenodd" stroke-width=".27285"/>
<g transform="translate(-15.71 .19892)" fill="#fff" stroke-width="1.4992">
<path d="m150.64 132.65c-0.46465-0.10494-0.8396-0.2249-1.1994-0.37483-0.23969-0.11996-0.44992-0.23987-0.62966-0.40482a0.47976 0.47976 0 0 1-0.16489-0.41977c0.17962-1.904-0.017-3.5982 0.15016-5.4723 0.76458-7.6762 5.5922-5.2474 9.9251-6.4918 2.4738-0.70464 4.9625-2.084 5.877-4.7976 0.15016-0.44975 0.017-0.92954-0.29976-1.2744a55.562 55.562 0 0 0-9.3853-8.5158 56.222 56.222 0 0 0-39.91-9.5353 0.70465 0.70465 0 0 0-0.50998 1.0795 21.02 21.02 0 0 0 6.6118 6.5068c0.47995 0.29987 0.28502 0.94453-0.26973 0.8096a12.579 12.579 0 0 1-4.4678-1.949 0.53973 0.53973 0 0 0-0.50998-0.0448l-2.5337 1.0195a0.68966 0.68966 0 0 0-0.17962 1.1694 20.99 20.99 0 0 0 24.633 2.084c0.47996-0.29987 1.2444 0.29987 1.0945 0.83958-0.25499 0.85458-0.54001 2.039-0.8396 3.6432-1.949 9.7901-7.5263 9.0405-14.438 6.5667-13.793-5.0075-21.634-0.73463-28.591-9.1904-0.49469-0.5997-1.3493-0.79461-1.9191-0.29987a6.5368 6.5368 0 0 0 0.65969 10.45c0.22496 0.14993 0.50999 0.09 0.67465-0.10495 0.43462-0.55474 0.77966-0.89955 1.2294-1.1394 0.46465-0.23986 0.70469 0.44974 0.29976 0.79461-1.4843 1.3044-1.904 2.8636-2.8636 5.952-1.5292 4.8126-0.88454 9.7452-7.976 11.035-3.7482 0.19492-3.6881 2.7436-5.0525 6.5368-1.5892 4.5877-3.6582 6.5968-7.4962 10.615-0.53945 0.54-0.58472 1.4243 0 1.9191 1.5292 1.3043 3.1184 1.3793 4.7227 0.71964 3.988-1.6792 7.0614-6.8366 9.955-10.18 3.2234-3.7182 10.96-2.1289 16.807-5.7721 3.1484-1.934 5.0524-4.4078 4.4528-8.096-0.10483-0.5997 0.58473-0.95952 0.82459-0.40481 0.46465 1.0495 0.77959 2.1589 0.89955 3.2984 0.0453 0.31483 0.29976 0.53972 0.6147 0.52471 6.3268-0.35983 14.498 6.6117 22.144 8.5008 0.46465 0.11996 0.79456-0.41977 0.53945-0.82459a14.108 14.108 0 0 1-1.994-4.6477c-0.15016-0.58471 0.71964-0.74963 1.0195-0.20988a14.123 14.123 0 0 0 11.334 7.2564c1.8591 0.14994 3.898-0.075 6.027-0.71964 2.5487-0.76462 4.9026-1.7541 7.7062-1.2144a7.9461 7.9461 0 0 1 5.2474 3.2234c1.6942 2.4888 5.2924 3.1484 7.2114 0.53973a1.2444 1.2444 0 0 0 0.12013-1.2294c-4.2279-9.8951-14.948-10.57-19.565-11.769z" clip-rule="evenodd" fill-rule="evenodd"/>
<path d="m209.01 110.99a1.4993 1.4993 0 0 1 1.3493-1.2294l5.1275-0.44974a0.5997 0.5997 0 0 1 0.64468 0.71964l-5.1575 28.711a1.4993 1.4993 0 0 1-1.4693 1.2294h-3.8831c-0.34509 0-0.59974-0.29987-0.55475-0.65967 0.0901-0.52471-0.55475-0.89955-1.0045-0.58471-1.6942 1.1994-3.5832 1.7991-5.6222 1.7991a9.1455 9.1455 0 0 1-7.0465-3.0585 10.585 10.585 0 0 1-2.8186-7.4363c0-3.7481 1.1544-6.8666 3.4633-9.3554a11.529 11.529 0 0 1 8.8456-3.7332c2.1439 0 3.958 0.56972 5.4423 1.6942 0.49469 0.37484 1.2743 0.14994 1.3793-0.46476l1.3044-7.1964zm-8.6957 23.688a5.5472 5.5472 0 0 0 4.3478-1.8891 6.8066 6.8066 0 0 0 1.6492-4.6477c0-1.5892-0.44992-2.8786-1.3494-3.8531a4.5278 4.5278 0 0 0-3.5232-1.4843c-1.7691 0-3.1934 0.62969-4.3028 1.8891a6.7017 6.7017 0 0 0-1.6642 4.6477c0 1.5742 0.44992 2.8486 1.3493 3.8531a4.4978 4.4978 0 0 0 3.5083 1.4693zm23.388-20.78c-1.0495 0-1.949-0.37484-2.6986-1.0945a3.5982 3.5982 0 0 1-1.1244-2.6987c0-1.3193 0.49468-2.4588 1.4693-3.3883 0.9595-0.94453 2.0989-1.4093 3.4483-1.4093 1.0345 0 1.919 0.37484 2.6687 1.1394 0.74962 0.77961 1.1094 1.6792 1.1094 2.6837 0 1.3193-0.47995 2.4288-1.4393 3.3583-0.95956 0.94453-2.099 1.4093-3.4333 1.4093zm-0.71964 24.858a1.4993 1.4993 0 0 1-1.4693 1.2294h-3.8831a1.4993 1.4993 0 0 1-1.4693-1.7691l3.4933-19.49a1.4993 1.4993 0 0 1 1.4843-1.2294h3.898a1.4993 1.4993 0 0 1 1.4693 1.7691zm24.273-21.154c0.16489 0.075 0.29975 0.20989 0.37455 0.37484 0.0748 0.17991 0.0601 0.38979-0.017 0.56972l-2.069 4.4528a0.74963 0.74963 0 0 1-0.32979 0.35982 0.82459 0.82459 0 0 1-0.7346 0c-0.70468-0.3448-1.4993-0.49474-2.3388-0.47978-1.8441 0-3.2534 0.74963-4.2579 2.2489-0.35982 0.56972-0.74962 1.9041-1.1844 3.988l-1.6794 9.6102a1.4993 1.4993 0 0 1-1.4693 1.2444h-3.898a1.4993 1.4993 0 0 1-1.4993-1.7691l3.5083-19.49a1.4993 1.4993 0 0 1 1.4843-1.2294h3.2983c0.62972 0 1.1094 0.55475 1.0045 1.1694-0.0901 0.52472 0.59968 0.85458 1.0045 0.50976a8.1559 8.1559 0 0 1 8.7881-1.5742zm11.979-0.65967c3.5982 0 6.2969 1.1544 8.096 3.4483a9.6552 9.6552 0 0 1 1.7391 8.3059c-0.017 0.19493-0.0601 0.3898-0.12013 0.5997-0.15016 0.5997-0.71964 0.98951-1.3493 0.98951h-13.793c-0.79461 0-1.4693 0.5997-1.3493 1.3793 0.15016 1.0045 0.56971 1.7991 1.2594 2.4138 0.98948 0.88455 2.2639 1.3193 3.8531 1.3193 2.2339 0 4.2279-0.77961 5.997-2.3388 0.12012-0.09 0.25499-0.14994 0.38985-0.14994 0.16489 0 0.32979 0.075 0.44992 0.20989l2.144 2.5487a0.68966 0.68966 0 0 1-0.0453 0.89955 13.838 13.838 0 0 1-9.9251 3.973c-3.3283 0-5.997-1.0495-8.066-3.1634a9.9551 9.9551 0 0 1-2.7588-8.036 12.399 12.399 0 0 1 6.3718-10.45 13.673 13.673 0 0 1 7.1065-1.949zm-5.3224 7.4363c-0.55475 0.85458 0.16489 1.8441 1.1694 1.8441h6.2969c0.79461 0 1.4992-0.64468 1.3044-1.4243a3.943 3.943 0 0 0-0.70468-1.4543c-0.71965-1.0045-1.8591-1.4993-3.3733-1.4843-1.3643 0-2.5487 0.38979-3.5232 1.1694-0.44992 0.38979-0.8396 0.85457-1.1694 1.3493zm28.261 16.162c-3.2234 0-5.8471-1.0195-7.8861-3.0585a10.525 10.525 0 0 1-3.0734-7.8411 12.369 12.369 0 0 1 5.2474-10.21 13.808 13.808 0 0 1 8.021-2.4888c3.8831 0 6.8516 1.2894 8.9356 3.8681 0.12013 0.14994 0.15016 0.34481 0.10483 0.53974a0.5997 0.5997 0 0 1-0.20966 0.29987l-4.048 3.2234a0.5997 0.5997 0 0 1-0.34452 0.13492 0.61469 0.61469 0 0 1-0.49468-0.23986 5.0675 5.0675 0 0 0-4.1829-1.949c-1.6942 0-3.1035 0.50976-4.2129 1.5442a6.4318 6.4318 0 0 0-1.9491 4.8876c0 1.6492 0.47995 2.9385 1.4243 3.928 0.91457 0.98951 2.1589 1.4992 3.7032 1.4992 1.6042 0 3.0435-0.5997 4.2879-1.7691a0.5997 0.5997 0 0 1 0.85462 0.03l2.8485 3.1784a0.62969 0.62969 0 0 1-0.0283 0.86956 12.669 12.669 0 0 1-8.9955 3.5532zm30.015-19.16a1.4993 1.4993 0 0 1-1.4843 1.2294h-3.958a1.4993 1.4993 0 0 0-1.4842 1.2444l-1.3793 7.6762c-0.37455 2.069 0.29976 3.1035 2.0689 3.1035 0.73466 0 1.4243-0.2249 2.099-0.65967a0.52474 0.52474 0 0 1 0.56971-0.0153c0.10483 0.0599 0.17963 0.16489 0.20966 0.29987l0.97452 3.5832a1.0045 1.0045 0 0 1-0.38986 1.0645 9.4903 9.4903 0 0 1-5.4423 1.6342c-2.4288 0-4.3328-0.70464-5.6971-2.1139-1.3793-1.3793-1.8441-3.4483-1.3643-6.2219l1.4243-7.8261a1.4993 1.4993 0 0 0-1.4693-1.7691h-0.28502a1.4993 1.4993 0 0 1-1.4693-1.7541l0.35982-2.114a1.4993 1.4993 0 0 1 1.4842-1.2444h1.3944a1.4993 1.4993 0 0 0 1.4693-1.2294l0.79461-4.4228a1.4993 1.4993 0 0 1 1.3493-1.2294l5.0375-0.44975a0.5997 0.5997 0 0 1 0.62971 0.71964l-0.86957 4.8426a1.4993 1.4993 0 0 0 1.4693 1.7691h2.8486a1.4993 1.4993 0 0 1 1.4843 1.7541zm16.027 9.3853 2.1439-12.039a1.4993 1.4993 0 0 1 1.4843-1.2294h3.8381a1.4993 1.4993 0 0 1 1.4843 1.7691l-3.4933 19.49a1.4993 1.4993 0 0 1-1.4693 1.2294h-3.8081a0.56972 0.56972 0 0 1-0.56971-0.67466c0.0901-0.53974-0.56976-0.92954-1.0195-0.59971a9.7901 9.7901 0 0 1-5.6672 1.8291c-2.6987 0-4.7376-0.89955-6.1019-2.6687-1.3793-1.7691-1.8141-4.123-1.3193-7.0615l2.1739-12.084a1.4993 1.4993 0 0 1 1.4693-1.2294h3.9131a1.4993 1.4993 0 0 1 1.4842 1.7691l-2.009 11.184c-0.20966 1.2744-0.0601 2.2939 0.44992 3.0585 0.50998 0.74963 1.3194 1.1244 2.4138 1.1244 1.5442 0 2.7436-0.58471 3.5982-1.7241 0.46465-0.49474 0.79461-1.1994 1.0045-2.1439zm18.831 9.8201c-2.2339 0-4.1979-0.3898-5.937-1.1694a7.7811 7.7811 0 0 1-3.5982-2.7736 0.64468 0.64468 0 0 1-0.0901-0.46477c0.0283-0.14993 0.10483-0.29987 0.22496-0.38979l3.3584-3.1334c0.10483-0.09 0.22496-0.14993 0.35982-0.14993 0.1649 0 0.32979 0.10494 0.44992 0.23986 0.47995 0.65968 1.2594 1.2444 2.3089 1.7541 1.1544 0.56972 2.3089 0.85458 3.4633 0.85458 0.91451 0 1.6192-0.17991 2.1139-0.52472 0.50999-0.35982 0.76464-0.83958 0.76464-1.4543 0-0.35982-0.13486-0.70465-0.40459-1.0045-0.26972-0.32985-0.59968-0.58472-0.97446-0.77962-0.49468-0.2249-0.97452-0.43479-1.4543-0.5997a15.742 15.742 0 0 1-4.5727-2.1889 5.0975 5.0975 0 0 1-2.2339-4.4378c0-2.1889 0.89955-3.988 2.6837-5.3673a11.154 11.154 0 0 1 7.0465-2.099 13.793 13.793 0 0 1 5.2774 0.98951c1.4693 0.61469 2.5787 1.4393 3.3284 2.4888 0.10483 0.13492 0.15017 0.29987 0.10483 0.47978-0.017 0.14994-0.0901 0.29987-0.20966 0.40482l-3.2534 2.8636a0.62969 0.62969 0 0 1-0.40459 0.14993 0.65967 0.65967 0 0 1-0.47995-0.20988 6.3868 6.3868 0 0 0-2.0989-1.4992 6.5667 6.5667 0 0 0-2.7286-0.59971c-0.77965 0-1.4093 0.14994-1.8891 0.47978a1.4093 1.4093 0 0 0-0.70463 1.2294c0 0.31483 0.15016 0.59971 0.41988 0.8096 0.35983 0.29987 0.74962 0.52471 1.1694 0.70465l0.64467 0.28486a66.042 66.042 0 0 0 1.994 0.77961 11.454 11.454 0 0 1 4.048 2.7736c0.86952 1.0045 1.3043 2.2789 1.3043 3.7931 0 2.3838-0.91451 4.2579-2.7586 5.6522a11.679 11.679 0 0 1-7.2714 2.099z"/>
</g>
</svg>
