<?xml version="1.0" encoding="UTF-8"?>
<svg width="400mm" height="250mm" version="1.1" viewBox="0 0 400 250" xmlns="http://www.w3.org/2000/svg" xmlns:cc="http://creativecommons.org/ns#" xmlns:dc="http://purl.org/dc/elements/1.1/" xmlns:rdf="http://www.w3.org/1999/02/22-rdf-syntax-ns#">
<defs>
<style>.a7e91070-bc4e-4d7e-a1a4-375ce9b112ea{fill:#668362;}.e069c3a9-1290-428d-a99d-a7a75a876e99{fill:#cfdc96;}.ec5503ae-b2fc-4350-8cf0-207ea5f2789d{fill:#d7fc7e;}.e6e955ec-e082-4119-afd9-8e160ee00eeb{fill:#a7adf0;}.ffafc15d-45ce-401a-977b-63c6adf03024{fill:#57a4ff;}.bea5a0fc-33fd-4abe-9c27-42190133ddc3{fill:#231f20;}</style>
</defs>
<metadata>
<rdf:RDF>
<cc:Work rdf:about="">
<dc:format>image/svg+xml</dc:format>
<dc:type rdf:resource="http://purl.org/dc/dcmitype/StillImage"/>
<dc:title/>
</cc:Work>
</rdf:RDF>
</metadata>
<rect x=".63876" y="-.030498" width="401.13" height="251.52" fill="#ff7f00" fill-rule="evenodd" stroke-width=".26458"/>
<g transform="translate(458.54 256.37)">
<g transform="translate(-53.727 -224)" fill="#fff">
<g aria-label="2">
<path d="m-214.91 174.54v-14.554c3.8963-8.9385 8.6329-16.807 14.21-23.607 5.6534-6.8757 11.574-13.064 17.762-18.565 6.1882-5.577 12.3-10.734 18.335-15.47 6.1118-4.7366 11.612-9.4732 16.502-14.21 4.8894-4.7366 8.8239-9.7024 11.803-14.897 3.0559-5.195 4.5838-11.078 4.5838-17.648 0-8.8621-2.5975-15.738-7.7925-20.627s-12.415-7.3341-21.659-7.3341c-8.7857 0-16.043 2.4065-21.773 7.2195-5.6534 4.7366-8.9767 11.421-9.9698 20.054l-23.811 0.04725c1.528-12.911 9.7154-25.182 19.112-32.822 9.4732-7.6397 21.62-11.46 36.441-11.46 16.273 0 28.764 3.8581 37.473 11.574 8.7857 7.6397 13.178 18.526 13.178 32.66 0 6.2646-1.4515 12.491-4.3546 18.679-2.8267 6.1882-7.0667 12.376-12.72 18.565-5.6534 6.1882-16.464 15.776-32.431 28.764-8.7857 7.1813-15.776 13.675-20.971 19.481-5.195 5.7298-8.9385 11.269-11.23 16.616h84.228v17.533z" fill="#fff" stroke-width="5.8673"/>
</g>
<g transform="matrix(-1 0 0 1 -3.569 .04725)" aria-label="2">
<path d="m191.15 174.54v-14.554c3.8962-8.9385 8.6329-16.807 14.21-23.607 5.6534-6.8757 11.574-13.064 17.762-18.565 6.1882-5.577 12.3-10.734 18.335-15.47 6.1118-4.7366 11.612-9.4732 16.502-14.21 4.8894-4.7366 8.8239-9.7024 11.803-14.897 3.0559-5.195 4.5838-11.078 4.5838-17.648 0-8.8621-2.5975-15.738-7.7925-20.627-5.195-4.8894-12.415-7.3341-21.659-7.3341-8.7857 0-16.043 2.4065-21.773 7.2195-5.6534 4.7366-8.9767 11.421-9.9698 20.054l-23.811-0.04725c1.5279-12.911 9.7154-25.087 19.112-32.727 9.4732-7.6397 21.62-11.46 36.441-11.46 16.273 0 28.764 3.8581 37.473 11.574 8.7857 7.6397 13.179 18.526 13.179 32.66 0 6.2646-1.4516 12.491-4.3546 18.679-2.8267 6.1882-7.0667 12.376-12.72 18.565-5.6534 6.1882-16.464 15.776-32.431 28.764-8.7857 7.1813-15.776 13.675-20.971 19.481-5.195 5.7298-8.9385 11.269-11.23 16.616h84.228v17.533z" fill="#fff" stroke-width="5.8673"/>
</g>
</g>
</g>
</svg>
