<?xml version="1.0" encoding="UTF-8"?>
<svg width="400mm" height="250mm" version="1.1" viewBox="0 0 400 250" xmlns="http://www.w3.org/2000/svg" xmlns:cc="http://creativecommons.org/ns#" xmlns:dc="http://purl.org/dc/elements/1.1/" xmlns:rdf="http://www.w3.org/1999/02/22-rdf-syntax-ns#">
<defs>
<style>.a7e91070-bc4e-4d7e-a1a4-375ce9b112ea{fill:#668362;}.e069c3a9-1290-428d-a99d-a7a75a876e99{fill:#cfdc96;}.ec5503ae-b2fc-4350-8cf0-207ea5f2789d{fill:#d7fc7e;}.e6e955ec-e082-4119-afd9-8e160ee00eeb{fill:#a7adf0;}.ffafc15d-45ce-401a-977b-63c6adf03024{fill:#57a4ff;}.bea5a0fc-33fd-4abe-9c27-42190133ddc3{fill:#231f20;}</style>
</defs>
<metadata>
<rdf:RDF>
<cc:Work rdf:about="">
<dc:format>image/svg+xml</dc:format>
<dc:type rdf:resource="http://purl.org/dc/dcmitype/StillImage"/>
<dc:title/>
</cc:Work>
</rdf:RDF>
</metadata>
<rect x="-2.5657" y="-4.1669" width="410.52" height="259.26" fill="#b1c9f6" fill-rule="evenodd" stroke-width=".27175"/>
<g transform="matrix(1.3493 0 0 1.3493 72.671 -58.006)">
<rect x="76.149" y="106.36" width="36.357" height="21.322" fill="#fff" stroke-width=".26458"/>
<path d="m79.672 151.99h0.26458c-1.5653 9.5536-11.654 21.921-22.49 17.939-3.9695-1.4589-3.9889-5.3099-7.1498-7.2824-3.0313-1.8912-7.3507-0.18891-8.0599 3.3663-1.8527 9.2874 10.576 15.399 18.12 15.601 12.18 0.32544 24.466-8.8328 28.31-20.363h0.26459v15.61c0 2.6434-0.36539 5.597 0.10874 8.2021 0.47651 2.6196 3.0726 4.5373 5.7121 4.336 2.7443-0.20955 4.7265-2.4768 4.9755-5.1297 0.70723-7.539 0.0516-15.445 0.0516-23.019h0.26459c3.9346 11.699 16.264 20.692 28.575 20.363 7.498-0.20056 20.021-6.6413 17.829-15.865-0.81333-3.4232-5.1353-4.9104-8.0338-3.102-3.157 1.9698-3.1991 5.8304-7.1498 7.2824-10.8 3.969-20.93-8.418-22.49-17.939 8.1447 9.7171 21.321 13.83 32.808 6.9739 5.9994-3.5806 10.247-9.6422 11.562-16.499 0.44741-2.3334 0.88159-5.5695-0.50324-7.6602-2.1616-3.2639-7.2943-3.1242-9.2715 0.26273-1.4912 2.5546-0.84613 5.9785-2.2791 8.7204-3.8656 7.3962-13.406 10.003-20.145 4.8117-4.9305-3.7978-5.5562-8.8281-5.5562-14.601v-23.548c0-4.9125 0.43762-10.11-1.2621-14.817-4.3775-12.121-19.399-17.527-30.488-10.942-10.086 5.9893-10.319 15.879-10.319 26.288v18.521c0 7.2364 0.80592 14.522-5.8208 19.325-6.8667 4.9771-16.308 2.1521-20.016-5.3022-1.4541-2.9236-0.62143-7.0276-2.8744-9.4544-3.0861-3.324-8.8458-1.3443-9.3311 3.1044-2.5159 23.064 32.644 35.095 44.392 14.817m4.4979-42.747c8.2058-1.2782 10.696 11.543 2.3812 12.76-8.4309 1.2338-10.807-11.447-2.3812-12.76m17.727 0.0183c8.001-1.4589 10.709 11.146 2.6458 12.698-8.4206 1.6211-11.077-11.161-2.6458-12.698m-17.198 2.5125c1.6362 2.7271-0.0603 5.9735-2.9104 3.175-1.6695 6.4124 10.073 5.0067 6.8202-1.0229-0.31353-0.58129-0.76491-1.0681-1.3219-1.4235-0.79428-0.50694-1.6711-0.64267-2.5879-0.72866m17.727 0c1.6423 2.7368-9e-3 5.9055-2.9104 3.175-1.759 6.4331 10.085 5.031 6.89-1.0372-0.31803-0.60457-0.79269-1.1134-1.3703-1.4774-0.80354-0.50641-1.6862-0.60404-2.6093-0.6604z" fill="#6495ed"/>
</g>
</svg>
