<?xml version="1.0" encoding="UTF-8" standalone="no"?>
<svg
   xmlns:dc="http://purl.org/dc/elements/1.1/"
   xmlns:cc="http://creativecommons.org/ns#"
   xmlns:rdf="http://www.w3.org/1999/02/22-rdf-syntax-ns#"
   xmlns:svg="http://www.w3.org/2000/svg"
   xmlns="http://www.w3.org/2000/svg"
   xmlns:sodipodi="http://sodipodi.sourceforge.net/DTD/sodipodi-0.dtd"
   xmlns:inkscape="http://www.inkscape.org/namespaces/inkscape"
   width="400mm"
   height="250mm"
   viewBox="0 0 400 250"
   version="1.1"
   id="svg16"
   inkscape:version="1.0.1 (3bc2e813f5, 2020-09-07, custom)"
   sodipodi:docname="geocode.svg"
   inkscape:export-filename="/home/maartenvn/Development/Website/src/content/projects/img/geocode.png"
   inkscape:export-xdpi="100"
   inkscape:export-ydpi="100">
  <defs
     id="defs10">
    <style
       id="style862">.a7e91070-bc4e-4d7e-a1a4-375ce9b112ea{fill:#668362;}.e069c3a9-1290-428d-a99d-a7a75a876e99{fill:#cfdc96;}.ec5503ae-b2fc-4350-8cf0-207ea5f2789d{fill:#d7fc7e;}.e6e955ec-e082-4119-afd9-8e160ee00eeb{fill:#a7adf0;}.ffafc15d-45ce-401a-977b-63c6adf03024{fill:#57a4ff;}.bea5a0fc-33fd-4abe-9c27-42190133ddc3{fill:#231f20;}</style>
  </defs>
  <sodipodi:namedview
     id="base"
     pagecolor="#ffffff"
     bordercolor="#666666"
     borderopacity="1.0"
     inkscape:pageopacity="0.0"
     inkscape:pageshadow="2"
     inkscape:zoom="0.35"
     inkscape:cx="666.09445"
     inkscape:cy="566.36963"
     inkscape:document-units="mm"
     inkscape:current-layer="layer1"
     inkscape:document-rotation="0"
     showgrid="false"
     inkscape:window-width="1506"
     inkscape:window-height="1034"
     inkscape:window-x="2887"
     inkscape:window-y="177"
     inkscape:window-maximized="0" />
  <metadata
     id="metadata13">
    <rdf:RDF>
      <cc:Work
         rdf:about="">
        <dc:format>image/svg+xml</dc:format>
        <dc:type
           rdf:resource="http://purl.org/dc/dcmitype/StillImage" />
        <dc:title />
      </cc:Work>
    </rdf:RDF>
  </metadata>
  <g
     inkscape:label="Layer 1"
     inkscape:groupmode="layer"
     id="layer1">
    <rect
       style="fill:#50ab36;fill-rule:evenodd;stroke-width:0.264583;fill-opacity:1"
       id="rect853"
       width="401.12979"
       height="251.51888"
       x="0.63875759"
       y="-0.030498322" />
    <g
       id="g1410"
       transform="matrix(0.17729437,0,0,0.17729437,105.59048,30.603891)">
      <g
         id="b431e0c3-126a-4307-81ab-2eb16d29cbba"
         data-name="Layer 1">
        <path
           class="a7e91070-bc4e-4d7e-a1a4-375ce9b112ea"
           d="m -378,647.25 q 0,-49.75 0,-99.49 a 19.36,19.36 0 0 0 -1.22,-7.3 516.45,516.45 0 0 1 -32.52,-129.28 537.27,537.27 0 0 1 6.05,-167 528.74,528.74 0 0 1 66.27,-171.67 525.48,525.48 0 0 1 72.53,-94.36 c 36.85,-38.27 78.21,-70.68 124.65,-96.48 a 532.33,532.33 0 0 1 260.33,-67.12 c 95.7,0.45 185.17,24.45 267.91,72.76 a 533.93,533.93 0 0 1 227.77,267.91 533.07,533.07 0 0 1 34,234.53 531.13,531.13 0 0 1 -34.14,149.7 23.61,23.61 0 0 0 -1.68,8.69 q 0.06,99.24 0.13,198.48 c 0,4.3 -0.88,5.52 -5.39,5.5 -46,-0.19 -92,-0.08 -138,-0.19 A 14.68,14.68 0 0 0 458.41,755.6 527.73,527.73 0 0 1 267.18,858 519.18,519.18 0 0 1 152.46,878.2 557.25,557.25 0 0 1 73.12,877.72 538,538 0 0 1 -27.4,859.72 c -52.32,-14.55 -101,-37.18 -146.48,-66.62 a 461.66,461.66 0 0 1 -51.23,-38.1 12,12 0 0 0 -8.5,-3 c -46.33,0.09 -92.66,0 -139,0.16 -4.25,0 -5.56,-0.8 -5.53,-5.36 0.24,-33.22 0.14,-66.39 0.14,-99.55 z M 117,737 q 237,0 473.94,0.12 c 5.16,0 6.24,-1.39 6.22,-6.34 q -0.27,-84 0,-168 c 0,-4.3 -0.74,-5.93 -5.6,-5.92 q -474.44,0.2 -948.87,0 c -4.68,0 -5.72,1.34 -5.7,5.82 q 0.22,84 0.1,168 c 0,7.12 -0.76,6.29 6.51,6.3 z M 573.73,269.5 C 541.14,72 354.49,-123.48 91.6,-109.55 -156,-96.43 -313.81,98.46 -339.59,269.67 c 3.1,-0.78 6.1,-2 9.18,-2.22 3.89,-0.3 5.66,-2.22 7.09,-5.64 a 90.19,90.19 0 0 1 27.74,-36.56 c 19.92,-15.73 42.53,-22.77 67.89,-20.31 4.23,0.41 7.35,-0.32 10.6,-3.58 q 90,-90.33 180.14,-180.47 c 3.46,-3.47 5.33,-3.32 8.68,0.05 Q 26.7,76.28 82,131.32 c 4.2,4.2 4.23,4.21 6.72,-1 A 126.48,126.48 0 0 1 112.2,95.84 c 2.56,-2.63 4.35,-2.81 6.6,0 3.51,4.44 7.27,8.68 10.63,13.22 6.57,8.86 11.07,18.94 16.57,30.75 1.55,-2.42 2.29,-4.2 3.56,-5.47 Q 206.19,77.54 262.88,20.72 c 3.53,-3.56 5.11,-3.1 8.37,0.17 q 90,90.3 180.14,180.46 c 3.08,3.09 6.08,4.32 10.1,3.62 a 64.08,64.08 0 0 1 22.36,0.29 c 34.8,6.16 59.7,25.17 73.88,57.78 0.74,1.7 1.35,3.41 3.49,3.84 4.15,0.83 8.29,1.73 12.51,2.62 z M -100.65,497 c 16.53,0 32,0 47.42,0 2.57,0 2.81,-1.95 3.56,-3.47 q 7.19,-14.54 14.28,-29.11 16.73,-34.29 33.46,-68.59 c 0.81,-1.63 1.12,-3.91 3.93,-3.83 4.58,0.1 9.17,0 14.56,0 l -51.2,105 c 12.94,0 24.93,-0.18 36.91,0.11 C 5.88,497.2 7,495.85 8,492.7 q 13.65,-45.34 27.56,-90.6 c 3.09,-10.13 3.1,-9.88 13.46,-10.22 4.54,-0.14 5.17,1 3.88,5.11 -8.51,27.28 -16.82,54.62 -25.18,81.95 -1.8,5.89 -3.56,11.8 -5.44,18.06 11.11,0 21.44,-0.29 31.75,0.13 4.7,0.2 6.13,-1.32 6.81,-5.8 4.53,-29.75 9.37,-59.46 14.07,-89.19 1.62,-10.21 1.58,-10 11.74,-10.25 4.39,-0.12 4.83,1.47 4.22,5.17 -5.22,32.17 -10.3,64.35 -15.51,96.52 -0.43,2.63 0,3.52 2.86,3.47 8.67,-0.15 17.34,-0.29 26,0.05 4.3,0.17 5.6,-0.86 5.57,-5.41 -0.23,-30.33 -0.12,-60.66 -0.12,-91 0,-8.71 0,-8.37 8.55,-8.83 5,-0.26 6.32,1.16 6.28,6.24 -0.26,31.32 -0.06,62.66 -0.22,94 0,3.89 0.95,5.14 5,5 8.82,-0.32 17.67,-0.18 26.5,-0.06 2.61,0 3.44,-0.56 3,-3.37 -5.19,-32 -10.16,-64 -15.47,-96 -0.81,-4.85 0.4,-6.31 5.06,-5.69 a 30,30 0 0 0 6,0 c 2.38,-0.16 3.48,0.5 3.88,3.17 2.18,14.8 4.61,29.57 6.95,44.34 q 4.26,26.86 8.54,53.71 c 0.3,1.88 0.13,3.91 3.25,3.87 11.48,-0.16 23,-0.06 34.92,-0.06 L 179.75,392 c 4.17,0 7.69,0.29 11.13,-0.08 3.44,-0.37 4.87,1.12 5.84,4.34 9.69,32.13 19.58,64.2 29.25,96.34 1,3.44 2.52,4.59 6.14,4.5 10.16,-0.28 20.33,-0.1 30.5,-0.1 6.09,0 6.1,0 3.33,-5.68 q -22,-45.06 -44,-90.1 c -4.5,-9.23 -4.51,-9 6,-9.31 4.31,-0.12 6.73,0.9 8.76,5.14 15.46,32.23 31.29,64.29 46.87,96.47 1.27,2.61 2.64,3.59 5.57,3.55 12.83,-0.17 25.66,-0.07 38.5,-0.07 h 7 L 263.83,392 c 5.11,0 9.13,0.27 13.09,-0.08 3.63,-0.33 5.67,1.05 7.65,4 21.67,32.34 43.53,64.55 65.19,96.89 2.1,3.15 4.27,4.35 8.06,4.28 12.83,-0.26 25.67,-0.1 38.5,-0.1 h 19.34 L 317.79,392 c 6.35,0 11.64,0.15 16.92,-0.06 2.81,-0.12 4.55,1.05 6.38,3 q 45.72,49.21 91.52,98.37 a 10.5,10.5 0 0 0 8.59,3.76 c 24.5,-0.17 49,-0.09 73.49,-0.09 h 6.1 L 391.2,392 c 6.73,0 12,0.24 17.31,-0.07 4.45,-0.27 7.78,1.11 11.26,3.95 38.55,31.47 77.34,62.62 115.79,94.2 6.32,5.19 12.57,8 20.72,7 2.53,-0.3 3.82,-0.9 4.55,-3.37 5.17,-17.34 9.64,-34.87 13.17,-52.71 0.59,-3 -0.09,-4.78 -3,-6.37 -13.49,-7.57 -26.84,-15.38 -40.24,-23.12 q -16.08,-9.3 -32.16,-18.64 a 251.37,251.37 0 0 1 27.47,-0.81 c 1.2,0 2.44,0.94 3.57,1.59 14.57,8.35 29.18,16.64 43.65,25.16 3.31,2 4.32,1.19 4.63,-2.29 1,-11.11 2.17,-22.2 3,-33.31 0.48,-6.23 0.26,-6.25 -6.2,-6.25 h -915.43 a 24.83,24.83 0 0 1 -3,0 c -2.92,-0.35 -3.59,0.85 -3.47,3.72 0.5,12 2,23.88 3.22,35.8 0.45,4.16 1.88,4 5,2.14 14.33,-8.43 28.8,-16.65 43.2,-25 1.3,-0.75 2.46,-1.68 4.08,-1.68 8.93,0 17.85,0 28.19,0 -2.8,1.76 -4.38,2.83 -6,3.78 q -33.69,19.47 -67.43,38.87 c -2.41,1.37 -3.75,2.68 -3.15,5.81 a 478.44,478.44 0 0 0 13.27,53.19 c 0.37,1.19 0.47,3.23 2,3.15 6.09,-0.36 12.37,2 18.12,-2.73 q 61.13,-49.87 122.5,-99.41 c 1.27,-1 2.42,-2.55 4.18,-2.58 7.2,-0.09 14.4,0 22.82,0 L -286.85,497 c 27.11,0 52.61,-0.12 78.1,0.11 a 13.5,13.5 0 0 0 11.15,-4.82 q 45.4,-49.17 91.16,-98 c 0.89,-0.95 1.66,-2.2 3.18,-2.21 6.2,0 12.4,0 19.42,0 l -97.82,105 c 20.15,0 39,-0.14 57.78,0.11 4.07,0.05 6.21,-1.42 8.37,-4.65 Q -82.9,443.71 -50,395.17 c 1,-1.48 1.68,-3.23 4,-3.19 5.09,0.09 10.19,0 16.13,0 z m -224.54,45 q -41.73,-99.88 -37.57,-206.87 a 471,471 0 0 1 54.08,-202.61 478.49,478.49 0 0 1 135.51,-160.39 c 155.47,-118.21 370,-131.73 540.22,-27.22 101,62 170.48,150 206.88,263.06 36.31,112.79 29.51,224.18 -14.49,334 10.95,0 21.45,-0.17 31.94,0.09 3.7,0.09 5.44,-1 6.86,-4.55 a 515.35,515.35 0 0 0 36,-196.95 514,514 0 0 0 -8.24,-86.82 512.43,512.43 0 0 0 -54.4,-154 516,516 0 0 0 -134,-158.8 511.19,511.19 0 0 0 -200.7,-97.42 c -42.15,-10.06 -84.87,-14.3 -128.16,-13.79 a 506.11,506.11 0 0 0 -105.84,12.38 511,511 0 0 0 -176.52,76.53 519.1,519.1 0 0 0 -131,128.29 512.9,512.9 0 0 0 -76.94,160.64 508.78,508.78 0 0 0 -18.33,113.56 530.72,530.72 0 0 0 3.77,93.18 520.52,520.52 0 0 0 32.36,124.69 c 0.81,2.07 1.76,3.12 4.24,3.08 11.16,-0.17 22.32,-0.08 34.33,-0.08 z m 433.47,-213.78 1.51,-0.76 v -12.81 c 0,-21.62 0,-43.24 0,-64.86 0,-2.44 0.89,-5.25 -3.38,-5.88 -17.68,-2.58 -27.56,-13.81 -31.48,-30.45 -4.53,-19.28 -2.07,-38.34 3.87,-57 1.18,-3.72 0.53,-5.95 -2.21,-8.67 Q 23.77,95.29 -28.74,42.46 c -3.38,-3.41 -5.07,-3.47 -8.5,0 q -81.46,81.84 -163.22,163.39 c -0.35,0.36 -0.68,0.73 -1.06,1.06 -2.36,2 -3.32,3.31 0.74,4.84 a 76.22,76.22 0 0 1 17.44,9.58 c 18.58,13.27 30.64,31 36.75,53 2.88,10.4 3.15,10.11 13.51,7.91 24,-5.11 47.4,-3 69.71,7.09 30.63,13.89 51.45,37.07 62.5,68.87 1.06,3 2.54,3.93 5.71,3.91 25.49,-0.13 51,-0.07 76.48,-0.07 8.16,0 16.33,0 24.49,0 1.36,0 3.63,0.71 3.72,-1.34 0.18,-4.5 1.53,-9.18 -2.48,-13.14 Q 81.28,322 55.77,296.24 c -1.63,-1.63 -3,-2.57 -5.6,-1.59 C 41.3,298 34,294.34 27.35,288.73 c -7.46,-6.27 -12.13,-14.54 -16.07,-23.2 -5.9,-13 -9.71,-26.48 -9.36,-40.94 0.07,-3.16 0.27,-4.48 4.4,-4 19.93,2.38 36.36,11.63 50.09,25.57 9.62,9.76 16,21.15 8.87,35.5 -1.06,2.13 0.4,3.38 1.73,4.7 q 8.26,8.29 16.5,16.63 12.41,12.61 24.77,25.23 z M 157.16,193.3 c 0,2.92 0.28,4.8 0,6.57 -1,5.29 1,9 4.93,12.62 8.05,7.48 15.8,15.3 23.32,23.32 2.89,3.08 4.7,2.64 7.78,0.43 11.5,-8.22 24,-14.06 38.33,-15.64 4.36,-0.48 4.55,0.92 4.6,4.28 0.19,15.85 -4.25,30.52 -11.29,44.48 -1.43,2.84 -1.34,4.53 1,6.83 11.04,10.81 22.03,21.81 32.82,32.88 2.81,2.89 4.41,3 7.57,0.26 q 44.23,-38.81 102,-26.77 c 11,2.31 8.66,3 11.46,-7 8.46,-30.12 26.34,-51.82 55.3,-64 3.62,-1.52 2.89,-2.44 0.76,-4.56 Q 352.79,124.2 270,41.22 c -2.36,-2.36 -3.67,-2.24 -6,0.05 Q 208.79,96.68 153.37,151.93 c -1.85,1.85 -2.33,3.39 -1.59,6.09 3.22,11.88 5.86,23.91 5.38,35.28 z M 415.51,362 q 80.46,0 160.92,0.09 c 4.26,0 5.73,-0.89 5.7,-5.46 -0.09,-11.49 -0.46,-22.95 -1.26,-34.39 -0.74,-10.59 -2,-21.15 -3.09,-31.72 a 5.11,5.11 0 0 0 -3.79,-4.65 c -6,-2.15 -12,-4.24 -18.29,-4.65 -6,-0.39 -8.93,-2.94 -10.8,-8.58 A 75.36,75.36 0 0 0 520.73,237.9 C 504.05,224.15 484.92,218 463.35,220 q -31.41,2.87 -52.54,26.39 c -13,14.44 -18.63,31.91 -20.74,50.8 -0.73,6.51 -1.22,6.86 -7.38,4.87 -14.25,-4.62 -28.58,-7.87 -43.86,-7.32 -38.06,1.37 -73.92,26.15 -88.06,61.75 -2.18,5.49 -2.18,5.49 3.83,5.5 z m -597.68,0 H -20.7 c 5.55,0 5.65,-0.2 3.52,-5.21 -7.25,-17 -18,-31.35 -33,-42.38 -22.82,-16.89 -48.36,-22.64 -76.3,-18.41 -8.59,1.29 -16.65,4.58 -25,6.8 -2.73,0.72 -4.37,0.63 -4.63,-2.9 -0.26,-3.53 -1.34,-7.18 -1.81,-10.8 -5.16,-39.7 -39.5,-69 -75.73,-69.31 -18.46,-0.16 -35,4.37 -49.87,15.24 -14,10.28 -23.36,24 -29,40.27 -1,2.92 -2.1,4.7 -5.6,5.15 a 100.39,100.39 0 0 0 -21.24,5.17 c -3,1.07 -4.21,2.72 -4.56,5.7 -2.5,21.31 -4.45,42.65 -4.12,64.15 0.1,6.57 0,6.58 6.38,6.58 z m 299.11,150 h -431.4 c -6.05,0 -6.19,0.06 -4,6 2.27,6.06 5.18,11.9 7.18,18 1.53,4.68 3.9,6.12 8.9,6.12 q 419.4,-0.21 838.82,-0.12 a 21.29,21.29 0 0 1 3,0 c 2.38,0.33 3.59,-0.74 4.44,-2.92 2.71,-7 5.62,-13.85 8.4,-20.79 2.52,-6.29 2.49,-6.31 -4.45,-6.31 z m -241.06,240.19 c 74.84,44.75 154.75,67.52 240.66,67.38 85.91,-0.14 166.19,-21.84 239.58,-67.38 z M -203.36,752 c 45.14,37.35 95.59,64.73 150.47,84 55.12,19.34 112.09,28.5 170.4,28.52 A 506.67,506.67 0 0 0 287.36,835.8 521.66,521.66 0 0 0 439,752 c -17.68,0 -34,0 -50.33,0 a 7.87,7.87 0 0 0 -4.63,1.45 A 479.52,479.52 0 0 1 146.82,833.78 459.19,459.19 0 0 1 80,833.16 483.86,483.86 0 0 1 4.81,821.4 480.19,480.19 0 0 1 -149.53,753.9 C -150.9,753 -152.2,752 -154,752 q -24.69,0 -49.36,0 z M 179.06,362 c 16.49,0 33,-0.05 49.46,0 2.77,0 4.59,-0.39 5.52,-3.49 a 99.81,99.81 0 0 1 15.81,-30.91 c 2.08,-2.8 2.18,-4.45 -0.46,-7 q -16.32,-15.83 -32.16,-32.14 c -2.41,-2.47 -3.8,-2.46 -6.38,-0.12 -6.57,5.93 -14.1,9.89 -23.14,6.23 -3.28,-1.33 -5,-0.75 -7.24,1.56 -17.45,17.63 -35,35.14 -52.59,52.69 a 21.21,21.21 0 0 0 -2.39,2.54 c -2.15,3 -1.8,6.6 -0.83,9.59 0.69,2.16 3.89,1 5.94,1 16.15,0.05 32.31,0.05 48.46,0.05 z m -53.82,-31.81 c 15.69,-15.65 31.09,-31 46.52,-46.37 1.18,-1.17 0.91,-2.21 0.28,-3.54 -4.77,-10.06 -1.88,-19.18 4,-27.6 1.75,-2.49 1.73,-3.69 -0.37,-5.72 -6.94,-6.7 -13.82,-13.49 -20.47,-20.49 -2.73,-2.87 -3.74,-2.2 -5.53,0.91 a 32.5,32.5 0 0 1 -21,15.64 c -3.62,0.89 -4.63,2.39 -4.61,6 0.16,25.42 0.07,50.84 0.12,76.26 0.04,1.43 -0.4,2.99 1.06,4.91 z"
           transform="translate(415.56,185.46)"
           id="path868" />
        <path
           class="e069c3a9-1290-428d-a99d-a7a75a876e99"
           d="m 117,737 h -473.48 c -7.27,0 -6.5,0.82 -6.51,-6.3 q 0,-84 -0.1,-168 c 0,-4.48 1,-5.82 5.7,-5.82 q 474.43,0.17 948.87,0 c 4.86,0 5.61,1.62 5.6,5.92 q -0.2,84 0,168 c 0,5 -1.06,6.35 -6.22,6.34 Q 353.92,736.9 117,737 Z M 250.66,631.65 c -11.61,-5.88 -18.74,-5.78 -25.75,1.27 -7.47,7.51 -10,17.06 -8.6,27.44 0.83,6.07 2.84,11.76 7.46,16.3 6.65,6.56 15.95,7.53 24.47,2.27 1.95,-1.2 4.09,-3.84 5.18,1 0.32,1.45 13.19,1.75 14.18,0.42 a 4.14,4.14 0 0 0 0.54,-2.34 q 0,-33.44 0,-66.88 c 0,-2 -0.54,-3.15 -2.79,-3.1 -4.16,0.07 -8.32,0 -12.48,0 -1.81,0 -2.86,0.57 -2.8,2.56 0.27,6.88 -0.52,13.83 0.59,21.06 z M -45,658 c 0,-4.5 -0.1,-9 0,-13.5 0.09,-2.59 -0.86,-3.57 -3.47,-3.47 -4,0.16 -8,0 -12,0 -11.42,0 -9,-1 -9.54,9.64 -0.2,4 0.84,6 5.18,5.32 1.73,-0.26 4.18,-0.43 3.68,2.45 -0.47,2.71 2.16,6.55 -2.7,7.9 a 11.94,11.94 0 0 1 -13.49,-6.09 28.72,28.72 0 0 1 -0.59,-25.08 c 3.25,-7.43 10.66,-10.83 16.65,-7 5.19,3.3 7.42,0.95 10.14,-2.53 a 18.06,18.06 0 0 1 2.37,-2.57 c 2.5,-2.17 1.61,-3.45 -0.59,-5.47 -9.59,-8.83 -28.53,-7.24 -37.45,0.73 -10.85,9.7 -13.06,22.07 -11.44,35.85 2.76,23.61 25.32,33.65 45.33,24.75 5.4,-2.4 9.34,-5.57 8,-12.47 -0.53,-2.67 -0.08,-5.6 -0.08,-8.46 z m 45.32,2.1 v 0 c 4.32,0 8.66,-0.19 13,0 3.28,0.19 4.33,-1.18 4.58,-4.27 1.21,-15.64 -8.62,-31.6 -30.9,-27.83 -10.36,1.74 -17.15,8 -20.36,17.63 -3.31,9.88 -1.84,19.36 5.2,27.54 10.09,11.73 30.51,11.14 42.32,4.07 1.3,-0.78 1.61,-1.41 0.76,-2.72 -1.78,-2.75 -2.92,-6.32 -5.38,-8.07 -1.41,-1 -4.89,0.92 -7.45,1.52 a 17.66,17.66 0 0 1 -3.84,0.85 c -4.92,0 -9.6,-0.86 -13,-4.89 -1.87,-2.23 -1.39,-3.72 1.64,-3.79 4.45,-0.14 8.94,-0.04 13.43,-0.04 z m 298.27,0 c 10.06,0 19.68,-0.09 29.31,0 2.77,0 4.18,-0.57 4.57,-3.63 1,-7.6 -0.31,-14.65 -5.15,-20.61 -7.84,-9.66 -22.36,-11.39 -34.47,-4.43 -10.69,6.15 -15.47,20.94 -11,33.18 7.61,20.83 34.09,20.51 46.95,12.48 0.95,-0.6 1.56,-1.37 0.95,-2.45 -1.53,-2.75 -2.76,-5.82 -4.86,-8 -1.76,-1.84 -3.89,0.8 -5.92,1.13 -1.8,0.3 -3.57,0.78 -5.38,1 -6.8,0.83 -12.8,-2.44 -15,-8.69 z M 81.27,655.22 c 0.17,-16.12 -11.07,-28 -26.61,-28.12 -15.12,-0.12 -26.38,11.4 -27,26.7 -0.75,17.91 12.8,28.31 26.13,28.32 16.21,0.02 27.31,-10.71 27.48,-26.9 z m 126,-0.17 c 0.12,-16.08 -11.27,-28 -26.77,-27.95 -15.17,0 -26.22,11.49 -26.85,26.87 -0.71,17.42 12.54,27.89 26.29,28.24 13.89,0.36 28.38,-11.03 27.32,-27.16 z m -82.74,-43.22 c -15.2,0 -25.9,7.68 -30.86,21.4 -2.67,7.39 -2.82,14.85 -1.67,22.53 3,21.34 28.75,33.64 47.19,22.5 8,-4.84 8.09,-5.32 1.86,-12 a 8.11,8.11 0 0 1 -1.36,-1.46 c -1.67,-3 -3.23,-3.21 -6.19,-1 -7.35,5.55 -17.19,3.19 -21.06,-5.09 -3.87,-8.28 -3.89,-16.78 0.75,-24.88 3.37,-5.89 10.71,-9.13 16.18,-5.89 5.89,3.5 9.1,1.74 12.28,-3.05 a 12.06,12.06 0 0 1 2,-2.19 c 1.78,-1.63 1.59,-2.81 -0.37,-4.34 -5.72,-4.42 -11.94,-7.15 -18.76,-6.53 z"
           transform="translate(415.56,185.46)"
           id="path870" />
        <path
           class="e069c3a9-1290-428d-a99d-a7a75a876e99"
           d="M 108.28,328.22 Q 95.89,315.62 83.51,303 75.29,294.66 67.01,286.37 c -1.33,-1.32 -2.79,-2.57 -1.73,-4.7 7.14,-14.35 0.75,-25.74 -8.87,-35.5 C 42.68,232.23 26.25,223 6.32,220.6 c -4.13,-0.49 -4.33,0.83 -4.4,4 -0.35,14.46 3.46,28 9.36,40.94 3.94,8.66 8.61,16.93 16.07,23.2 6.65,5.6 13.95,9.26 22.82,5.91 2.63,-1 4,0 5.6,1.59 q 25.59,25.68 51.28,51.24 c 4,4 2.66,8.64 2.48,13.14 -0.09,2.05 -2.36,1.33 -3.72,1.34 -8.16,0.07 -16.33,0 -24.49,0 -25.5,0 -51,-0.06 -76.48,0.07 -3.17,0 -4.65,-0.86 -5.71,-3.91 -11,-31.8 -31.87,-55 -62.5,-68.87 -22.31,-10.12 -45.75,-12.2 -69.71,-7.09 -10.36,2.2 -10.63,2.49 -13.51,-7.91 -6.11,-22 -18.17,-39.72 -36.75,-53 a 76.22,76.22 0 0 0 -17.44,-9.58 c -4.06,-1.53 -3.1,-2.83 -0.74,-4.84 0.38,-0.33 0.71,-0.7 1.06,-1.06 q 81.66,-81.6 163.22,-163.34 c 3.43,-3.44 5.12,-3.38 8.5,0 q 52.47,52.9 105.32,105.38 c 2.74,2.72 3.39,4.95 2.21,8.67 -5.94,18.64 -8.4,37.7 -3.87,57 3.92,16.64 13.8,27.87 31.48,30.45 4.27,0.63 3.38,3.44 3.38,5.88 0.06,21.62 0,43.24 0,64.86 v 12.81 z"
           transform="translate(415.56,185.46)"
           id="path872" />
        <path
           class="e069c3a9-1290-428d-a99d-a7a75a876e99"
           d="m 157.16,193.3 c 0.48,-11.37 -2.13,-23.4 -5.38,-35.28 -0.74,-2.7 -0.26,-4.24 1.59,-6.09 Q 208.77,96.67 264,41.27 c 2.29,-2.29 3.6,-2.41 6,-0.05 q 82.8,83 165.76,165.82 c 2.13,2.12 2.86,3 -0.76,4.56 -29,12.16 -46.84,33.86 -55.3,64 -2.8,10 -0.48,9.29 -11.46,7 q -57.63,-12.13 -102,26.77 c -3.16,2.77 -4.76,2.63 -7.57,-0.26 C 247.86,298 236.87,287 225.79,276.19 c -2.35,-2.3 -2.44,-4 -1,-6.83 7,-14 11.48,-28.63 11.29,-44.48 0,-3.36 -0.24,-4.76 -4.6,-4.28 -14.36,1.58 -26.83,7.42 -38.33,15.64 -3.08,2.21 -4.89,2.65 -7.78,-0.43 -7.52,-8 -15.27,-15.84 -23.32,-23.32 -3.9,-3.61 -5.89,-7.33 -4.93,-12.62 0.32,-1.77 0.04,-3.65 0.04,-6.57 z"
           transform="translate(415.56,185.46)"
           id="path874" />
        <path
           class="e069c3a9-1290-428d-a99d-a7a75a876e99"
           d="M 415.51,362 H 254.6 c -6,0 -6,0 -3.83,-5.5 14.14,-35.6 50,-60.38 88.06,-61.75 15.28,-0.55 29.61,2.7 43.86,7.32 6.16,2 6.65,1.64 7.38,-4.87 2.11,-18.89 7.76,-36.36 20.74,-50.8 q 21.07,-23.46 52.54,-26.39 c 21.57,-2 40.7,4.14 57.38,17.89 a 75.36,75.36 0 0 1 24.17,34.74 c 1.87,5.64 4.77,8.19 10.8,8.58 6.26,0.41 12.32,2.5 18.29,4.65 a 5.11,5.11 0 0 1 3.79,4.65 c 1.08,10.57 2.35,21.13 3.09,31.72 0.8,11.44 1.17,22.9 1.26,34.39 0,4.57 -1.44,5.47 -5.7,5.46 Q 496,361.88 415.51,362 Z"
           transform="translate(415.56,185.46)"
           id="path876" />
        <path
           class="e069c3a9-1290-428d-a99d-a7a75a876e99"
           d="m -182.17,362 h -159.46 c -6.36,0 -6.28,0 -6.38,-6.58 -0.33,-21.5 1.62,-42.84 4.12,-64.15 0.35,-3 1.57,-4.63 4.56,-5.7 a 100.39,100.39 0 0 1 21.24,-5.17 c 3.5,-0.45 4.6,-2.23 5.6,-5.15 5.62,-16.3 14.95,-30 29,-40.27 14.85,-10.87 31.41,-15.4 49.87,-15.24 36.23,0.32 70.57,29.61 75.73,69.31 0.47,3.62 1.55,7.18 1.81,10.8 0.26,3.62 1.9,3.62 4.63,2.9 8.34,-2.22 16.4,-5.51 25,-6.8 27.94,-4.18 53.5,1.57 76.34,18.45 14.94,11 25.71,25.35 33,42.38 2.13,5 2,5.21 -3.52,5.21 z"
           transform="translate(415.56,185.46)"
           id="path878" />
        <path
           class="e069c3a9-1290-428d-a99d-a7a75a876e99"
           d="m 116.94,512 h 430.91 c 6.94,0 7,0 4.45,6.31 -2.78,6.94 -5.69,13.83 -8.4,20.79 -0.85,2.18 -2.06,3.25 -4.44,2.92 a 21.29,21.29 0 0 0 -3,0 q -419.41,0 -838.82,0.12 c -5,0 -7.37,-1.44 -8.9,-6.12 -2,-6.15 -4.91,-12 -7.18,-18 -2.22,-5.89 -2.08,-5.94 4,-6 h 431.4 z"
           transform="translate(415.56,185.46)"
           id="path880" />
        <path
           class="e069c3a9-1290-428d-a99d-a7a75a876e99"
           d="m -124.12,752.19 h 480.24 c -73.39,45.54 -153.68,67.24 -239.58,67.38 -85.9,0.14 -165.82,-22.63 -240.66,-67.38 z"
           transform="translate(415.56,185.46)"
           id="path882" />
        <path
           class="e069c3a9-1290-428d-a99d-a7a75a876e99"
           d="m 179.06,362 c -16.15,0 -32.31,0 -48.46,-0.05 -2,0 -5.25,1.18 -5.94,-1 -1,-3 -1.32,-6.59 0.83,-9.59 a 21.21,21.21 0 0 1 2.39,-2.54 c 17.55,-17.55 35.14,-35.06 52.59,-52.69 2.29,-2.31 4,-2.89 7.24,-1.56 9,3.66 16.57,-0.3 23.14,-6.23 2.58,-2.34 4,-2.35 6.38,0.12 q 15.89,16.27 32.16,32.14 c 2.64,2.57 2.54,4.22 0.46,7 A 99.81,99.81 0 0 0 234,358.55 c -0.93,3.1 -2.75,3.51 -5.52,3.49 C 212,362 195.55,362 179.06,362 Z"
           transform="translate(415.56,185.46)"
           id="path884" />
        <path
           class="e069c3a9-1290-428d-a99d-a7a75a876e99"
           d="m 125.24,330.19 c -1.46,-1.92 -1,-3.48 -1,-4.89 0,-25.42 0,-50.84 -0.12,-76.26 0,-3.63 1,-5.13 4.61,-6 a 32.5,32.5 0 0 0 21,-15.64 c 1.79,-3.11 2.8,-3.78 5.53,-0.91 6.65,7 13.53,13.79 20.47,20.49 2.1,2 2.12,3.23 0.37,5.72 -5.9,8.42 -8.79,17.54 -4,27.6 0.63,1.33 0.9,2.37 -0.28,3.54 -15.49,15.33 -30.89,30.7 -46.58,46.35 z"
           transform="translate(415.56,185.46)"
           id="path886" />
        <path
           class="a7e91070-bc4e-4d7e-a1a4-375ce9b112ea"
           d="m 250.66,631.65 c -1.11,-7.23 -0.32,-14.18 -0.55,-21.1 -0.06,-2 1,-2.58 2.8,-2.56 4.16,0 8.32,0.07 12.48,0 2.25,0 2.79,1.11 2.79,3.1 q 0,33.43 0,66.88 a 4.14,4.14 0 0 1 -0.54,2.34 c -1,1.33 -13.86,1 -14.18,-0.42 -1.09,-4.8 -3.23,-2.16 -5.18,-1 -8.52,5.26 -17.82,4.29 -24.47,-2.27 -4.62,-4.54 -6.63,-10.23 -7.46,-16.3 -1.4,-10.38 1.13,-19.93 8.6,-27.44 6.97,-7.01 14.1,-7.11 25.71,-1.23 z m -0.56,22.75 c 0,-2.17 -0.16,-4.34 0,-6.49 0.25,-2.52 -0.74,-3.92 -3,-4.94 -5,-2.23 -11,0.46 -11.86,6 -0.62,4 -0.88,8.27 0.36,12.34 1.52,5 4,6.48 9.37,5.73 4.49,-0.61 5.37,-3.76 5.13,-7.65 -0.1,-1.66 0,-3.33 0,-4.99 z"
           transform="translate(415.56,185.46)"
           id="path888" />
        <path
           class="a7e91070-bc4e-4d7e-a1a4-375ce9b112ea"
           d="m -45,658 c 0,2.83 -0.45,5.76 0.09,8.48 1.38,6.9 -2.56,10.07 -8,12.47 -20,8.9 -42.57,-1.14 -45.33,-24.75 -1.62,-13.78 0.59,-26.15 11.44,-35.85 8.92,-8 27.86,-9.56 37.45,-0.73 2.2,2 3.09,3.3 0.59,5.47 a 18.06,18.06 0 0 0 -2.37,2.57 c -2.72,3.48 -4.95,5.83 -10.14,2.53 -6,-3.81 -13.4,-0.41 -16.65,7 a 28.72,28.72 0 0 0 0.59,25.08 11.94,11.94 0 0 0 13.49,6.09 c 4.86,-1.35 2.23,-5.19 2.7,-7.9 0.5,-2.88 -1.95,-2.71 -3.68,-2.45 -4.34,0.63 -5.38,-1.34 -5.18,-5.32 0.53,-10.59 -1.88,-9.59 9.54,-9.64 4,0 8,0.12 12,0 2.61,-0.1 3.56,0.88 3.47,3.47 C -45.1,649 -45,653.53 -45,658 Z"
           transform="translate(415.56,185.46)"
           id="path890" />
        <path
           class="a7e91070-bc4e-4d7e-a1a4-375ce9b112ea"
           d="m 0.32,660.1 c -4.49,0 -9,-0.07 -13.47,0 -3,0.07 -3.51,1.56 -1.64,3.79 3.4,4 8.08,4.91 13,4.89 A 17.66,17.66 0 0 0 2.05,668 c 2.56,-0.6 6,-2.52 7.45,-1.52 2.46,1.75 3.6,5.32 5.38,8.07 0.85,1.31 0.54,1.94 -0.76,2.72 -11.81,7.07 -32.23,7.66 -42.32,-4.07 -7,-8.18 -8.51,-17.66 -5.2,-27.54 3.21,-9.66 10,-15.93 20.4,-17.66 22.32,-3.76 32.15,12.2 30.91,27.86 -0.25,3.09 -1.3,4.46 -4.58,4.27 -4.31,-0.24 -8.65,0 -13,0 z m -7.86,-11.92 c 1.83,0 3.66,0.05 5.48,0 1.11,0 2.49,0.25 2.93,-1.23 0.4,-1.32 -0.63,-2.12 -1.4,-3 -3.39,-3.73 -10,-4 -13.35,-0.53 -1,1.06 -2.26,2.37 -1.69,3.87 0.57,1.5 2.31,0.75 3.55,0.84 1.49,0.12 3.02,0.04 4.48,0.05 z"
           transform="translate(415.56,185.46)"
           id="path892" />
        <path
           class="a7e91070-bc4e-4d7e-a1a4-375ce9b112ea"
           d="m 298.59,660.08 c 2.2,6.25 8.2,9.52 15,8.67 1.81,-0.22 3.58,-0.7 5.38,-1 2,-0.33 4.16,-3 5.92,-1.13 2.1,2.23 3.33,5.3 4.86,8 0.61,1.08 0,1.85 -0.95,2.45 -12.86,8 -39.34,8.35 -46.95,-12.48 -4.47,-12.24 0.31,-27 11,-33.18 12.11,-7 26.63,-5.23 34.47,4.43 4.84,6 6.11,13 5.15,20.61 -0.39,3.06 -1.8,3.67 -4.57,3.63 -9.63,-0.08 -19.25,0 -29.31,0 z m 10.5,-11.62 a 25.07,25.07 0 0 0 3.42,-0.19 c 1.19,-0.18 2.91,0.46 3.41,-1.23 0.5,-1.69 -0.59,-3.13 -1.91,-4.25 -2.95,-2.49 -8.9,-2.53 -12,0 -1.39,1.14 -3.2,2.62 -2.65,4.41 0.55,1.79 2.87,0.9 4.4,1.19 a 37.59,37.59 0 0 0 5.33,0.07 z"
           transform="translate(415.56,185.46)"
           id="path894" />
        <path
           class="a7e91070-bc4e-4d7e-a1a4-375ce9b112ea"
           d="m 81.27,655.22 c -0.17,16.19 -11.3,26.92 -27.5,26.9 -13.33,0 -26.88,-10.41 -26.13,-28.32 0.64,-15.3 11.9,-26.82 27,-26.7 15.56,0.13 26.8,12 26.63,28.12 z M 63,655 a 17.86,17.86 0 0 0 -1.65,-9.27 C 60,643 57.66,642 54.81,641.92 c -2.85,-0.08 -5.53,0.56 -6.78,3.29 C 45.18,651.39 44.72,657.8 48,664 a 7.41,7.41 0 0 0 13,0.14 14.24,14.24 0 0 0 2,-9.14 z"
           transform="translate(415.56,185.46)"
           id="path896" />
        <path
           class="a7e91070-bc4e-4d7e-a1a4-375ce9b112ea"
           d="m 207.26,655.05 c 1.06,16.13 -13.43,27.52 -27.33,27.16 -13.75,-0.35 -27,-10.82 -26.29,-28.24 0.63,-15.38 11.68,-26.86 26.85,-26.87 15.51,-0.01 26.89,11.9 26.77,27.95 z M 189,654.65 a 21.46,21.46 0 0 0 -0.91,-6.92 c -1.15,-3.92 -3.6,-5.84 -7.63,-5.82 -4.03,0.02 -6.44,2 -7.58,5.9 A 25.75,25.75 0 0 0 172,655.2 c 0,8 3,12.48 8.29,12.62 5.55,0.18 8.71,-4.45 8.71,-13.17 z"
           transform="translate(415.56,185.46)"
           id="path898" />
        <path
           class="a7e91070-bc4e-4d7e-a1a4-375ce9b112ea"
           d="m 124.52,611.83 c 6.82,-0.62 13,2.11 18.75,6.57 2,1.53 2.15,2.71 0.37,4.34 a 12.06,12.06 0 0 0 -2,2.19 c -3.18,4.79 -6.39,6.55 -12.28,3.05 -5.47,-3.24 -12.81,0 -16.18,5.89 -4.64,8.1 -4.6,16.63 -0.75,24.88 3.85,8.25 13.71,10.64 21.06,5.09 3,-2.23 4.52,-2.05 6.19,1 a 8.11,8.11 0 0 0 1.36,1.46 c 6.23,6.66 6.15,7.14 -1.86,12 C 120.7,689.4 95,677.1 92,655.76 c -1.1,-7.68 -1,-15.14 1.71,-22.53 4.91,-13.72 15.61,-21.36 30.81,-21.4 z"
           transform="translate(415.56,185.46)"
           id="path900" />
        <path
           class="e069c3a9-1290-428d-a99d-a7a75a876e99"
           d="m 250.1,654.4 c 0,1.66 -0.08,3.33 0,5 0.24,3.89 -0.64,7 -5.13,7.65 -5.41,0.75 -7.85,-0.77 -9.37,-5.73 -1.24,-4.07 -1,-8.31 -0.36,-12.34 0.86,-5.54 6.89,-8.23 11.86,-6 2.28,1 3.27,2.42 3,4.94 -0.16,2.14 0,4.31 0,6.48 z"
           transform="translate(415.56,185.46)"
           id="path902" />
        <path
           class="e069c3a9-1290-428d-a99d-a7a75a876e99"
           d="m -7.54,648.18 c -1.49,0 -3,0.07 -4.48,0 -1.24,-0.09 -3,0.67 -3.55,-0.84 -0.55,-1.51 0.66,-2.81 1.69,-3.87 3.38,-3.49 10,-3.2 13.35,0.53 0.77,0.85 1.8,1.65 1.4,3 -0.44,1.48 -1.82,1.19 -2.93,1.23 -1.82,0 -3.65,-0.05 -5.48,-0.05 z"
           transform="translate(415.56,185.46)"
           id="path904" />
        <path
           class="e069c3a9-1290-428d-a99d-a7a75a876e99"
           d="m 309.09,648.46 a 37.59,37.59 0 0 1 -5.33,0 c -1.53,-0.29 -3.87,0.54 -4.4,-1.19 -0.53,-1.73 1.26,-3.27 2.65,-4.41 3.1,-2.56 9.05,-2.52 12,0 1.32,1.12 2.44,2.44 1.91,4.25 -0.53,1.81 -2.22,1.05 -3.41,1.23 a 25.07,25.07 0 0 1 -3.42,0.12 z"
           transform="translate(415.56,185.46)"
           id="path906" />
        <path
           class="e069c3a9-1290-428d-a99d-a7a75a876e99"
           d="M 63,655 A 14.24,14.24 0 0 1 61,664.09 7.41,7.41 0 0 1 48,664 c -3.26,-6.15 -2.8,-12.56 0.05,-18.74 1.25,-2.73 4,-3.37 6.78,-3.29 2.78,0.08 5.17,1.03 6.47,3.77 A 17.86,17.86 0 0 1 63,655 Z"
           transform="translate(415.56,185.46)"
           id="path908" />
        <path
           class="e069c3a9-1290-428d-a99d-a7a75a876e99"
           d="m 189,654.65 c 0,8.72 -3.16,13.31 -8.71,13.17 -5.33,-0.14 -8.26,-4.61 -8.29,-12.62 a 25.75,25.75 0 0 1 0.88,-7.39 c 1.14,-3.9 3.53,-5.89 7.58,-5.9 4.05,-0.01 6.48,1.9 7.63,5.82 a 21.46,21.46 0 0 1 0.91,6.92 z"
           transform="translate(415.56,185.46)"
           id="path910" />
      </g>
      <g
         id="a9458f6d-ffa8-4c8d-91cc-8bfff8f31e98"
         data-name="Layer 2">
        <path
           class="ec5503ae-b2fc-4350-8cf0-207ea5f2789d"
           d="M 509.44,593 H 545 v 35.6 h -35.6 z"
           transform="translate(415.56,185.46)"
           id="path913" />
        <path
           class="ec5503ae-b2fc-4350-8cf0-207ea5f2789d"
           d="m 442,593 h 35.6 v 35.6 H 442 Z"
           transform="translate(415.56,185.46)"
           id="path915" />
        <path
           class="ec5503ae-b2fc-4350-8cf0-207ea5f2789d"
           d="m 442,659.78 h 35.6 v 35.6 H 442 Z"
           transform="translate(415.56,185.46)"
           id="path917" />
        <path
           class="e6e955ec-e082-4119-afd9-8e160ee00eeb"
           d="m 455.1,572 h -34 v 34 h 9.32 v -24.65 h 24.68 z"
           transform="translate(415.56,185.46)"
           id="path919" />
        <path
           class="e6e955ec-e082-4119-afd9-8e160ee00eeb"
           d="m 455.1,717 h -34 v -34 h 9.32 v 24.73 h 24.68 z"
           transform="translate(415.56,185.46)"
           id="path921" />
        <path
           class="e6e955ec-e082-4119-afd9-8e160ee00eeb"
           d="m 532,572 h 34 v 34 h -9.31 V 581.35 H 532 Z"
           transform="translate(415.56,185.46)"
           id="path923" />
        <path
           class="e6e955ec-e082-4119-afd9-8e160ee00eeb"
           d="m 532,717 h 34 v -34 h -9.31 v 24.73 H 532 Z"
           transform="translate(415.56,185.46)"
           id="path925" />
        <path
           class="ffafc15d-45ce-401a-977b-63c6adf03024"
           d="M 521.08,604.63 H 533.4 V 617 h -12.32 z"
           transform="translate(415.56,185.46)"
           id="path927" />
        <path
           class="ffafc15d-45ce-401a-977b-63c6adf03024"
           d="M 453.66,604.63 H 466 V 617 h -12.34 z"
           transform="translate(415.56,185.46)"
           id="path929" />
        <path
           class="ffafc15d-45ce-401a-977b-63c6adf03024"
           d="M 453.66,671.42 H 466 v 12.32 h -12.34 z"
           transform="translate(415.56,185.46)"
           id="path931" />
        <path
           class="ec5503ae-b2fc-4350-8cf0-207ea5f2789d"
           d="m 488.87,593 h 9.31 v 10.77 h -9.31 z"
           transform="translate(415.56,185.46)"
           id="path933" />
        <path
           class="ec5503ae-b2fc-4350-8cf0-207ea5f2789d"
           d="M 509.83,639.84 H 545 v 9.32 h -35.17 z"
           transform="translate(415.56,185.46)"
           id="path935" />
        <path
           class="ec5503ae-b2fc-4350-8cf0-207ea5f2789d"
           d="m 442.22,639.84 h 14.24 v 9.32 h -14.24 z"
           transform="translate(415.56,185.46)"
           id="path937" />
        <path
           class="ec5503ae-b2fc-4350-8cf0-207ea5f2789d"
           d="m 509.83,658.47 v 17 h 9.32 v -7.66 h 16.57 v 18.66 h -37.54 v -71 h -9.31 v 80.35 H 545 v -37.35 z"
           transform="translate(415.56,185.46)"
           id="path939" />
        <path
           class="ec5503ae-b2fc-4350-8cf0-207ea5f2789d"
           d="m 468.11,639.84 h 9.31 v 9.32 h -9.31 z"
           transform="translate(415.56,185.46)"
           id="path941" />
        <path
           class="bea5a0fc-33fd-4abe-9c27-42190133ddc3"
           d="m 421.06,608.11 h 9.32 a 2,2 0 0 0 2,-2 v -22.72 h 22.72 a 2,2 0 0 0 2,-2 V 572 a 2,2 0 0 0 -2,-2 h -34 a 2,2 0 0 0 -2,2 v 34 a 2,2 0 0 0 1.96,2.11 z m 2,-34 h 30 v 5.24 h -22.68 a 2,2 0 0 0 -2,2 V 604 h -5.28 z"
           transform="translate(415.56,185.46)"
           id="path943" />
        <path
           class="bea5a0fc-33fd-4abe-9c27-42190133ddc3"
           d="m 455.1,705.61 h -22.69 v -22.68 a 2,2 0 0 0 -2,-2 h -9.32 a 2,2 0 0 0 -2,2 v 34 a 2,2 0 0 0 2,2 h 34 a 2,2 0 0 0 2,-2 v -9.31 a 2,2 0 0 0 -2,-2 z m -2,9.32 h -30 V 685 h 5.24 v 22.69 a 2,2 0 0 0 2,2 h 22.69 z"
           transform="translate(415.56,185.46)"
           id="path945" />
        <path
           class="bea5a0fc-33fd-4abe-9c27-42190133ddc3"
           d="m 566,570 h -34 a 2,2 0 0 0 -2,2 v 9.31 a 2,2 0 0 0 2,2 h 22.69 v 22.68 a 2,2 0 0 0 2,2 H 566 a 2,2 0 0 0 2,-2 V 572 a 2,2 0 0 0 -2,-2 z m -2,34 h -5.24 v -22.65 a 2,2 0 0 0 -2,-2 H 534 v -5.24 h 30 z"
           transform="translate(415.56,185.46)"
           id="path947" />
        <path
           class="bea5a0fc-33fd-4abe-9c27-42190133ddc3"
           d="m 566,680.89 h -9.31 a 2,2 0 0 0 -2,2 v 22.68 H 532 a 2,2 0 0 0 -2,2 v 0 9.43 a 2,2 0 0 0 2,2 h 26.33 a 2.035,2.035 0 1 0 0,-4.07 H 534 v -5.24 h 22.69 a 2,2 0 0 0 2,-2 V 685 H 564 v 23.71 a 2.04,2.04 0 0 0 4.08,0 V 682.93 A 2,2 0 0 0 566,680.89 Z"
           transform="translate(415.56,185.46)"
           id="path949" />
        <path
           class="bea5a0fc-33fd-4abe-9c27-42190133ddc3"
           d="M 509.44,630.63 H 545 a 2,2 0 0 0 2,-2 V 593 a 2,2 0 0 0 -2,-2 h -35.6 a 2,2 0 0 0 -2,2 v 0 35.6 a 2,2 0 0 0 2,2 z m 2,-35.6 H 543 v 31.52 h -31.53 z"
           transform="translate(415.56,185.46)"
           id="path951" />
        <path
           class="bea5a0fc-33fd-4abe-9c27-42190133ddc3"
           d="m 533.4,602.59 h -12.32 a 2,2 0 0 0 -2,2 v 0 12.41 a 2,2 0 0 0 2,2 h 12.32 a 2,2 0 0 0 2,-2 v -12.37 a 2,2 0 0 0 -2,-2.04 z m -2,12.32 h -8.25 v -8.24 h 8.25 z"
           transform="translate(415.56,185.46)"
           id="path953" />
        <path
           class="bea5a0fc-33fd-4abe-9c27-42190133ddc3"
           d="M 453.66,619 H 466 a 2,2 0 0 0 2,-2 v 0 -12.37 a 2,2 0 0 0 -2,-2 h -12.34 a 2,2 0 0 0 -2,2 V 617 a 2,2 0 0 0 2,2 z m 2,-12.32 h 8.24 v 8.24 h -8.2 z"
           transform="translate(415.56,185.46)"
           id="path955" />
        <path
           class="bea5a0fc-33fd-4abe-9c27-42190133ddc3"
           d="M 453.66,685.77 H 466 a 2,2 0 0 0 2,-2 v 0 -12.35 a 2,2 0 0 0 -2,-2 h -12.34 a 2,2 0 0 0 -2,2 v 12.32 a 2,2 0 0 0 2,2.03 z m 2,-12.32 h 8.24 v 8.25 h -8.2 z"
           transform="translate(415.56,185.46)"
           id="path957" />
        <path
           class="bea5a0fc-33fd-4abe-9c27-42190133ddc3"
           d="M 477.62,591 H 442 a 2,2 0 0 0 -2,2 v 35.6 a 2,2 0 0 0 2,2 h 35.6 a 2,2 0 0 0 2,-2 v 0 -35.6 a 2,2 0 0 0 -2,-2 z m -2,35.6 H 444.05 V 595 h 31.53 z"
           transform="translate(415.56,185.46)"
           id="path959" />
        <path
           class="bea5a0fc-33fd-4abe-9c27-42190133ddc3"
           d="M 477.62,657.74 H 442 a 2,2 0 0 0 -2,2 v 35.6 a 2,2 0 0 0 2,2 h 35.6 a 2,2 0 0 0 2,-2 v 0 -35.6 a 2,2 0 0 0 -2,-2 z m -2,35.6 h -31.57 v -31.53 h 31.53 z"
           transform="translate(415.56,185.46)"
           id="path961" />
        <path
           class="bea5a0fc-33fd-4abe-9c27-42190133ddc3"
           d="m 488.87,605.79 h 9.31 a 2,2 0 0 0 2,-2 V 593 a 2,2 0 0 0 -2,-2 h -9.31 a 2,2 0 0 0 -2,2 v 10.77 a 2,2 0 0 0 2,2.02 z m 2,-10.76 h 5.24 v 6.69 h -5.24 z"
           transform="translate(415.56,185.46)"
           id="path963" />
        <path
           class="bea5a0fc-33fd-4abe-9c27-42190133ddc3"
           d="m 545,637.81 h -35.17 a 2,2 0 0 0 -2,2 v 9.32 a 2,2 0 0 0 2,2 H 545 a 2,2 0 0 0 2,-2 v -9.32 a 2,2 0 0 0 -2,-2 z m -2,9.31 h -31.13 v -5.24 H 543 Z"
           transform="translate(415.56,185.46)"
           id="path965" />
        <path
           class="bea5a0fc-33fd-4abe-9c27-42190133ddc3"
           d="m 442.22,651.19 h 14.24 a 2,2 0 0 0 2,-2 v -9.32 a 2,2 0 0 0 -2,-2 h -14.24 a 2,2 0 0 0 -2,2 v 9.32 a 2,2 0 0 0 2,2 z m 2,-9.31 h 10.17 v 5.24 h -10.14 z"
           transform="translate(415.56,185.46)"
           id="path967" />
        <path
           class="bea5a0fc-33fd-4abe-9c27-42190133ddc3"
           d="m 547.07,695.76 v -37.29 a 2,2 0 0 0 -2,-2 h -35.24 a 2,2 0 0 0 -2,2 v 17 a 2,2 0 0 0 2,2 h 9.32 a 2,2 0 0 0 2,-2 v -5.62 h 12.51 v 14.59 h -33.44 v -69 a 2,2 0 0 0 -2,-2 h -9.31 a 2,2 0 0 0 -2,2 v 25.74 a 2.04,2.04 0 0 0 4.08,0 v -23.74 h 5.24 v 69 a 2,2 0 0 0 2,2 h 37.54 a 2,2 0 0 0 2,-2 v -18.66 a 2,2 0 0 0 -2,-2 h -16.62 a 2,2 0 0 0 -2,2 v 5.63 h -5.24 v -12.9 H 543 v 33.21 h -52.09 v -14.27 a 2.04,2.04 0 1 0 -4.08,0 v 16.31 a 2,2 0 0 0 2,2 H 545 a 2,2 0 0 0 2.07,-2 z"
           transform="translate(415.56,185.46)"
           id="path969" />
        <path
           class="bea5a0fc-33fd-4abe-9c27-42190133ddc3"
           d="m 488.87,665.48 a 2,2 0 0 0 2,-2 v -6.28 a 2.04,2.04 0 0 0 -4.08,0 v 6.28 a 2,2 0 0 0 2.08,2 z"
           transform="translate(415.56,185.46)"
           id="path971" />
        <path
           class="bea5a0fc-33fd-4abe-9c27-42190133ddc3"
           d="m 477.42,651.19 a 2,2 0 0 0 2,-2 v -9.32 a 2,2 0 0 0 -2,-2 h -9.31 a 2,2 0 0 0 -2,2 v 0 9.32 a 2,2 0 0 0 2,2 z m -7.28,-9.31 h 5.24 v 5.24 h -5.24 z"
           transform="translate(415.56,185.46)"
           id="path973" />
        <path
           class="ec5503ae-b2fc-4350-8cf0-207ea5f2789d"
           d="m -244.28,592.64 h 35.6 v 35.6 h -35.6 z"
           transform="translate(415.56,185.46)"
           id="path975" />
        <path
           class="ec5503ae-b2fc-4350-8cf0-207ea5f2789d"
           d="m -311.7,592.64 h 35.6 v 35.6 h -35.6 z"
           transform="translate(415.56,185.46)"
           id="path977" />
        <path
           class="ec5503ae-b2fc-4350-8cf0-207ea5f2789d"
           d="m -311.7,659.43 h 35.6 V 695 h -35.6 z"
           transform="translate(415.56,185.46)"
           id="path979" />
        <path
           class="e6e955ec-e082-4119-afd9-8e160ee00eeb"
           d="m -298.61,571.69 h -34 v 34 h 9.31 V 581 h 24.73 z"
           transform="translate(415.56,185.46)"
           id="path981" />
        <path
           class="e6e955ec-e082-4119-afd9-8e160ee00eeb"
           d="m -298.61,716.61 h -34 v -34 h 9.31 v 24.69 h 24.73 z"
           transform="translate(415.56,185.46)"
           id="path983" />
        <path
           class="e6e955ec-e082-4119-afd9-8e160ee00eeb"
           d="m -221.76,571.69 h 34 v 34 H -197 V 581 h -24.72 z"
           transform="translate(415.56,185.46)"
           id="path985" />
        <path
           class="e6e955ec-e082-4119-afd9-8e160ee00eeb"
           d="m -221.76,716.61 h 34 v -34 H -197 v 24.69 h -24.72 z"
           transform="translate(415.56,185.46)"
           id="path987" />
        <path
           class="ffafc15d-45ce-401a-977b-63c6adf03024"
           d="m -232.64,604.28 h 12.32 v 12.32 h -12.32 z"
           transform="translate(415.56,185.46)"
           id="path989" />
        <path
           class="ffafc15d-45ce-401a-977b-63c6adf03024"
           d="m -300.06,604.28 h 12.32 v 12.32 h -12.32 z"
           transform="translate(415.56,185.46)"
           id="path991" />
        <path
           class="ffafc15d-45ce-401a-977b-63c6adf03024"
           d="m -300.06,671.07 h 12.32 v 12.32 h -12.32 z"
           transform="translate(415.56,185.46)"
           id="path993" />
        <path
           class="ec5503ae-b2fc-4350-8cf0-207ea5f2789d"
           d="m -264.84,592.64 h 9.31 v 10.77 h -9.31 z"
           transform="translate(415.56,185.46)"
           id="path995" />
        <path
           class="ec5503ae-b2fc-4350-8cf0-207ea5f2789d"
           d="m -243.88,639.49 h 35.2 v 9.32 h -35.2 z"
           transform="translate(415.56,185.46)"
           id="path997" />
        <path
           class="ec5503ae-b2fc-4350-8cf0-207ea5f2789d"
           d="m -311.5,639.49 h 14.24 v 9.32 h -14.24 z"
           transform="translate(415.56,185.46)"
           id="path999" />
        <path
           class="ec5503ae-b2fc-4350-8cf0-207ea5f2789d"
           d="m -243.88,658.12 v 17 h 9.31 v -7.66 H -218 v 18.66 h -37.54 v -71 h -9.31 v 80.35 h 56.16 v -37.35 z"
           transform="translate(415.56,185.46)"
           id="path1001" />
        <path
           class="ec5503ae-b2fc-4350-8cf0-207ea5f2789d"
           d="m -285.61,639.49 h 9.32 v 9.32 h -9.32 z"
           transform="translate(415.56,185.46)"
           id="path1003" />
        <path
           class="bea5a0fc-33fd-4abe-9c27-42190133ddc3"
           d="m -332.65,607.76 h 9.31 a 2,2 0 0 0 2,-2 V 583 h 22.69 a 2,2 0 0 0 2,-2 v -9.31 a 2,2 0 0 0 -2,-2 h -34 a 2,2 0 0 0 -2,2 v 34 a 2,2 0 0 0 2,2.07 z m 2,-34 h 30 V 579 h -22.69 a 2,2 0 0 0 -2,2 v 22.69 h -5.23 z"
           transform="translate(415.56,185.46)"
           id="path1005" />
        <path
           class="bea5a0fc-33fd-4abe-9c27-42190133ddc3"
           d="m -298.61,705.26 h -22.69 v -22.68 a 2,2 0 0 0 -2,-2 h -9.31 a 2,2 0 0 0 -2,2 v 34 a 2,2 0 0 0 2,2 h 34 a 2,2 0 0 0 2,-2 v -9.28 a 2,2 0 0 0 -2,-2 z m -2,9.32 h -30 v -30 h 5.23 v 22.72 a 2,2 0 0 0 2,2 h 22.69 z"
           transform="translate(415.56,185.46)"
           id="path1007" />
        <path
           class="bea5a0fc-33fd-4abe-9c27-42190133ddc3"
           d="m -187.72,569.65 h -34 a 2,2 0 0 0 -2,2 V 581 a 2,2 0 0 0 2,2 h 22.69 v 22.68 a 2,2 0 0 0 2,2 h 9.32 a 2,2 0 0 0 2,-2 v -34 a 2,2 0 0 0 -2.01,-2.03 z m -2,34 H -195 V 581 a 2,2 0 0 0 -2,-2 h -22.69 v -5.24 h 30 z"
           transform="translate(415.56,185.46)"
           id="path1009" />
        <path
           class="bea5a0fc-33fd-4abe-9c27-42190133ddc3"
           d="M -187.72,680.54 H -197 a 2,2 0 0 0 -2,2 v 22.68 h -22.69 a 2,2 0 0 0 -2,2 v 0 9.31 a 2,2 0 0 0 2,2 h 26.32 a 2,2 0 0 0 2,-2 2,2 0 0 0 -2,-2 h -24.29 v -5.24 H -197 a 2,2 0 0 0 2,-2 v -22.68 h 5.24 v 23.71 a 2,2 0 0 0 2,2 2,2 0 0 0 2,-2 v -25.74 a 2,2 0 0 0 -1.96,-2.04 z"
           transform="translate(415.56,185.46)"
           id="path1011" />
        <path
           class="bea5a0fc-33fd-4abe-9c27-42190133ddc3"
           d="m -244.28,630.28 h 35.6 a 2,2 0 0 0 2,-2 v -35.6 a 2,2 0 0 0 -2,-2 h -35.6 a 2,2 0 0 0 -2,2 v 0 35.6 a 2,2 0 0 0 2,2 z m 2,-35.6 h 31.53 v 31.52 h -31.53 z"
           transform="translate(415.56,185.46)"
           id="path1013" />
        <path
           class="bea5a0fc-33fd-4abe-9c27-42190133ddc3"
           d="m -220.32,602.24 h -12.32 a 2,2 0 0 0 -2,2 v 0 12.36 a 2,2 0 0 0 2,2 h 12.32 a 2,2 0 0 0 2,-2 v -12.32 a 2,2 0 0 0 -2,-2.04 z m -2,12.32 h -8.24 v -8.24 h 8.24 z"
           transform="translate(415.56,185.46)"
           id="path1015" />
        <path
           class="bea5a0fc-33fd-4abe-9c27-42190133ddc3"
           d="m -300.06,618.64 h 12.32 a 2,2 0 0 0 2,-2 v 0 -12.36 a 2,2 0 0 0 -2,-2 h -12.32 a 2,2 0 0 0 -2,2 v 12.32 a 2,2 0 0 0 2,2.04 z m 2,-12.32 h 8.25 v 8.24 H -298 Z"
           transform="translate(415.56,185.46)"
           id="path1017" />
        <path
           class="bea5a0fc-33fd-4abe-9c27-42190133ddc3"
           d="m -300.06,685.42 h 12.32 a 2,2 0 0 0 2,-2 v 0 -12.35 a 2,2 0 0 0 -2,-2 h -12.32 a 2,2 0 0 0 -2,2 v 12.32 a 2,2 0 0 0 2,2.03 z m 2,-12.32 h 8.25 v 8.25 H -298 Z"
           transform="translate(415.56,185.46)"
           id="path1019" />
        <path
           class="bea5a0fc-33fd-4abe-9c27-42190133ddc3"
           d="m -276.1,590.6 h -35.6 a 2,2 0 0 0 -2,2 v 35.6 a 2,2 0 0 0 2,2 h 35.6 a 2,2 0 0 0 2,-2 v 0 -35.6 a 2,2 0 0 0 -2,-2 z m -2,35.6 h -31.53 v -31.52 h 31.53 z"
           transform="translate(415.56,185.46)"
           id="path1021" />
        <path
           class="bea5a0fc-33fd-4abe-9c27-42190133ddc3"
           d="m -276.1,657.39 h -35.6 a 2,2 0 0 0 -2,2 V 695 a 2,2 0 0 0 2,2 h 35.6 a 2,2 0 0 0 2,-2 v 0 -35.6 a 2,2 0 0 0 -2,-2 z m -2,35.6 h -31.53 v -31.53 h 31.53 z"
           transform="translate(415.56,185.46)"
           id="path1023" />
        <path
           class="bea5a0fc-33fd-4abe-9c27-42190133ddc3"
           d="m -264.84,605.45 h 9.31 a 2,2 0 0 0 2,-2 v -10.81 a 2,2 0 0 0 -2,-2 h -9.31 a 2,2 0 0 0 -2,2 v 10.77 a 2,2 0 0 0 2,2.04 z m 2,-10.77 h 5.24 v 6.69 h -5.24 z"
           transform="translate(415.56,185.46)"
           id="path1025" />
        <path
           class="bea5a0fc-33fd-4abe-9c27-42190133ddc3"
           d="m -208.68,637.46 h -35.2 a 2,2 0 0 0 -2,2 v 9.32 a 2,2 0 0 0 2,2 h 35.2 a 2,2 0 0 0 2,-2 v -9.32 a 2,2 0 0 0 -2,-2 z m -2,9.31 h -31.13 v -5.24 h 31.13 z"
           transform="translate(415.56,185.46)"
           id="path1027" />
        <path
           class="bea5a0fc-33fd-4abe-9c27-42190133ddc3"
           d="m -311.5,650.84 h 14.24 a 2,2 0 0 0 2,-2 v -9.32 a 2,2 0 0 0 -2,-2 h -14.24 a 2,2 0 0 0 -2,2 v 9.32 a 2,2 0 0 0 2,2 z m 2,-9.31 h 10.17 v 5.24 h -10.17 z"
           transform="translate(415.56,185.46)"
           id="path1029" />
        <path
           class="bea5a0fc-33fd-4abe-9c27-42190133ddc3"
           d="m -206.64,695.41 v -37.29 a 2,2 0 0 0 -2,-2 h -35.2 a 2,2 0 0 0 -2,2 v 17 a 2,2 0 0 0 2,2 h 9.31 a 2,2 0 0 0 2,-2 V 669.5 H -220 v 14.59 h -33.46 v -69 a 2,2 0 0 0 -2,-2 h -9.31 a 2,2 0 0 0 -2,2 v 25.71 a 2,2 0 0 0 2,2 2,2 0 0 0 2,-2 v -23.7 h 5.24 v 69 a 2,2 0 0 0 2,2 H -218 a 2,2 0 0 0 2,-2 v -18.67 a 2,2 0 0 0 -2,-2 h -16.58 a 2,2 0 0 0 -2,2 v 5.63 h -5.23 v -12.9 h 31.13 v 33.21 h -52.1 V 679.1 a 2,2 0 0 0 -2,-2 2,2 0 0 0 -2,2 v 16.31 a 2,2 0 0 0 2,2 h 56.16 a 2,2 0 0 0 1.98,-2 z"
           transform="translate(415.56,185.46)"
           id="path1031" />
        <path
           class="bea5a0fc-33fd-4abe-9c27-42190133ddc3"
           d="m -264.84,665.13 a 2,2 0 0 0 2,-2 v -6.28 a 2,2 0 0 0 -2,-2 2,2 0 0 0 -2,2 v 6.28 a 2,2 0 0 0 2,2 z"
           transform="translate(415.56,185.46)"
           id="path1033" />
        <path
           class="bea5a0fc-33fd-4abe-9c27-42190133ddc3"
           d="m -276.29,650.84 a 2,2 0 0 0 2,-2 v -9.32 a 2,2 0 0 0 -2,-2 h -9.32 a 2,2 0 0 0 -2,2 v 0 9.32 a 2,2 0 0 0 2,2 z m -7.28,-9.31 h 5.24 v 5.24 h -5.24 z"
           transform="translate(415.56,185.46)"
           id="path1035" />
        <path
           class="ec5503ae-b2fc-4350-8cf0-207ea5f2789d"
           d="m 212.34,318.58 h 11.24 v 11.24 h -11.24 z"
           transform="translate(415.56,185.46)"
           id="path1037" />
        <path
           class="ec5503ae-b2fc-4350-8cf0-207ea5f2789d"
           d="m 191.05,318.58 h 11.24 v 11.24 h -11.24 z"
           transform="translate(415.56,185.46)"
           id="path1039" />
        <path
           class="ec5503ae-b2fc-4350-8cf0-207ea5f2789d"
           d="m 191.05,339.67 h 11.24 v 11.24 h -11.24 z"
           transform="translate(415.56,185.46)"
           id="path1041" />
        <path
           class="e6e955ec-e082-4119-afd9-8e160ee00eeb"
           d="m 195.18,312 h -10.74 v 10.74 h 2.94 v -7.8 h 7.8 z"
           transform="translate(415.56,185.46)"
           id="path1043" />
        <path
           class="e6e955ec-e082-4119-afd9-8e160ee00eeb"
           d="M 195.18,357.72 H 184.44 V 347 h 2.94 v 7.8 h 7.8 z"
           transform="translate(415.56,185.46)"
           id="path1045" />
        <path
           class="e6e955ec-e082-4119-afd9-8e160ee00eeb"
           d="m 219.45,312 h 10.74 v 10.74 h -2.94 v -7.8 h -7.8 z"
           transform="translate(415.56,185.46)"
           id="path1047" />
        <path
           class="e6e955ec-e082-4119-afd9-8e160ee00eeb"
           d="m 219.45,357.72 h 10.74 V 347 h -2.94 v 7.8 h -7.8 z"
           transform="translate(415.56,185.46)"
           id="path1049" />
        <path
           class="ffafc15d-45ce-401a-977b-63c6adf03024"
           d="m 216,322.26 h 3.89 v 3.89 H 216 Z"
           transform="translate(415.56,185.46)"
           id="path1051" />
        <path
           class="ffafc15d-45ce-401a-977b-63c6adf03024"
           d="m 194.73,322.26 h 3.89 v 3.89 h -3.89 z"
           transform="translate(415.56,185.46)"
           id="path1053" />
        <path
           class="ffafc15d-45ce-401a-977b-63c6adf03024"
           d="m 194.73,343.34 h 3.89 v 3.89 h -3.89 z"
           transform="translate(415.56,185.46)"
           id="path1055" />
        <path
           class="ec5503ae-b2fc-4350-8cf0-207ea5f2789d"
           d="m 205.84,318.58 h 2.94 V 322 h -2.94 z"
           transform="translate(415.56,185.46)"
           id="path1057" />
        <path
           class="ec5503ae-b2fc-4350-8cf0-207ea5f2789d"
           d="m 212.46,333.37 h 11.12 v 2.94 h -11.12 z"
           transform="translate(415.56,185.46)"
           id="path1059" />
        <path
           class="ec5503ae-b2fc-4350-8cf0-207ea5f2789d"
           d="m 191.11,333.37 h 4.5 v 2.94 h -4.5 z"
           transform="translate(415.56,185.46)"
           id="path1061" />
        <path
           class="ec5503ae-b2fc-4350-8cf0-207ea5f2789d"
           d="m 212.46,339.25 v 5.36 h 2.94 v -2.42 h 5.24 v 5.9 h -11.86 v -22.43 h -2.94 V 351 h 17.74 v -11.75 z"
           transform="translate(415.56,185.46)"
           id="path1063" />
        <path
           class="ec5503ae-b2fc-4350-8cf0-207ea5f2789d"
           d="m 199.29,333.37 h 2.94 v 2.94 h -2.94 z"
           transform="translate(415.56,185.46)"
           id="path1065" />
        <path
           class="bea5a0fc-33fd-4abe-9c27-42190133ddc3"
           d="m 184.44,323.36 h 2.94 a 0.65,0.65 0 0 0 0.64,-0.65 v -7.16 h 7.16 a 0.65,0.65 0 0 0 0.65,-0.64 V 312 a 0.65,0.65 0 0 0 -0.65,-0.65 h -10.74 a 0.65,0.65 0 0 0 -0.65,0.65 v 10.74 a 0.65,0.65 0 0 0 0.65,0.62 z m 0.64,-10.75 h 9.46 v 1.65 h -7.16 a 0.65,0.65 0 0 0 -0.65,0.65 v 7.16 h -1.65 z"
           transform="translate(415.56,185.46)"
           id="path1067" />
        <path
           class="bea5a0fc-33fd-4abe-9c27-42190133ddc3"
           d="M 195.18,354.14 H 188 V 347 a 0.65,0.65 0 0 0 -0.64,-0.65 h -2.94 a 0.65,0.65 0 0 0 -0.65,0.65 v 10.74 a 0.65,0.65 0 0 0 0.65,0.65 h 10.74 a 0.65,0.65 0 0 0 0.65,-0.65 v -2.94 a 0.65,0.65 0 0 0 -0.65,-0.64 z m -0.64,2.94 h -9.46 v -9.46 h 1.65 v 7.16 a 0.65,0.65 0 0 0 0.65,0.65 h 7.16 z"
           transform="translate(415.56,185.46)"
           id="path1069" />
        <path
           class="bea5a0fc-33fd-4abe-9c27-42190133ddc3"
           d="m 230.19,311.32 h -10.74 a 0.65,0.65 0 0 0 -0.65,0.65 v 2.94 a 0.65,0.65 0 0 0 0.65,0.64 h 7.16 v 7.16 a 0.65,0.65 0 0 0 0.64,0.65 h 2.94 a 0.65,0.65 0 0 0 0.65,-0.65 V 312 a 0.65,0.65 0 0 0 -0.65,-0.68 z m -0.64,10.75 h -1.65 v -7.16 a 0.65,0.65 0 0 0 -0.65,-0.65 h -7.16 v -1.65 h 9.46 z"
           transform="translate(415.56,185.46)"
           id="path1071" />
        <path
           class="bea5a0fc-33fd-4abe-9c27-42190133ddc3"
           d="m 230.19,346.33 h -2.94 a 0.65,0.65 0 0 0 -0.64,0.65 v 7.16 h -7.16 a 0.65,0.65 0 0 0 -0.65,0.64 v 0 2.94 a 0.65,0.65 0 0 0 0.65,0.65 h 8.31 a 0.65,0.65 0 0 0 0,-1.29 h -7.67 v -1.65 h 7.16 a 0.65,0.65 0 0 0 0.65,-0.65 v -7.16 h 1.65 v 7.48 a 0.65,0.65 0 1 0 1.29,0 V 347 a 0.65,0.65 0 0 0 -0.65,-0.67 z"
           transform="translate(415.56,185.46)"
           id="path1073" />
        <path
           class="bea5a0fc-33fd-4abe-9c27-42190133ddc3"
           d="m 212.34,330.46 h 11.24 a 0.64,0.64 0 0 0 0.64,-0.64 v -11.24 a 0.64,0.64 0 0 0 -0.64,-0.64 h -11.24 a 0.65,0.65 0 0 0 -0.65,0.64 v 0 11.24 a 0.64,0.64 0 0 0 0.65,0.64 z m 0.64,-11.24 h 10 v 10 H 213 Z"
           transform="translate(415.56,185.46)"
           id="path1075" />
        <path
           class="bea5a0fc-33fd-4abe-9c27-42190133ddc3"
           d="M 219.9,321.61 H 216 a 0.65,0.65 0 0 0 -0.64,0.65 v 0 3.89 a 0.64,0.64 0 0 0 0.64,0.64 h 3.89 a 0.65,0.65 0 0 0 0.65,-0.64 v -3.89 a 0.65,0.65 0 0 0 -0.64,-0.65 z m -0.64,3.89 h -2.6 v -2.6 h 2.6 z"
           transform="translate(415.56,185.46)"
           id="path1077" />
        <path
           class="bea5a0fc-33fd-4abe-9c27-42190133ddc3"
           d="m 194.73,326.79 h 3.89 a 0.64,0.64 0 0 0 0.64,-0.64 v 0 -3.89 a 0.65,0.65 0 0 0 -0.64,-0.65 h -3.89 a 0.65,0.65 0 0 0 -0.65,0.65 v 3.89 a 0.65,0.65 0 0 0 0.65,0.64 z m 0.64,-3.89 H 198 v 2.6 h -2.6 z"
           transform="translate(415.56,185.46)"
           id="path1079" />
        <path
           class="bea5a0fc-33fd-4abe-9c27-42190133ddc3"
           d="m 194.73,347.88 h 3.89 a 0.65,0.65 0 0 0 0.64,-0.65 v 0 -3.89 a 0.64,0.64 0 0 0 -0.64,-0.64 h -3.89 a 0.65,0.65 0 0 0 -0.65,0.64 v 3.89 a 0.65,0.65 0 0 0 0.65,0.65 z m 0.64,-3.89 H 198 v 2.6 h -2.6 z"
           transform="translate(415.56,185.46)"
           id="path1081" />
        <path
           class="bea5a0fc-33fd-4abe-9c27-42190133ddc3"
           d="m 202.29,317.94 h -11.24 a 0.64,0.64 0 0 0 -0.64,0.64 v 11.24 a 0.64,0.64 0 0 0 0.64,0.64 h 11.24 a 0.65,0.65 0 0 0 0.65,-0.64 v 0 -11.24 a 0.65,0.65 0 0 0 -0.65,-0.64 z m -0.64,11.24 h -10 v -10 h 10 z"
           transform="translate(415.56,185.46)"
           id="path1083" />
        <path
           class="bea5a0fc-33fd-4abe-9c27-42190133ddc3"
           d="m 202.29,339 h -11.24 a 0.65,0.65 0 0 0 -0.64,0.65 v 11.24 a 0.64,0.64 0 0 0 0.64,0.64 h 11.24 a 0.65,0.65 0 0 0 0.65,-0.64 v 0 -11.22 a 0.65,0.65 0 0 0 -0.65,-0.65 z m -0.64,11.24 h -10 v -9.95 h 10 z"
           transform="translate(415.56,185.46)"
           id="path1085" />
        <path
           class="bea5a0fc-33fd-4abe-9c27-42190133ddc3"
           d="m 205.84,322.62 h 2.94 a 0.64,0.64 0 0 0 0.65,-0.64 v -3.4 a 0.65,0.65 0 0 0 -0.65,-0.64 h -2.94 a 0.64,0.64 0 0 0 -0.64,0.64 V 322 a 0.64,0.64 0 0 0 0.64,0.62 z m 0.65,-3.4 h 1.65 v 2.12 h -1.65 z"
           transform="translate(415.56,185.46)"
           id="path1087" />
        <path
           class="bea5a0fc-33fd-4abe-9c27-42190133ddc3"
           d="m 223.58,332.73 h -11.12 a 0.64,0.64 0 0 0 -0.64,0.64 v 2.94 a 0.65,0.65 0 0 0 0.64,0.65 h 11.12 a 0.65,0.65 0 0 0 0.64,-0.65 v -2.94 a 0.64,0.64 0 0 0 -0.64,-0.64 z m -0.65,2.94 h -9.82 V 334 h 9.82 z"
           transform="translate(415.56,185.46)"
           id="path1089" />
        <path
           class="bea5a0fc-33fd-4abe-9c27-42190133ddc3"
           d="m 191.11,337 h 4.5 a 0.64,0.64 0 0 0 0.64,-0.65 v -2.94 a 0.64,0.64 0 0 0 -0.64,-0.64 h -4.5 a 0.64,0.64 0 0 0 -0.64,0.64 v 2.94 a 0.65,0.65 0 0 0 0.64,0.65 z m 0.65,-2.94 H 195 v 1.65 h -3.21 z"
           transform="translate(415.56,185.46)"
           id="path1091" />
        <path
           class="bea5a0fc-33fd-4abe-9c27-42190133ddc3"
           d="m 224.22,351 v -11.75 a 0.64,0.64 0 0 0 -0.64,-0.64 h -11.12 a 0.64,0.64 0 0 0 -0.64,0.64 v 5.36 a 0.65,0.65 0 0 0 0.64,0.65 h 2.94 a 0.65,0.65 0 0 0 0.65,-0.65 v -1.77 H 220 v 4.6 h -10.57 v -21.78 a 0.64,0.64 0 0 0 -0.65,-0.64 h -2.94 a 0.64,0.64 0 0 0 -0.64,0.64 v 8.13 a 0.65,0.65 0 0 0 1.29,0 v -7.49 h 1.65 v 21.79 a 0.64,0.64 0 0 0 0.64,0.64 h 11.86 a 0.64,0.64 0 0 0 0.64,-0.64 v -5.9 a 0.64,0.64 0 0 0 -0.64,-0.64 h -5.24 a 0.64,0.64 0 0 0 -0.64,0.64 V 344 h -1.65 v -4.1 h 9.82 v 10.48 h -16.44 v -4.5 a 0.65,0.65 0 1 0 -1.29,0 V 351 a 0.64,0.64 0 0 0 0.64,0.64 h 17.74 a 0.64,0.64 0 0 0 0.64,-0.64 z"
           transform="translate(415.56,185.46)"
           id="path1093" />
        <path
           class="bea5a0fc-33fd-4abe-9c27-42190133ddc3"
           d="m 205.84,341.47 a 0.65,0.65 0 0 0 0.65,-0.65 v -2 a 0.65,0.65 0 0 0 -1.29,0 v 2 a 0.65,0.65 0 0 0 0.64,0.65 z"
           transform="translate(415.56,185.46)"
           id="path1095" />
        <path
           class="bea5a0fc-33fd-4abe-9c27-42190133ddc3"
           d="m 202.23,337 a 0.65,0.65 0 0 0 0.64,-0.65 v -2.94 a 0.64,0.64 0 0 0 -0.64,-0.64 h -2.94 a 0.64,0.64 0 0 0 -0.64,0.64 v 0 2.94 a 0.64,0.64 0 0 0 0.64,0.65 z m -2.3,-2.94 h 1.66 v 1.65 h -1.66 z"
           transform="translate(415.56,185.46)"
           id="path1097" />
        <path
           class="ec5503ae-b2fc-4350-8cf0-207ea5f2789d"
           d="M -86.27,136.56 H -75 v 11.24 h -11.27 z"
           transform="translate(415.56,185.46)"
           id="path1099" />
        <path
           class="ec5503ae-b2fc-4350-8cf0-207ea5f2789d"
           d="m -107.56,136.56 h 11.24 v 11.24 h -11.24 z"
           transform="translate(415.56,185.46)"
           id="path1101" />
        <path
           class="ec5503ae-b2fc-4350-8cf0-207ea5f2789d"
           d="m -107.56,157.65 h 11.24 v 11.24 h -11.24 z"
           transform="translate(415.56,185.46)"
           id="path1103" />
        <path
           class="e6e955ec-e082-4119-afd9-8e160ee00eeb"
           d="m -103.43,130 h -10.74 v 10.7 h 2.94 v -7.81 h 7.8 z"
           transform="translate(415.56,185.46)"
           id="path1105" />
        <path
           class="e6e955ec-e082-4119-afd9-8e160ee00eeb"
           d="m -103.43,175.71 h -10.74 V 165 h 2.94 v 7.81 h 7.8 z"
           transform="translate(415.56,185.46)"
           id="path1107" />
        <path
           class="e6e955ec-e082-4119-afd9-8e160ee00eeb"
           d="m -79.16,130 h 10.74 v 10.7 h -2.94 v -7.81 h -7.8 z"
           transform="translate(415.56,185.46)"
           id="path1109" />
        <path
           class="e6e955ec-e082-4119-afd9-8e160ee00eeb"
           d="m -79.16,175.71 h 10.74 V 165 h -2.94 v 7.81 h -7.8 z"
           transform="translate(415.56,185.46)"
           id="path1111" />
        <path
           class="ffafc15d-45ce-401a-977b-63c6adf03024"
           d="m -82.6,140.24 h 3.89 v 3.89 h -3.89 z"
           transform="translate(415.56,185.46)"
           id="path1113" />
        <path
           class="ffafc15d-45ce-401a-977b-63c6adf03024"
           d="m -103.88,140.24 h 3.88 v 3.89 h -3.89 z"
           transform="translate(415.56,185.46)"
           id="path1115" />
        <path
           class="ffafc15d-45ce-401a-977b-63c6adf03024"
           d="m -103.88,161.33 h 3.88 v 3.88 h -3.89 z"
           transform="translate(415.56,185.46)"
           id="path1117" />
        <path
           class="ec5503ae-b2fc-4350-8cf0-207ea5f2789d"
           d="m -92.77,136.56 h 2.94 V 140 h -2.94 z"
           transform="translate(415.56,185.46)"
           id="path1119" />
        <path
           class="ec5503ae-b2fc-4350-8cf0-207ea5f2789d"
           d="M -86.15,151.36 H -75 v 2.94 h -11.15 z"
           transform="translate(415.56,185.46)"
           id="path1121" />
        <path
           class="ec5503ae-b2fc-4350-8cf0-207ea5f2789d"
           d="m -107.5,151.36 h 4.5 v 2.94 h -4.5 z"
           transform="translate(415.56,185.46)"
           id="path1123" />
        <path
           class="ec5503ae-b2fc-4350-8cf0-207ea5f2789d"
           d="m -86.15,157.24 v 5.36 h 2.94 v -2.42 H -78 v 5.89 h -11.83 v -22.43 h -2.94 V 169 H -75 v -11.76 z"
           transform="translate(415.56,185.46)"
           id="path1125" />
        <path
           class="ec5503ae-b2fc-4350-8cf0-207ea5f2789d"
           d="m -99.32,151.36 h 2.94 v 2.94 h -2.94 z"
           transform="translate(415.56,185.46)"
           id="path1127" />
        <path
           class="bea5a0fc-33fd-4abe-9c27-42190133ddc3"
           d="m -114.17,141.34 h 2.94 a 0.65,0.65 0 0 0 0.64,-0.65 v -7.16 h 7.16 a 0.65,0.65 0 0 0 0.65,-0.64 V 130 a 0.64,0.64 0 0 0 -0.65,-0.64 h -10.74 a 0.64,0.64 0 0 0 -0.65,0.64 v 10.74 a 0.65,0.65 0 0 0 0.65,0.6 z m 0.64,-10.75 h 9.46 v 1.66 h -7.16 a 0.64,0.64 0 0 0 -0.65,0.64 v 7.16 h -1.65 z"
           transform="translate(415.56,185.46)"
           id="path1129" />
        <path
           class="bea5a0fc-33fd-4abe-9c27-42190133ddc3"
           d="m -103.43,172.12 h -7.16 V 165 a 0.64,0.64 0 0 0 -0.64,-0.64 h -2.94 a 0.64,0.64 0 0 0 -0.65,0.64 v 10.75 a 0.65,0.65 0 0 0 0.65,0.64 h 10.74 a 0.65,0.65 0 0 0 0.65,-0.64 v -2.94 a 0.65,0.65 0 0 0 -0.65,-0.65 z m -0.64,2.94 h -9.46 v -9.46 h 1.65 v 7.17 a 0.65,0.65 0 0 0 0.65,0.64 h 7.16 z"
           transform="translate(415.56,185.46)"
           id="path1131" />
        <path
           class="bea5a0fc-33fd-4abe-9c27-42190133ddc3"
           d="m -68.42,129.31 h -10.74 a 0.64,0.64 0 0 0 -0.65,0.64 v 2.94 a 0.65,0.65 0 0 0 0.65,0.64 H -72 v 7.16 a 0.65,0.65 0 0 0 0.64,0.65 h 2.94 a 0.65,0.65 0 0 0 0.65,-0.65 V 130 a 0.64,0.64 0 0 0 -0.65,-0.69 z m -0.64,10.74 h -1.65 v -7.16 a 0.64,0.64 0 0 0 -0.65,-0.64 h -7.16 v -1.66 h 9.46 z"
           transform="translate(415.56,185.46)"
           id="path1133" />
        <path
           class="bea5a0fc-33fd-4abe-9c27-42190133ddc3"
           d="m -68.42,164.32 h -2.94 A 0.64,0.64 0 0 0 -72,165 v 7.16 h -7.16 a 0.65,0.65 0 0 0 -0.65,0.65 v 0 2.94 a 0.65,0.65 0 0 0 0.65,0.64 h 8.31 a 0.64,0.64 0 0 0 0.64,-0.64 0.65,0.65 0 0 0 -0.64,-0.65 h -7.67 v -1.65 h 7.16 a 0.65,0.65 0 0 0 0.65,-0.64 v -7.21 h 1.65 v 7.49 a 0.64,0.64 0 0 0 0.64,0.64 0.65,0.65 0 0 0 0.65,-0.64 V 165 a 0.64,0.64 0 0 0 -0.65,-0.68 z"
           transform="translate(415.56,185.46)"
           id="path1135" />
        <path
           class="bea5a0fc-33fd-4abe-9c27-42190133ddc3"
           d="M -86.27,148.45 H -75 a 0.65,0.65 0 0 0 0.64,-0.65 V 136.56 A 0.64,0.64 0 0 0 -75,135.92 h -11.27 a 0.65,0.65 0 0 0 -0.65,0.64 v 0 11.24 a 0.65,0.65 0 0 0 0.65,0.65 z m 0.64,-11.24 h 9.95 v 9.95 h -9.95 z"
           transform="translate(415.56,185.46)"
           id="path1137" />
        <path
           class="bea5a0fc-33fd-4abe-9c27-42190133ddc3"
           d="m -78.71,139.6 h -3.89 a 0.64,0.64 0 0 0 -0.64,0.64 v 0 3.89 a 0.64,0.64 0 0 0 0.64,0.64 h 3.89 a 0.65,0.65 0 0 0 0.65,-0.64 v -3.89 a 0.64,0.64 0 0 0 -0.65,-0.64 z m -0.64,3.89 h -2.6 v -2.61 h 2.6 z"
           transform="translate(415.56,185.46)"
           id="path1139" />
        <path
           class="bea5a0fc-33fd-4abe-9c27-42190133ddc3"
           d="m -103.88,144.77 h 3.88 a 0.64,0.64 0 0 0 0.64,-0.64 v 0 -3.89 A 0.64,0.64 0 0 0 -100,139.6 h -3.89 a 0.64,0.64 0 0 0 -0.65,0.64 v 3.89 a 0.65,0.65 0 0 0 0.66,0.64 z m 0.64,-3.89 h 2.6 v 2.61 h -2.6 z"
           transform="translate(415.56,185.46)"
           id="path1141" />
        <path
           class="bea5a0fc-33fd-4abe-9c27-42190133ddc3"
           d="m -103.88,165.86 h 3.88 a 0.64,0.64 0 0 0 0.64,-0.64 v 0 -3.88 a 0.65,0.65 0 0 0 -0.64,-0.65 h -3.89 a 0.65,0.65 0 0 0 -0.65,0.65 v 3.88 a 0.65,0.65 0 0 0 0.66,0.64 z m 0.64,-3.89 h 2.6 v 2.6 h -2.6 z"
           transform="translate(415.56,185.46)"
           id="path1143" />
        <path
           class="bea5a0fc-33fd-4abe-9c27-42190133ddc3"
           d="m -96.32,135.92 h -11.24 a 0.64,0.64 0 0 0 -0.64,0.64 v 11.24 a 0.65,0.65 0 0 0 0.64,0.65 h 11.24 a 0.64,0.64 0 0 0 0.64,-0.65 v 0 -11.24 a 0.64,0.64 0 0 0 -0.64,-0.64 z M -97,147.16 h -10 v -9.95 h 10 z"
           transform="translate(415.56,185.46)"
           id="path1145" />
        <path
           class="bea5a0fc-33fd-4abe-9c27-42190133ddc3"
           d="m -96.32,157 h -11.24 a 0.64,0.64 0 0 0 -0.64,0.64 v 11.24 a 0.64,0.64 0 0 0 0.64,0.64 h 11.24 a 0.63,0.63 0 0 0 0.64,-0.64 v 0 -11.23 a 0.63,0.63 0 0 0 -0.64,-0.64 z M -97,168.25 h -10 v -10 h 10 z"
           transform="translate(415.56,185.46)"
           id="path1147" />
        <path
           class="bea5a0fc-33fd-4abe-9c27-42190133ddc3"
           d="m -92.77,140.61 h 2.94 a 0.65,0.65 0 0 0 0.65,-0.65 v -3.4 a 0.65,0.65 0 0 0 -0.65,-0.64 h -2.94 a 0.64,0.64 0 0 0 -0.64,0.64 V 140 a 0.65,0.65 0 0 0 0.64,0.61 z m 0.65,-3.4 h 1.65 v 2.11 h -1.65 z"
           transform="translate(415.56,185.46)"
           id="path1149" />
        <path
           class="bea5a0fc-33fd-4abe-9c27-42190133ddc3"
           d="m -75,150.71 h -11.15 a 0.65,0.65 0 0 0 -0.64,0.65 v 2.94 a 0.64,0.64 0 0 0 0.64,0.64 H -75 a 0.64,0.64 0 0 0 0.64,-0.64 v -2.94 A 0.65,0.65 0 0 0 -75,150.71 Z m -0.65,2.94 H -85.5 V 152 h 9.82 z"
           transform="translate(415.56,185.46)"
           id="path1151" />
        <path
           class="bea5a0fc-33fd-4abe-9c27-42190133ddc3"
           d="m -107.5,154.94 h 4.5 a 0.64,0.64 0 0 0 0.64,-0.64 v -2.94 a 0.64,0.64 0 0 0 -0.64,-0.65 h -4.5 a 0.65,0.65 0 0 0 -0.64,0.65 v 2.94 a 0.64,0.64 0 0 0 0.64,0.64 z m 0.65,-2.94 h 3.21 v 1.65 h -3.21 z"
           transform="translate(415.56,185.46)"
           id="path1153" />
        <path
           class="bea5a0fc-33fd-4abe-9c27-42190133ddc3"
           d="m -74.39,169 v -11.76 a 0.65,0.65 0 0 0 -0.64,-0.65 h -11.12 a 0.65,0.65 0 0 0 -0.64,0.65 v 5.36 a 0.64,0.64 0 0 0 0.64,0.64 h 2.94 a 0.65,0.65 0 0 0 0.65,-0.64 v -1.78 h 3.94 v 4.61 H -89.18 V 143.64 A 0.65,0.65 0 0 0 -89.83,143 h -2.94 a 0.64,0.64 0 0 0 -0.64,0.64 v 8.13 a 0.64,0.64 0 0 0 0.64,0.64 0.64,0.64 0 0 0 0.65,-0.64 v -7.49 h 1.65 v 21.79 a 0.64,0.64 0 0 0 0.64,0.64 H -78 a 0.64,0.64 0 0 0 0.64,-0.64 v -5.89 A 0.65,0.65 0 0 0 -78,159.53 h -5.24 a 0.65,0.65 0 0 0 -0.64,0.65 V 162 h -1.62 v -4.07 h 9.82 v 10.49 h -16.44 v -4.51 a 0.65,0.65 0 0 0 -0.65,-0.64 0.64,0.64 0 0 0 -0.64,0.64 V 169 a 0.64,0.64 0 0 0 0.64,0.64 H -75 a 0.64,0.64 0 0 0 0.61,-0.64 z"
           transform="translate(415.56,185.46)"
           id="path1155" />
        <path
           class="bea5a0fc-33fd-4abe-9c27-42190133ddc3"
           d="m -92.77,159.45 a 0.65,0.65 0 0 0 0.65,-0.64 v -2 a 0.65,0.65 0 0 0 -0.65,-0.64 0.64,0.64 0 0 0 -0.64,0.64 v 2 a 0.64,0.64 0 0 0 0.64,0.64 z"
           transform="translate(415.56,185.46)"
           id="path1157" />
        <path
           class="bea5a0fc-33fd-4abe-9c27-42190133ddc3"
           d="m -96.38,154.94 a 0.64,0.64 0 0 0 0.64,-0.64 v -2.94 a 0.65,0.65 0 0 0 -0.64,-0.65 h -2.94 a 0.64,0.64 0 0 0 -0.64,0.65 v 0 2.94 a 0.64,0.64 0 0 0 0.64,0.64 z M -98.68,152 H -97 v 1.65 h -1.66 z"
           transform="translate(415.56,185.46)"
           id="path1159" />
        <path
           class="ec5503ae-b2fc-4350-8cf0-207ea5f2789d"
           d="m 546.19,315 h 11.24 v 11.24 h -11.24 z"
           transform="translate(415.56,185.46)"
           id="path1161" />
        <path
           class="ec5503ae-b2fc-4350-8cf0-207ea5f2789d"
           d="m 524.9,315 h 11.24 v 11.24 H 524.9 Z"
           transform="translate(415.56,185.46)"
           id="path1163" />
        <path
           class="ec5503ae-b2fc-4350-8cf0-207ea5f2789d"
           d="m 524.9,336.11 h 11.24 v 11.24 H 524.9 Z"
           transform="translate(415.56,185.46)"
           id="path1165" />
        <path
           class="e6e955ec-e082-4119-afd9-8e160ee00eeb"
           d="m 529,308.41 h -10.72 v 10.75 h 2.94 v -7.81 H 529 Z"
           transform="translate(415.56,185.46)"
           id="path1167" />
        <path
           class="e6e955ec-e082-4119-afd9-8e160ee00eeb"
           d="m 529,354.17 h -10.72 v -10.75 h 2.94 v 7.81 H 529 Z"
           transform="translate(415.56,185.46)"
           id="path1169" />
        <path
           class="e6e955ec-e082-4119-afd9-8e160ee00eeb"
           d="M 553.29,308.41 H 564 v 10.75 h -2.9 v -7.81 h -7.81 z"
           transform="translate(415.56,185.46)"
           id="path1171" />
        <path
           class="e6e955ec-e082-4119-afd9-8e160ee00eeb"
           d="M 553.29,354.17 H 564 v -10.75 h -2.9 v 7.81 h -7.81 z"
           transform="translate(415.56,185.46)"
           id="path1173" />
        <path
           class="ffafc15d-45ce-401a-977b-63c6adf03024"
           d="m 549.86,318.7 h 3.89 v 3.89 h -3.89 z"
           transform="translate(415.56,185.46)"
           id="path1175" />
        <path
           class="ffafc15d-45ce-401a-977b-63c6adf03024"
           d="m 528.57,318.7 h 3.89 v 3.89 h -3.89 z"
           transform="translate(415.56,185.46)"
           id="path1177" />
        <path
           class="ffafc15d-45ce-401a-977b-63c6adf03024"
           d="m 528.57,339.79 h 3.89 v 3.89 h -3.89 z"
           transform="translate(415.56,185.46)"
           id="path1179" />
        <path
           class="ec5503ae-b2fc-4350-8cf0-207ea5f2789d"
           d="m 539.69,315 h 2.94 v 3.4 h -2.94 z"
           transform="translate(415.56,185.46)"
           id="path1181" />
        <path
           class="ec5503ae-b2fc-4350-8cf0-207ea5f2789d"
           d="m 546.31,329.82 h 11.12 v 2.94 h -11.12 z"
           transform="translate(415.56,185.46)"
           id="path1183" />
        <path
           class="ec5503ae-b2fc-4350-8cf0-207ea5f2789d"
           d="m 525,329.82 h 4.5 v 2.94 H 525 Z"
           transform="translate(415.56,185.46)"
           id="path1185" />
        <path
           class="ec5503ae-b2fc-4350-8cf0-207ea5f2789d"
           d="m 546.31,335.7 v 5.36 h 2.94 v -2.42 h 5.24 v 5.89 h -11.86 v -22.42 h -2.94 v 25.36 h 17.74 V 335.7 Z"
           transform="translate(415.56,185.46)"
           id="path1187" />
        <path
           class="ec5503ae-b2fc-4350-8cf0-207ea5f2789d"
           d="m 533.14,329.82 h 2.94 v 2.94 h -2.94 z"
           transform="translate(415.56,185.46)"
           id="path1189" />
        <path
           class="bea5a0fc-33fd-4abe-9c27-42190133ddc3"
           d="m 518.28,319.8 h 2.94 a 0.65,0.65 0 0 0 0.65,-0.64 V 312 H 529 a 0.64,0.64 0 0 0 0.64,-0.65 v -2.94 A 0.64,0.64 0 0 0 529,307.77 h -10.72 a 0.64,0.64 0 0 0 -0.64,0.64 v 10.75 a 0.64,0.64 0 0 0 0.64,0.64 z m 0.65,-10.74 h 9.46 v 1.65 h -7.17 a 0.64,0.64 0 0 0 -0.64,0.64 v 7.17 h -1.65 z"
           transform="translate(415.56,185.46)"
           id="path1191" />
        <path
           class="bea5a0fc-33fd-4abe-9c27-42190133ddc3"
           d="m 529,350.59 h -7.16 v -7.17 a 0.65,0.65 0 0 0 -0.65,-0.64 h -2.94 a 0.64,0.64 0 0 0 -0.64,0.64 v 10.75 a 0.64,0.64 0 0 0 0.64,0.64 H 529 a 0.64,0.64 0 0 0 0.64,-0.64 v -2.94 A 0.63,0.63 0 0 0 529,350.59 Z m -0.64,2.94 h -9.46 v -9.46 h 1.65 v 7.16 a 0.64,0.64 0 0 0 0.64,0.64 h 7.17 z"
           transform="translate(415.56,185.46)"
           id="path1193" />
        <path
           class="bea5a0fc-33fd-4abe-9c27-42190133ddc3"
           d="m 564,307.77 h -10.71 a 0.64,0.64 0 0 0 -0.64,0.64 v 2.94 a 0.65,0.65 0 0 0 0.64,0.65 h 7.17 v 7.16 a 0.64,0.64 0 0 0 0.64,0.64 h 2.9 a 0.64,0.64 0 0 0 0.64,-0.64 V 308.41 A 0.64,0.64 0 0 0 564,307.77 Z m -0.64,10.75 h -1.66 v -7.17 a 0.64,0.64 0 0 0 -0.64,-0.64 h -7.16 v -1.65 h 9.46 z"
           transform="translate(415.56,185.46)"
           id="path1195" />
        <path
           class="bea5a0fc-33fd-4abe-9c27-42190133ddc3"
           d="m 564,342.78 h -2.9 a 0.64,0.64 0 0 0 -0.64,0.64 v 7.17 h -7.17 a 0.64,0.64 0 0 0 -0.64,0.64 v 0 2.94 a 0.64,0.64 0 0 0 0.64,0.64 h 8.32 a 0.64,0.64 0 0 0 0.64,-0.64 0.64,0.64 0 0 0 -0.64,-0.64 h -7.67 v -1.66 h 7.16 a 0.64,0.64 0 0 0 0.64,-0.64 v -7.16 h 1.66 v 7.48 a 0.64,0.64 0 1 0 1.28,0 v -8.13 A 0.64,0.64 0 0 0 564,342.78 Z"
           transform="translate(415.56,185.46)"
           id="path1197" />
        <path
           class="bea5a0fc-33fd-4abe-9c27-42190133ddc3"
           d="m 546.19,326.91 h 11.24 a 0.64,0.64 0 0 0 0.64,-0.64 V 315 a 0.64,0.64 0 0 0 -0.64,-0.64 h -11.24 a 0.63,0.63 0 0 0 -0.65,0.64 v 0 11.24 a 0.64,0.64 0 0 0 0.64,0.64 z m 0.64,-11.24 h 9.95 v 10 h -9.95 z"
           transform="translate(415.56,185.46)"
           id="path1199" />
        <path
           class="bea5a0fc-33fd-4abe-9c27-42190133ddc3"
           d="m 553.75,318.06 h -3.89 a 0.64,0.64 0 0 0 -0.64,0.64 v 0 3.89 a 0.64,0.64 0 0 0 0.64,0.65 h 3.89 a 0.64,0.64 0 0 0 0.64,-0.65 v -3.89 a 0.64,0.64 0 0 0 -0.64,-0.64 z m -0.64,3.89 h -2.61 v -2.6 h 2.61 z"
           transform="translate(415.56,185.46)"
           id="path1201" />
        <path
           class="bea5a0fc-33fd-4abe-9c27-42190133ddc3"
           d="m 528.57,323.24 h 3.89 a 0.65,0.65 0 0 0 0.65,-0.65 v 0 -3.89 a 0.65,0.65 0 0 0 -0.65,-0.64 h -3.89 a 0.64,0.64 0 0 0 -0.64,0.64 v 3.89 a 0.65,0.65 0 0 0 0.64,0.65 z m 0.65,-3.89 h 2.6 V 322 h -2.6 z"
           transform="translate(415.56,185.46)"
           id="path1203" />
        <path
           class="bea5a0fc-33fd-4abe-9c27-42190133ddc3"
           d="m 528.57,344.32 h 3.89 a 0.65,0.65 0 0 0 0.65,-0.64 v 0 -3.89 a 0.64,0.64 0 0 0 -0.65,-0.64 h -3.89 a 0.64,0.64 0 0 0 -0.64,0.64 v 3.89 a 0.64,0.64 0 0 0 0.64,0.64 z m 0.65,-3.89 h 2.6 V 343 h -2.6 z"
           transform="translate(415.56,185.46)"
           id="path1205" />
        <path
           class="bea5a0fc-33fd-4abe-9c27-42190133ddc3"
           d="M 536.14,314.39 H 524.9 a 0.63,0.63 0 0 0 -0.64,0.64 v 11.24 a 0.64,0.64 0 0 0 0.64,0.64 h 11.24 a 0.64,0.64 0 0 0 0.64,-0.64 v 0 V 315 a 0.64,0.64 0 0 0 -0.64,-0.64 z m -0.64,11.24 h -10 v -10 h 10 z"
           transform="translate(415.56,185.46)"
           id="path1207" />
        <path
           class="bea5a0fc-33fd-4abe-9c27-42190133ddc3"
           d="M 536.14,335.47 H 524.9 a 0.64,0.64 0 0 0 -0.64,0.64 v 11.24 a 0.64,0.64 0 0 0 0.64,0.65 h 11.24 a 0.64,0.64 0 0 0 0.64,-0.64 v 0 -11.25 a 0.64,0.64 0 0 0 -0.64,-0.64 z m -0.64,11.24 h -10 v -9.95 h 10 z"
           transform="translate(415.56,185.46)"
           id="path1209" />
        <path
           class="bea5a0fc-33fd-4abe-9c27-42190133ddc3"
           d="m 539.69,319.07 h 2.94 a 0.65,0.65 0 0 0 0.65,-0.64 V 315 a 0.64,0.64 0 0 0 -0.65,-0.64 h -2.94 a 0.64,0.64 0 0 0 -0.64,0.64 v 3.4 a 0.64,0.64 0 0 0 0.64,0.67 z m 0.65,-3.4 H 542 v 2.11 h -1.65 z"
           transform="translate(415.56,185.46)"
           id="path1211" />
        <path
           class="bea5a0fc-33fd-4abe-9c27-42190133ddc3"
           d="m 557.43,329.18 h -11.12 a 0.64,0.64 0 0 0 -0.64,0.64 v 2.94 a 0.64,0.64 0 0 0 0.64,0.64 h 11.12 a 0.64,0.64 0 0 0 0.64,-0.64 v -2.94 a 0.64,0.64 0 0 0 -0.64,-0.64 z m -0.65,2.94 H 547 v -1.66 h 9.83 z"
           transform="translate(415.56,185.46)"
           id="path1213" />
        <path
           class="bea5a0fc-33fd-4abe-9c27-42190133ddc3"
           d="m 525,333.4 h 4.5 a 0.64,0.64 0 0 0 0.64,-0.64 v -2.94 a 0.64,0.64 0 0 0 -0.64,-0.64 H 525 a 0.64,0.64 0 0 0 -0.64,0.64 v 2.94 a 0.64,0.64 0 0 0 0.64,0.64 z m 0.65,-2.94 h 3.21 v 1.66 h -3.21 z"
           transform="translate(415.56,185.46)"
           id="path1215" />
        <path
           class="bea5a0fc-33fd-4abe-9c27-42190133ddc3"
           d="M 558.07,347.47 V 335.7 a 0.64,0.64 0 0 0 -0.64,-0.64 h -11.12 a 0.64,0.64 0 0 0 -0.64,0.64 v 5.36 a 0.64,0.64 0 0 0 0.64,0.64 h 2.94 a 0.63,0.63 0 0 0 0.64,-0.64 v -1.78 h 4 v 4.61 h -10.61 v -21.78 a 0.65,0.65 0 0 0 -0.65,-0.65 h -2.94 a 0.65,0.65 0 0 0 -0.64,0.65 v 8.12 a 0.65,0.65 0 1 0 1.29,0 v -7.48 H 542 v 21.78 a 0.65,0.65 0 0 0 0.64,0.65 h 11.86 a 0.65,0.65 0 0 0 0.64,-0.65 v -5.89 A 0.64,0.64 0 0 0 554.5,338 h -5.24 a 0.64,0.64 0 0 0 -0.64,0.64 v 1.78 H 547 v -4.08 h 9.83 v 10.49 h -16.49 v -4.51 a 0.65,0.65 0 0 0 -1.29,0 v 5.15 a 0.65,0.65 0 0 0 0.64,0.65 h 17.74 a 0.65,0.65 0 0 0 0.64,-0.65 z"
           transform="translate(415.56,185.46)"
           id="path1217" />
        <path
           class="bea5a0fc-33fd-4abe-9c27-42190133ddc3"
           d="m 539.69,337.91 a 0.64,0.64 0 0 0 0.65,-0.64 v -2 a 0.65,0.65 0 0 0 -1.29,0 v 2 a 0.64,0.64 0 0 0 0.64,0.64 z"
           transform="translate(415.56,185.46)"
           id="path1219" />
        <path
           class="bea5a0fc-33fd-4abe-9c27-42190133ddc3"
           d="m 536.08,333.4 a 0.64,0.64 0 0 0 0.64,-0.64 v -2.94 a 0.64,0.64 0 0 0 -0.64,-0.64 h -2.94 a 0.65,0.65 0 0 0 -0.65,0.64 v 0 2.94 a 0.64,0.64 0 0 0 0.65,0.64 z m -2.3,-2.94 h 1.65 v 1.66 h -1.65 z"
           transform="translate(415.56,185.46)"
           id="path1221" />
      </g>
    </g>
  </g>
</svg>
