<?xml version="1.0" encoding="UTF-8"?>
<svg width="400mm" height="250mm" version="1.1" viewBox="0 0 400 250" xmlns="http://www.w3.org/2000/svg" xmlns:cc="http://creativecommons.org/ns#" xmlns:dc="http://purl.org/dc/elements/1.1/" xmlns:rdf="http://www.w3.org/1999/02/22-rdf-syntax-ns#">
<defs>
<style>.a7e91070-bc4e-4d7e-a1a4-375ce9b112ea{fill:#668362;}.e069c3a9-1290-428d-a99d-a7a75a876e99{fill:#cfdc96;}.ec5503ae-b2fc-4350-8cf0-207ea5f2789d{fill:#d7fc7e;}.e6e955ec-e082-4119-afd9-8e160ee00eeb{fill:#a7adf0;}.ffafc15d-45ce-401a-977b-63c6adf03024{fill:#57a4ff;}.bea5a0fc-33fd-4abe-9c27-42190133ddc3{fill:#231f20;}</style>
</defs>
<metadata>
<rdf:RDF>
<cc:Work rdf:about="">
<dc:format>image/svg+xml</dc:format>
<dc:type rdf:resource="http://purl.org/dc/dcmitype/StillImage"/>
<dc:title/>
</cc:Work>
</rdf:RDF>
</metadata>
<rect x=".63876" y="-.030498" width="401.13" height="251.52" fill="#50ab36" fill-rule="evenodd" stroke-width=".26458"/>
<g transform="matrix(.17729 0 0 .17729 105.59 30.604)">
<g data-name="Layer 1">
<path class="a7e91070-bc4e-4d7e-a1a4-375ce9b112ea" transform="translate(415.56,185.46)" d="m-378 647.25q0-49.75 0-99.49a19.36 19.36 0 0 0-1.22-7.3 516.45 516.45 0 0 1-32.52-129.28 537.27 537.27 0 0 1 6.05-167 528.74 528.74 0 0 1 66.27-171.67 525.48 525.48 0 0 1 72.53-94.36c36.85-38.27 78.21-70.68 124.65-96.48a532.33 532.33 0 0 1 260.33-67.12c95.7 0.45 185.17 24.45 267.91 72.76a533.93 533.93 0 0 1 227.77 267.91 533.07 533.07 0 0 1 34 234.53 531.13 531.13 0 0 1-34.14 149.7 23.61 23.61 0 0 0-1.68 8.69q0.06 99.24 0.13 198.48c0 4.3-0.88 5.52-5.39 5.5-46-0.19-92-0.08-138-0.19a14.68 14.68 0 0 0-10.28 3.67 527.73 527.73 0 0 1-191.23 102.4 519.18 519.18 0 0 1-114.72 20.2 557.25 557.25 0 0 1-79.34-0.48 538 538 0 0 1-100.52-18c-52.32-14.55-101-37.18-146.48-66.62a461.66 461.66 0 0 1-51.23-38.1 12 12 0 0 0-8.5-3c-46.33 0.09-92.66 0-139 0.16-4.25 0-5.56-0.8-5.53-5.36 0.24-33.22 0.14-66.39 0.14-99.55zm495 89.75q237 0 473.94 0.12c5.16 0 6.24-1.39 6.22-6.34q-0.27-84 0-168c0-4.3-0.74-5.93-5.6-5.92q-474.44 0.2-948.87 0c-4.68 0-5.72 1.34-5.7 5.82q0.22 84 0.1 168c0 7.12-0.76 6.29 6.51 6.3zm456.73-467.5c-32.59-197.5-219.24-392.98-482.13-379.05-247.6 13.12-405.41 208.01-431.19 379.22 3.1-0.78 6.1-2 9.18-2.22 3.89-0.3 5.66-2.22 7.09-5.64a90.19 90.19 0 0 1 27.74-36.56c19.92-15.73 42.53-22.77 67.89-20.31 4.23 0.41 7.35-0.32 10.6-3.58q90-90.33 180.14-180.47c3.46-3.47 5.33-3.32 8.68 0.05q54.97 55.34 110.27 110.38c4.2 4.2 4.23 4.21 6.72-1a126.48 126.48 0 0 1 23.48-34.48c2.56-2.63 4.35-2.81 6.6 0 3.51 4.44 7.27 8.68 10.63 13.22 6.57 8.86 11.07 18.94 16.57 30.75 1.55-2.42 2.29-4.2 3.56-5.47q56.63-56.8 113.32-113.62c3.53-3.56 5.11-3.1 8.37 0.17q90 90.3 180.14 180.46c3.08 3.09 6.08 4.32 10.1 3.62a64.08 64.08 0 0 1 22.36 0.29c34.8 6.16 59.7 25.17 73.88 57.78 0.74 1.7 1.35 3.41 3.49 3.84 4.15 0.83 8.29 1.73 12.51 2.62zm-674.38 227.5h47.42c2.57 0 2.81-1.95 3.56-3.47q7.19-14.54 14.28-29.11 16.73-34.29 33.46-68.59c0.81-1.63 1.12-3.91 3.93-3.83 4.58 0.1 9.17 0 14.56 0l-51.2 105c12.94 0 24.93-0.18 36.91 0.11 3.61 0.09 4.73-1.26 5.73-4.41q13.65-45.34 27.56-90.6c3.09-10.13 3.1-9.88 13.46-10.22 4.54-0.14 5.17 1 3.88 5.11-8.51 27.28-16.82 54.62-25.18 81.95-1.8 5.89-3.56 11.8-5.44 18.06 11.11 0 21.44-0.29 31.75 0.13 4.7 0.2 6.13-1.32 6.81-5.8 4.53-29.75 9.37-59.46 14.07-89.19 1.62-10.21 1.58-10 11.74-10.25 4.39-0.12 4.83 1.47 4.22 5.17-5.22 32.17-10.3 64.35-15.51 96.52-0.43 2.63 0 3.52 2.86 3.47 8.67-0.15 17.34-0.29 26 0.05 4.3 0.17 5.6-0.86 5.57-5.41-0.23-30.33-0.12-60.66-0.12-91 0-8.71 0-8.37 8.55-8.83 5-0.26 6.32 1.16 6.28 6.24-0.26 31.32-0.06 62.66-0.22 94 0 3.89 0.95 5.14 5 5 8.82-0.32 17.67-0.18 26.5-0.06 2.61 0 3.44-0.56 3-3.37-5.19-32-10.16-64-15.47-96-0.81-4.85 0.4-6.31 5.06-5.69a30 30 0 0 0 6 0c2.38-0.16 3.48 0.5 3.88 3.17 2.18 14.8 4.61 29.57 6.95 44.34q4.26 26.86 8.54 53.71c0.3 1.88 0.13 3.91 3.25 3.87 11.48-0.16 23-0.06 34.92-0.06l-32.16-105.01c4.17 0 7.69 0.29 11.13-0.08s4.87 1.12 5.84 4.34c9.69 32.13 19.58 64.2 29.25 96.34 1 3.44 2.52 4.59 6.14 4.5 10.16-0.28 20.33-0.1 30.5-0.1 6.09 0 6.1 0 3.33-5.68q-22-45.06-44-90.1c-4.5-9.23-4.51-9 6-9.31 4.31-0.12 6.73 0.9 8.76 5.14 15.46 32.23 31.29 64.29 46.87 96.47 1.27 2.61 2.64 3.59 5.57 3.55 12.83-0.17 25.66-0.07 38.5-0.07h7l-70.81-105c5.11 0 9.13 0.27 13.09-0.08 3.63-0.33 5.67 1.05 7.65 4 21.67 32.34 43.53 64.55 65.19 96.89 2.1 3.15 4.27 4.35 8.06 4.28 12.83-0.26 25.67-0.1 38.5-0.1h19.34l-97.87-104.99c6.35 0 11.64 0.15 16.92-0.06 2.81-0.12 4.55 1.05 6.38 3q45.72 49.21 91.52 98.37a10.5 10.5 0 0 0 8.59 3.76c24.5-0.17 49-0.09 73.49-0.09h6.1l-129.59-104.98c6.73 0 12 0.24 17.31-0.07 4.45-0.27 7.78 1.11 11.26 3.95 38.55 31.47 77.34 62.62 115.79 94.2 6.32 5.19 12.57 8 20.72 7 2.53-0.3 3.82-0.9 4.55-3.37 5.17-17.34 9.64-34.87 13.17-52.71 0.59-3-0.09-4.78-3-6.37-13.49-7.57-26.84-15.38-40.24-23.12q-16.08-9.3-32.16-18.64a251.37 251.37 0 0 1 27.47-0.81c1.2 0 2.44 0.94 3.57 1.59 14.57 8.35 29.18 16.64 43.65 25.16 3.31 2 4.32 1.19 4.63-2.29 1-11.11 2.17-22.2 3-33.31 0.48-6.23 0.26-6.25-6.2-6.25h-915.43a24.83 24.83 0 0 1-3 0c-2.92-0.35-3.59 0.85-3.47 3.72 0.5 12 2 23.88 3.22 35.8 0.45 4.16 1.88 4 5 2.14 14.33-8.43 28.8-16.65 43.2-25 1.3-0.75 2.46-1.68 4.08-1.68h28.19c-2.8 1.76-4.38 2.83-6 3.78q-33.69 19.47-67.43 38.87c-2.41 1.37-3.75 2.68-3.15 5.81a478.44 478.44 0 0 0 13.27 53.19c0.37 1.19 0.47 3.23 2 3.15 6.09-0.36 12.37 2 18.12-2.73q61.13-49.87 122.5-99.41c1.27-1 2.42-2.55 4.18-2.58 7.2-0.09 14.4 0 22.82 0l-129.67 104.98c27.11 0 52.61-0.12 78.1 0.11a13.5 13.5 0 0 0 11.15-4.82q45.4-49.17 91.16-98c0.89-0.95 1.66-2.2 3.18-2.21h19.42l-97.82 105c20.15 0 39-0.14 57.78 0.11 4.07 0.05 6.21-1.42 8.37-4.65q32.61-48.83 65.51-97.37c1-1.48 1.68-3.23 4-3.19 5.09 0.09 10.19 0 16.13 0zm-224.54 45q-41.73-99.88-37.57-206.87a471 471 0 0 1 54.08-202.61 478.49 478.49 0 0 1 135.51-160.39c155.47-118.21 370-131.73 540.22-27.22 101 62 170.48 150 206.88 263.06 36.31 112.79 29.51 224.18-14.49 334 10.95 0 21.45-0.17 31.94 0.09 3.7 0.09 5.44-1 6.86-4.55a515.35 515.35 0 0 0 36-196.95 514 514 0 0 0-8.24-86.82 512.43 512.43 0 0 0-54.4-154 516 516 0 0 0-134-158.8 511.19 511.19 0 0 0-200.7-97.42c-42.15-10.06-84.87-14.3-128.16-13.79a506.11 506.11 0 0 0-105.84 12.38 511 511 0 0 0-176.52 76.53 519.1 519.1 0 0 0-131 128.29 512.9 512.9 0 0 0-76.94 160.64 508.78 508.78 0 0 0-18.33 113.56 530.72 530.72 0 0 0 3.77 93.18 520.52 520.52 0 0 0 32.36 124.69c0.81 2.07 1.76 3.12 4.24 3.08 11.16-0.17 22.32-0.08 34.33-0.08zm433.47-213.78 1.51-0.76v-12.81-64.86c0-2.44 0.89-5.25-3.38-5.88-17.68-2.58-27.56-13.81-31.48-30.45-4.53-19.28-2.07-38.34 3.87-57 1.18-3.72 0.53-5.95-2.21-8.67q-52.82-52.5-105.33-105.33c-3.38-3.41-5.07-3.47-8.5 0q-81.46 81.84-163.22 163.39c-0.35 0.36-0.68 0.73-1.06 1.06-2.36 2-3.32 3.31 0.74 4.84a76.22 76.22 0 0 1 17.44 9.58c18.58 13.27 30.64 31 36.75 53 2.88 10.4 3.15 10.11 13.51 7.91 24-5.11 47.4-3 69.71 7.09 30.63 13.89 51.45 37.07 62.5 68.87 1.06 3 2.54 3.93 5.71 3.91 25.49-0.13 51-0.07 76.48-0.07h24.49c1.36 0 3.63 0.71 3.72-1.34 0.18-4.5 1.53-9.18-2.48-13.14q-25.77-25.56-51.28-51.32c-1.63-1.63-3-2.57-5.6-1.59-8.87 3.35-16.17-0.31-22.82-5.92-7.46-6.27-12.13-14.54-16.07-23.2-5.9-13-9.71-26.48-9.36-40.94 0.07-3.16 0.27-4.48 4.4-4 19.93 2.38 36.36 11.63 50.09 25.57 9.62 9.76 16 21.15 8.87 35.5-1.06 2.13 0.4 3.38 1.73 4.7q8.26 8.29 16.5 16.63 12.41 12.61 24.77 25.23zm48.88-134.92c0 2.92 0.28 4.8 0 6.57-1 5.29 1 9 4.93 12.62 8.05 7.48 15.8 15.3 23.32 23.32 2.89 3.08 4.7 2.64 7.78 0.43 11.5-8.22 24-14.06 38.33-15.64 4.36-0.48 4.55 0.92 4.6 4.28 0.19 15.85-4.25 30.52-11.29 44.48-1.43 2.84-1.34 4.53 1 6.83 11.04 10.81 22.03 21.81 32.82 32.88 2.81 2.89 4.41 3 7.57 0.26q44.23-38.81 102-26.77c11 2.31 8.66 3 11.46-7 8.46-30.12 26.34-51.82 55.3-64 3.62-1.52 2.89-2.44 0.76-4.56q-82.95-82.8-165.74-165.78c-2.36-2.36-3.67-2.24-6 0.05q-55.21 55.41-110.63 110.66c-1.85 1.85-2.33 3.39-1.59 6.09 3.22 11.88 5.86 23.91 5.38 35.28zm258.35 168.7q80.46 0 160.92 0.09c4.26 0 5.73-0.89 5.7-5.46-0.09-11.49-0.46-22.95-1.26-34.39-0.74-10.59-2-21.15-3.09-31.72a5.11 5.11 0 0 0-3.79-4.65c-6-2.15-12-4.24-18.29-4.65-6-0.39-8.93-2.94-10.8-8.58a75.36 75.36 0 0 0-24.17-34.74c-16.68-13.75-35.81-19.9-57.38-17.9q-31.41 2.87-52.54 26.39c-13 14.44-18.63 31.91-20.74 50.8-0.73 6.51-1.22 6.86-7.38 4.87-14.25-4.62-28.58-7.87-43.86-7.32-38.06 1.37-73.92 26.15-88.06 61.75-2.18 5.49-2.18 5.49 3.83 5.5zm-597.68 0h161.47c5.55 0 5.65-0.2 3.52-5.21-7.25-17-18-31.35-33-42.38-22.82-16.89-48.36-22.64-76.3-18.41-8.59 1.29-16.65 4.58-25 6.8-2.73 0.72-4.37 0.63-4.63-2.9s-1.34-7.18-1.81-10.8c-5.16-39.7-39.5-69-75.73-69.31-18.46-0.16-35 4.37-49.87 15.24-14 10.28-23.36 24-29 40.27-1 2.92-2.1 4.7-5.6 5.15a100.39 100.39 0 0 0-21.24 5.17c-3 1.07-4.21 2.72-4.56 5.7-2.5 21.31-4.45 42.65-4.12 64.15 0.1 6.57 0 6.58 6.38 6.58zm299.11 150h-431.4c-6.05 0-6.19 0.06-4 6 2.27 6.06 5.18 11.9 7.18 18 1.53 4.68 3.9 6.12 8.9 6.12q419.4-0.21 838.82-0.12a21.29 21.29 0 0 1 3 0c2.38 0.33 3.59-0.74 4.44-2.92 2.71-7 5.62-13.85 8.4-20.79 2.52-6.29 2.49-6.31-4.45-6.31zm-241.06 240.19c74.84 44.75 154.75 67.52 240.66 67.38s166.19-21.84 239.58-67.38zm-79.24-0.19c45.14 37.35 95.59 64.73 150.47 84 55.12 19.34 112.09 28.5 170.4 28.52a506.67 506.67 0 0 0 169.85-28.72 521.66 521.66 0 0 0 151.64-83.8h-50.33a7.87 7.87 0 0 0-4.63 1.45 479.52 479.52 0 0 1-237.22 80.33 459.19 459.19 0 0 1-66.82-0.62 483.86 483.86 0 0 1-75.19-11.76 480.19 480.19 0 0 1-154.34-67.5c-1.37-0.9-2.67-1.9-4.47-1.9q-24.69 0-49.36 0zm382.42-390c16.49 0 33-0.05 49.46 0 2.77 0 4.59-0.39 5.52-3.49a99.81 99.81 0 0 1 15.81-30.91c2.08-2.8 2.18-4.45-0.46-7q-16.32-15.83-32.16-32.14c-2.41-2.47-3.8-2.46-6.38-0.12-6.57 5.93-14.1 9.89-23.14 6.23-3.28-1.33-5-0.75-7.24 1.56-17.45 17.63-35 35.14-52.59 52.69a21.21 21.21 0 0 0-2.39 2.54c-2.15 3-1.8 6.6-0.83 9.59 0.69 2.16 3.89 1 5.94 1 16.15 0.05 32.31 0.05 48.46 0.05zm-53.82-31.81c15.69-15.65 31.09-31 46.52-46.37 1.18-1.17 0.91-2.21 0.28-3.54-4.77-10.06-1.88-19.18 4-27.6 1.75-2.49 1.73-3.69-0.37-5.72-6.94-6.7-13.82-13.49-20.47-20.49-2.73-2.87-3.74-2.2-5.53 0.91a32.5 32.5 0 0 1-21 15.64c-3.62 0.89-4.63 2.39-4.61 6 0.16 25.42 0.07 50.84 0.12 76.26 0.04 1.43-0.4 2.99 1.06 4.91z"/>
<path class="e069c3a9-1290-428d-a99d-a7a75a876e99" transform="translate(415.56,185.46)" d="m117 737h-473.48c-7.27 0-6.5 0.82-6.51-6.3q0-84-0.1-168c0-4.48 1-5.82 5.7-5.82q474.43 0.17 948.87 0c4.86 0 5.61 1.62 5.6 5.92q-0.2 84 0 168c0 5-1.06 6.35-6.22 6.34q-236.94-0.24-473.86-0.14zm133.66-105.35c-11.61-5.88-18.74-5.78-25.75 1.27-7.47 7.51-10 17.06-8.6 27.44 0.83 6.07 2.84 11.76 7.46 16.3 6.65 6.56 15.95 7.53 24.47 2.27 1.95-1.2 4.09-3.84 5.18 1 0.32 1.45 13.19 1.75 14.18 0.42a4.14 4.14 0 0 0 0.54-2.34q0-33.44 0-66.88c0-2-0.54-3.15-2.79-3.1-4.16 0.07-8.32 0-12.48 0-1.81 0-2.86 0.57-2.8 2.56 0.27 6.88-0.52 13.83 0.59 21.06zm-295.66 26.35c0-4.5-0.1-9 0-13.5 0.09-2.59-0.86-3.57-3.47-3.47-4 0.16-8 0-12 0-11.42 0-9-1-9.54 9.64-0.2 4 0.84 6 5.18 5.32 1.73-0.26 4.18-0.43 3.68 2.45-0.47 2.71 2.16 6.55-2.7 7.9a11.94 11.94 0 0 1-13.49-6.09 28.72 28.72 0 0 1-0.59-25.08c3.25-7.43 10.66-10.83 16.65-7 5.19 3.3 7.42 0.95 10.14-2.53a18.06 18.06 0 0 1 2.37-2.57c2.5-2.17 1.61-3.45-0.59-5.47-9.59-8.83-28.53-7.24-37.45 0.73-10.85 9.7-13.06 22.07-11.44 35.85 2.76 23.61 25.32 33.65 45.33 24.75 5.4-2.4 9.34-5.57 8-12.47-0.53-2.67-0.08-5.6-0.08-8.46zm45.32 2.1c4.32 0 8.66-0.19 13 0 3.28 0.19 4.33-1.18 4.58-4.27 1.21-15.64-8.62-31.6-30.9-27.83-10.36 1.74-17.15 8-20.36 17.63-3.31 9.88-1.84 19.36 5.2 27.54 10.09 11.73 30.51 11.14 42.32 4.07 1.3-0.78 1.61-1.41 0.76-2.72-1.78-2.75-2.92-6.32-5.38-8.07-1.41-1-4.89 0.92-7.45 1.52a17.66 17.66 0 0 1-3.84 0.85c-4.92 0-9.6-0.86-13-4.89-1.87-2.23-1.39-3.72 1.64-3.79 4.45-0.14 8.94-0.04 13.43-0.04zm298.27 0c10.06 0 19.68-0.09 29.31 0 2.77 0 4.18-0.57 4.57-3.63 1-7.6-0.31-14.65-5.15-20.61-7.84-9.66-22.36-11.39-34.47-4.43-10.69 6.15-15.47 20.94-11 33.18 7.61 20.83 34.09 20.51 46.95 12.48 0.95-0.6 1.56-1.37 0.95-2.45-1.53-2.75-2.76-5.82-4.86-8-1.76-1.84-3.89 0.8-5.92 1.13-1.8 0.3-3.57 0.78-5.38 1-6.8 0.83-12.8-2.44-15-8.69zm-217.32-4.88c0.17-16.12-11.07-28-26.61-28.12-15.12-0.12-26.38 11.4-27 26.7-0.75 17.91 12.8 28.31 26.13 28.32 16.21 0.02 27.31-10.71 27.48-26.9zm126-0.17c0.12-16.08-11.27-28-26.77-27.95-15.17 0-26.22 11.49-26.85 26.87-0.71 17.42 12.54 27.89 26.29 28.24 13.89 0.36 28.38-11.03 27.32-27.16zm-82.74-43.22c-15.2 0-25.9 7.68-30.86 21.4-2.67 7.39-2.82 14.85-1.67 22.53 3 21.34 28.75 33.64 47.19 22.5 8-4.84 8.09-5.32 1.86-12a8.11 8.11 0 0 1-1.36-1.46c-1.67-3-3.23-3.21-6.19-1-7.35 5.55-17.19 3.19-21.06-5.09s-3.89-16.78 0.75-24.88c3.37-5.89 10.71-9.13 16.18-5.89 5.89 3.5 9.1 1.74 12.28-3.05a12.06 12.06 0 0 1 2-2.19c1.78-1.63 1.59-2.81-0.37-4.34-5.72-4.42-11.94-7.15-18.76-6.53z"/>
<path class="e069c3a9-1290-428d-a99d-a7a75a876e99" transform="translate(415.56,185.46)" d="m108.28 328.22q-12.39-12.6-24.77-25.22-8.22-8.34-16.5-16.63c-1.33-1.32-2.79-2.57-1.73-4.7 7.14-14.35 0.75-25.74-8.87-35.5-13.73-13.94-30.16-23.17-50.09-25.57-4.13-0.49-4.33 0.83-4.4 4-0.35 14.46 3.46 28 9.36 40.94 3.94 8.66 8.61 16.93 16.07 23.2 6.65 5.6 13.95 9.26 22.82 5.91 2.63-1 4 0 5.6 1.59q25.59 25.68 51.28 51.24c4 4 2.66 8.64 2.48 13.14-0.09 2.05-2.36 1.33-3.72 1.34-8.16 0.07-16.33 0-24.49 0-25.5 0-51-0.06-76.48 0.07-3.17 0-4.65-0.86-5.71-3.91-11-31.8-31.87-55-62.5-68.87-22.31-10.12-45.75-12.2-69.71-7.09-10.36 2.2-10.63 2.49-13.51-7.91-6.11-22-18.17-39.72-36.75-53a76.22 76.22 0 0 0-17.44-9.58c-4.06-1.53-3.1-2.83-0.74-4.84 0.38-0.33 0.71-0.7 1.06-1.06q81.66-81.6 163.22-163.34c3.43-3.44 5.12-3.38 8.5 0q52.47 52.9 105.32 105.38c2.74 2.72 3.39 4.95 2.21 8.67-5.94 18.64-8.4 37.7-3.87 57 3.92 16.64 13.8 27.87 31.48 30.45 4.27 0.63 3.38 3.44 3.38 5.88 0.06 21.62 0 43.24 0 64.86v12.81z"/>
<path class="e069c3a9-1290-428d-a99d-a7a75a876e99" transform="translate(415.56,185.46)" d="m157.16 193.3c0.48-11.37-2.13-23.4-5.38-35.28-0.74-2.7-0.26-4.24 1.59-6.09q55.4-55.26 110.63-110.66c2.29-2.29 3.6-2.41 6-0.05q82.8 83 165.76 165.82c2.13 2.12 2.86 3-0.76 4.56-29 12.16-46.84 33.86-55.3 64-2.8 10-0.48 9.29-11.46 7q-57.63-12.13-102 26.77c-3.16 2.77-4.76 2.63-7.57-0.26-10.81-11.11-21.8-22.11-32.88-32.92-2.35-2.3-2.44-4-1-6.83 7-14 11.48-28.63 11.29-44.48 0-3.36-0.24-4.76-4.6-4.28-14.36 1.58-26.83 7.42-38.33 15.64-3.08 2.21-4.89 2.65-7.78-0.43-7.52-8-15.27-15.84-23.32-23.32-3.9-3.61-5.89-7.33-4.93-12.62 0.32-1.77 0.04-3.65 0.04-6.57z"/>
<path class="e069c3a9-1290-428d-a99d-a7a75a876e99" transform="translate(415.56,185.46)" d="m415.51 362h-160.91c-6 0-6 0-3.83-5.5 14.14-35.6 50-60.38 88.06-61.75 15.28-0.55 29.61 2.7 43.86 7.32 6.16 2 6.65 1.64 7.38-4.87 2.11-18.89 7.76-36.36 20.74-50.8q21.07-23.46 52.54-26.39c21.57-2 40.7 4.14 57.38 17.89a75.36 75.36 0 0 1 24.17 34.74c1.87 5.64 4.77 8.19 10.8 8.58 6.26 0.41 12.32 2.5 18.29 4.65a5.11 5.11 0 0 1 3.79 4.65c1.08 10.57 2.35 21.13 3.09 31.72 0.8 11.44 1.17 22.9 1.26 34.39 0 4.57-1.44 5.47-5.7 5.46q-80.43-0.21-160.92-0.09z"/>
<path class="e069c3a9-1290-428d-a99d-a7a75a876e99" transform="translate(415.56,185.46)" d="m-182.17 362h-159.46c-6.36 0-6.28 0-6.38-6.58-0.33-21.5 1.62-42.84 4.12-64.15 0.35-3 1.57-4.63 4.56-5.7a100.39 100.39 0 0 1 21.24-5.17c3.5-0.45 4.6-2.23 5.6-5.15 5.62-16.3 14.95-30 29-40.27 14.85-10.87 31.41-15.4 49.87-15.24 36.23 0.32 70.57 29.61 75.73 69.31 0.47 3.62 1.55 7.18 1.81 10.8s1.9 3.62 4.63 2.9c8.34-2.22 16.4-5.51 25-6.8 27.94-4.18 53.5 1.57 76.34 18.45 14.94 11 25.71 25.35 33 42.38 2.13 5 2 5.21-3.52 5.21z"/>
<path class="e069c3a9-1290-428d-a99d-a7a75a876e99" transform="translate(415.56,185.46)" d="m116.94 512h430.91c6.94 0 7 0 4.45 6.31-2.78 6.94-5.69 13.83-8.4 20.79-0.85 2.18-2.06 3.25-4.44 2.92a21.29 21.29 0 0 0-3 0q-419.41 0-838.82 0.12c-5 0-7.37-1.44-8.9-6.12-2-6.15-4.91-12-7.18-18-2.22-5.89-2.08-5.94 4-6h431.4z"/>
<path class="e069c3a9-1290-428d-a99d-a7a75a876e99" transform="translate(415.56,185.46)" d="m-124.12 752.19h480.24c-73.39 45.54-153.68 67.24-239.58 67.38s-165.82-22.63-240.66-67.38z"/>
<path class="e069c3a9-1290-428d-a99d-a7a75a876e99" transform="translate(415.56,185.46)" d="m179.06 362c-16.15 0-32.31 0-48.46-0.05-2 0-5.25 1.18-5.94-1-1-3-1.32-6.59 0.83-9.59a21.21 21.21 0 0 1 2.39-2.54c17.55-17.55 35.14-35.06 52.59-52.69 2.29-2.31 4-2.89 7.24-1.56 9 3.66 16.57-0.3 23.14-6.23 2.58-2.34 4-2.35 6.38 0.12q15.89 16.27 32.16 32.14c2.64 2.57 2.54 4.22 0.46 7a99.81 99.81 0 0 0-15.85 30.95c-0.93 3.1-2.75 3.51-5.52 3.49-16.48-0.04-32.93-0.04-49.42-0.04z"/>
<path class="e069c3a9-1290-428d-a99d-a7a75a876e99" transform="translate(415.56,185.46)" d="m125.24 330.19c-1.46-1.92-1-3.48-1-4.89 0-25.42 0-50.84-0.12-76.26 0-3.63 1-5.13 4.61-6a32.5 32.5 0 0 0 21-15.64c1.79-3.11 2.8-3.78 5.53-0.91 6.65 7 13.53 13.79 20.47 20.49 2.1 2 2.12 3.23 0.37 5.72-5.9 8.42-8.79 17.54-4 27.6 0.63 1.33 0.9 2.37-0.28 3.54-15.49 15.33-30.89 30.7-46.58 46.35z"/>
<path class="a7e91070-bc4e-4d7e-a1a4-375ce9b112ea" transform="translate(415.56,185.46)" d="m250.66 631.65c-1.11-7.23-0.32-14.18-0.55-21.1-0.06-2 1-2.58 2.8-2.56 4.16 0 8.32 0.07 12.48 0 2.25 0 2.79 1.11 2.79 3.1q0 33.43 0 66.88a4.14 4.14 0 0 1-0.54 2.34c-1 1.33-13.86 1-14.18-0.42-1.09-4.8-3.23-2.16-5.18-1-8.52 5.26-17.82 4.29-24.47-2.27-4.62-4.54-6.63-10.23-7.46-16.3-1.4-10.38 1.13-19.93 8.6-27.44 6.97-7.01 14.1-7.11 25.71-1.23zm-0.56 22.75c0-2.17-0.16-4.34 0-6.49 0.25-2.52-0.74-3.92-3-4.94-5-2.23-11 0.46-11.86 6-0.62 4-0.88 8.27 0.36 12.34 1.52 5 4 6.48 9.37 5.73 4.49-0.61 5.37-3.76 5.13-7.65-0.1-1.66 0-3.33 0-4.99z"/>
<path class="a7e91070-bc4e-4d7e-a1a4-375ce9b112ea" transform="translate(415.56,185.46)" d="m-45 658c0 2.83-0.45 5.76 0.09 8.48 1.38 6.9-2.56 10.07-8 12.47-20 8.9-42.57-1.14-45.33-24.75-1.62-13.78 0.59-26.15 11.44-35.85 8.92-8 27.86-9.56 37.45-0.73 2.2 2 3.09 3.3 0.59 5.47a18.06 18.06 0 0 0-2.37 2.57c-2.72 3.48-4.95 5.83-10.14 2.53-6-3.81-13.4-0.41-16.65 7a28.72 28.72 0 0 0 0.59 25.08 11.94 11.94 0 0 0 13.49 6.09c4.86-1.35 2.23-5.19 2.7-7.9 0.5-2.88-1.95-2.71-3.68-2.45-4.34 0.63-5.38-1.34-5.18-5.32 0.53-10.59-1.88-9.59 9.54-9.64 4 0 8 0.12 12 0 2.61-0.1 3.56 0.88 3.47 3.47-0.11 4.48-0.01 9.01-0.01 13.48z"/>
<path class="a7e91070-bc4e-4d7e-a1a4-375ce9b112ea" transform="translate(415.56,185.46)" d="m0.32 660.1c-4.49 0-9-0.07-13.47 0-3 0.07-3.51 1.56-1.64 3.79 3.4 4 8.08 4.91 13 4.89a17.66 17.66 0 0 0 3.84-0.78c2.56-0.6 6-2.52 7.45-1.52 2.46 1.75 3.6 5.32 5.38 8.07 0.85 1.31 0.54 1.94-0.76 2.72-11.81 7.07-32.23 7.66-42.32-4.07-7-8.18-8.51-17.66-5.2-27.54 3.21-9.66 10-15.93 20.4-17.66 22.32-3.76 32.15 12.2 30.91 27.86-0.25 3.09-1.3 4.46-4.58 4.27-4.31-0.24-8.65 0-13 0zm-7.86-11.92c1.83 0 3.66 0.05 5.48 0 1.11 0 2.49 0.25 2.93-1.23 0.4-1.32-0.63-2.12-1.4-3-3.39-3.73-10-4-13.35-0.53-1 1.06-2.26 2.37-1.69 3.87s2.31 0.75 3.55 0.84c1.49 0.12 3.02 0.04 4.48 0.05z"/>
<path class="a7e91070-bc4e-4d7e-a1a4-375ce9b112ea" transform="translate(415.56,185.46)" d="m298.59 660.08c2.2 6.25 8.2 9.52 15 8.67 1.81-0.22 3.58-0.7 5.38-1 2-0.33 4.16-3 5.92-1.13 2.1 2.23 3.33 5.3 4.86 8 0.61 1.08 0 1.85-0.95 2.45-12.86 8-39.34 8.35-46.95-12.48-4.47-12.24 0.31-27 11-33.18 12.11-7 26.63-5.23 34.47 4.43 4.84 6 6.11 13 5.15 20.61-0.39 3.06-1.8 3.67-4.57 3.63-9.63-0.08-19.25 0-29.31 0zm10.5-11.62a25.07 25.07 0 0 0 3.42-0.19c1.19-0.18 2.91 0.46 3.41-1.23s-0.59-3.13-1.91-4.25c-2.95-2.49-8.9-2.53-12 0-1.39 1.14-3.2 2.62-2.65 4.41s2.87 0.9 4.4 1.19a37.59 37.59 0 0 0 5.33 0.07z"/>
<path class="a7e91070-bc4e-4d7e-a1a4-375ce9b112ea" transform="translate(415.56,185.46)" d="m81.27 655.22c-0.17 16.19-11.3 26.92-27.5 26.9-13.33 0-26.88-10.41-26.13-28.32 0.64-15.3 11.9-26.82 27-26.7 15.56 0.13 26.8 12 26.63 28.12zm-18.27-0.22a17.86 17.86 0 0 0-1.65-9.27c-1.35-2.73-3.69-3.73-6.54-3.81s-5.53 0.56-6.78 3.29c-2.85 6.18-3.31 12.59-0.03 18.79a7.41 7.41 0 0 0 13 0.14 14.24 14.24 0 0 0 2-9.14z"/>
<path class="a7e91070-bc4e-4d7e-a1a4-375ce9b112ea" transform="translate(415.56,185.46)" d="m207.26 655.05c1.06 16.13-13.43 27.52-27.33 27.16-13.75-0.35-27-10.82-26.29-28.24 0.63-15.38 11.68-26.86 26.85-26.87 15.51-0.01 26.89 11.9 26.77 27.95zm-18.26-0.4a21.46 21.46 0 0 0-0.91-6.92c-1.15-3.92-3.6-5.84-7.63-5.82s-6.44 2-7.58 5.9a25.75 25.75 0 0 0-0.88 7.39c0 8 3 12.48 8.29 12.62 5.55 0.18 8.71-4.45 8.71-13.17z"/>
<path class="a7e91070-bc4e-4d7e-a1a4-375ce9b112ea" transform="translate(415.56,185.46)" d="m124.52 611.83c6.82-0.62 13 2.11 18.75 6.57 2 1.53 2.15 2.71 0.37 4.34a12.06 12.06 0 0 0-2 2.19c-3.18 4.79-6.39 6.55-12.28 3.05-5.47-3.24-12.81 0-16.18 5.89-4.64 8.1-4.6 16.63-0.75 24.88s13.71 10.64 21.06 5.09c3-2.23 4.52-2.05 6.19 1a8.11 8.11 0 0 0 1.36 1.46c6.23 6.66 6.15 7.14-1.86 12-18.48 11.1-44.18-1.2-47.18-22.54-1.1-7.68-1-15.14 1.71-22.53 4.91-13.72 15.61-21.36 30.81-21.4z"/>
<path class="e069c3a9-1290-428d-a99d-a7a75a876e99" transform="translate(415.56,185.46)" d="m250.1 654.4c0 1.66-0.08 3.33 0 5 0.24 3.89-0.64 7-5.13 7.65-5.41 0.75-7.85-0.77-9.37-5.73-1.24-4.07-1-8.31-0.36-12.34 0.86-5.54 6.89-8.23 11.86-6 2.28 1 3.27 2.42 3 4.94-0.16 2.14 0 4.31 0 6.48z"/>
<path class="e069c3a9-1290-428d-a99d-a7a75a876e99" transform="translate(415.56,185.46)" d="m-7.54 648.18c-1.49 0-3 0.07-4.48 0-1.24-0.09-3 0.67-3.55-0.84s0.66-2.81 1.69-3.87c3.38-3.49 10-3.2 13.35 0.53 0.77 0.85 1.8 1.65 1.4 3-0.44 1.48-1.82 1.19-2.93 1.23-1.82 0-3.65-0.05-5.48-0.05z"/>
<path class="e069c3a9-1290-428d-a99d-a7a75a876e99" transform="translate(415.56,185.46)" d="m309.09 648.46a37.59 37.59 0 0 1-5.33 0c-1.53-0.29-3.87 0.54-4.4-1.19s1.26-3.27 2.65-4.41c3.1-2.56 9.05-2.52 12 0 1.32 1.12 2.44 2.44 1.91 4.25s-2.22 1.05-3.41 1.23a25.07 25.07 0 0 1-3.42 0.12z"/>
<path class="e069c3a9-1290-428d-a99d-a7a75a876e99" transform="translate(415.56,185.46)" d="m63 655a14.24 14.24 0 0 1-2 9.09 7.41 7.41 0 0 1-13-0.09c-3.26-6.15-2.8-12.56 0.05-18.74 1.25-2.73 4-3.37 6.78-3.29s5.17 1.03 6.47 3.77a17.86 17.86 0 0 1 1.7 9.26z"/>
<path class="e069c3a9-1290-428d-a99d-a7a75a876e99" transform="translate(415.56,185.46)" d="m189 654.65c0 8.72-3.16 13.31-8.71 13.17-5.33-0.14-8.26-4.61-8.29-12.62a25.75 25.75 0 0 1 0.88-7.39c1.14-3.9 3.53-5.89 7.58-5.9s6.48 1.9 7.63 5.82a21.46 21.46 0 0 1 0.91 6.92z"/>
</g>
<g data-name="Layer 2">
<path class="ec5503ae-b2fc-4350-8cf0-207ea5f2789d" transform="translate(415.56,185.46)" d="m509.44 593h35.56v35.6h-35.6z"/>
<path class="ec5503ae-b2fc-4350-8cf0-207ea5f2789d" transform="translate(415.56,185.46)" d="m442 593h35.6v35.6h-35.6z"/>
<path class="ec5503ae-b2fc-4350-8cf0-207ea5f2789d" transform="translate(415.56,185.46)" d="m442 659.78h35.6v35.6h-35.6z"/>
<path class="e6e955ec-e082-4119-afd9-8e160ee00eeb" transform="translate(415.56,185.46)" d="m455.1 572h-34v34h9.32v-24.65h24.68z"/>
<path class="e6e955ec-e082-4119-afd9-8e160ee00eeb" transform="translate(415.56,185.46)" d="m455.1 717h-34v-34h9.32v24.73h24.68z"/>
<path class="e6e955ec-e082-4119-afd9-8e160ee00eeb" transform="translate(415.56,185.46)" d="m532 572h34v34h-9.31v-24.65h-24.69z"/>
<path class="e6e955ec-e082-4119-afd9-8e160ee00eeb" transform="translate(415.56,185.46)" d="m532 717h34v-34h-9.31v24.73h-24.69z"/>
<path class="ffafc15d-45ce-401a-977b-63c6adf03024" transform="translate(415.56,185.46)" d="m521.08 604.63h12.32v12.37h-12.32z"/>
<path class="ffafc15d-45ce-401a-977b-63c6adf03024" transform="translate(415.56,185.46)" d="m453.66 604.63h12.34v12.37h-12.34z"/>
<path class="ffafc15d-45ce-401a-977b-63c6adf03024" transform="translate(415.56,185.46)" d="m453.66 671.42h12.34v12.32h-12.34z"/>
<path class="ec5503ae-b2fc-4350-8cf0-207ea5f2789d" transform="translate(415.56,185.46)" d="m488.87 593h9.31v10.77h-9.31z"/>
<path class="ec5503ae-b2fc-4350-8cf0-207ea5f2789d" transform="translate(415.56,185.46)" d="m509.83 639.84h35.17v9.32h-35.17z"/>
<path class="ec5503ae-b2fc-4350-8cf0-207ea5f2789d" transform="translate(415.56,185.46)" d="m442.22 639.84h14.24v9.32h-14.24z"/>
<path class="ec5503ae-b2fc-4350-8cf0-207ea5f2789d" transform="translate(415.56,185.46)" d="m509.83 658.47v17h9.32v-7.66h16.57v18.66h-37.54v-71h-9.31v80.35h56.13v-37.35z"/>
<path class="ec5503ae-b2fc-4350-8cf0-207ea5f2789d" transform="translate(415.56,185.46)" d="m468.11 639.84h9.31v9.32h-9.31z"/>
<path class="bea5a0fc-33fd-4abe-9c27-42190133ddc3" transform="translate(415.56,185.46)" d="m421.06 608.11h9.32a2 2 0 0 0 2-2v-22.72h22.72a2 2 0 0 0 2-2v-9.39a2 2 0 0 0-2-2h-34a2 2 0 0 0-2 2v34a2 2 0 0 0 1.96 2.11zm2-34h30v5.24h-22.68a2 2 0 0 0-2 2v22.65h-5.28z"/>
<path class="bea5a0fc-33fd-4abe-9c27-42190133ddc3" transform="translate(415.56,185.46)" d="m455.1 705.61h-22.69v-22.68a2 2 0 0 0-2-2h-9.32a2 2 0 0 0-2 2v34a2 2 0 0 0 2 2h34a2 2 0 0 0 2-2v-9.31a2 2 0 0 0-2-2zm-2 9.32h-30v-29.93h5.24v22.69a2 2 0 0 0 2 2h22.69z"/>
<path class="bea5a0fc-33fd-4abe-9c27-42190133ddc3" transform="translate(415.56,185.46)" d="m566 570h-34a2 2 0 0 0-2 2v9.31a2 2 0 0 0 2 2h22.69v22.68a2 2 0 0 0 2 2h9.31a2 2 0 0 0 2-2v-33.99a2 2 0 0 0-2-2zm-2 34h-5.24v-22.65a2 2 0 0 0-2-2h-22.76v-5.24h30z"/>
<path class="bea5a0fc-33fd-4abe-9c27-42190133ddc3" transform="translate(415.56,185.46)" d="m566 680.89h-9.31a2 2 0 0 0-2 2v22.68h-22.69a2 2 0 0 0-2 2v9.43a2 2 0 0 0 2 2h26.33a2.035 2.035 0 1 0 0-4.07h-24.33v-5.24h22.69a2 2 0 0 0 2-2v-22.69h5.31v23.71a2.04 2.04 0 0 0 4.08 0v-25.78a2 2 0 0 0-2.08-2.04z"/>
<path class="bea5a0fc-33fd-4abe-9c27-42190133ddc3" transform="translate(415.56,185.46)" d="m509.44 630.63h35.56a2 2 0 0 0 2-2v-35.63a2 2 0 0 0-2-2h-35.6a2 2 0 0 0-2 2v35.6a2 2 0 0 0 2 2zm2-35.6h31.56v31.52h-31.53z"/>
<path class="bea5a0fc-33fd-4abe-9c27-42190133ddc3" transform="translate(415.56,185.46)" d="m533.4 602.59h-12.32a2 2 0 0 0-2 2v12.41a2 2 0 0 0 2 2h12.32a2 2 0 0 0 2-2v-12.37a2 2 0 0 0-2-2.04zm-2 12.32h-8.25v-8.24h8.25z"/>
<path class="bea5a0fc-33fd-4abe-9c27-42190133ddc3" transform="translate(415.56,185.46)" d="m453.66 619h12.34a2 2 0 0 0 2-2v-12.37a2 2 0 0 0-2-2h-12.34a2 2 0 0 0-2 2v12.37a2 2 0 0 0 2 2zm2-12.32h8.24v8.24h-8.2z"/>
<path class="bea5a0fc-33fd-4abe-9c27-42190133ddc3" transform="translate(415.56,185.46)" d="m453.66 685.77h12.34a2 2 0 0 0 2-2v-12.35a2 2 0 0 0-2-2h-12.34a2 2 0 0 0-2 2v12.32a2 2 0 0 0 2 2.03zm2-12.32h8.24v8.25h-8.2z"/>
<path class="bea5a0fc-33fd-4abe-9c27-42190133ddc3" transform="translate(415.56,185.46)" d="m477.62 591h-35.62a2 2 0 0 0-2 2v35.6a2 2 0 0 0 2 2h35.6a2 2 0 0 0 2-2v-35.6a2 2 0 0 0-2-2zm-2 35.6h-31.57v-31.6h31.53z"/>
<path class="bea5a0fc-33fd-4abe-9c27-42190133ddc3" transform="translate(415.56,185.46)" d="m477.62 657.74h-35.62a2 2 0 0 0-2 2v35.6a2 2 0 0 0 2 2h35.6a2 2 0 0 0 2-2v-35.6a2 2 0 0 0-2-2zm-2 35.6h-31.57v-31.53h31.53z"/>
<path class="bea5a0fc-33fd-4abe-9c27-42190133ddc3" transform="translate(415.56,185.46)" d="m488.87 605.79h9.31a2 2 0 0 0 2-2v-10.79a2 2 0 0 0-2-2h-9.31a2 2 0 0 0-2 2v10.77a2 2 0 0 0 2 2.02zm2-10.76h5.24v6.69h-5.24z"/>
<path class="bea5a0fc-33fd-4abe-9c27-42190133ddc3" transform="translate(415.56,185.46)" d="m545 637.81h-35.17a2 2 0 0 0-2 2v9.32a2 2 0 0 0 2 2h35.17a2 2 0 0 0 2-2v-9.32a2 2 0 0 0-2-2zm-2 9.31h-31.13v-5.24h31.13z"/>
<path class="bea5a0fc-33fd-4abe-9c27-42190133ddc3" transform="translate(415.56,185.46)" d="m442.22 651.19h14.24a2 2 0 0 0 2-2v-9.32a2 2 0 0 0-2-2h-14.24a2 2 0 0 0-2 2v9.32a2 2 0 0 0 2 2zm2-9.31h10.17v5.24h-10.14z"/>
<path class="bea5a0fc-33fd-4abe-9c27-42190133ddc3" transform="translate(415.56,185.46)" d="m547.07 695.76v-37.29a2 2 0 0 0-2-2h-35.24a2 2 0 0 0-2 2v17a2 2 0 0 0 2 2h9.32a2 2 0 0 0 2-2v-5.62h12.51v14.59h-33.44v-69a2 2 0 0 0-2-2h-9.31a2 2 0 0 0-2 2v25.74a2.04 2.04 0 0 0 4.08 0v-23.74h5.24v69a2 2 0 0 0 2 2h37.54a2 2 0 0 0 2-2v-18.66a2 2 0 0 0-2-2h-16.62a2 2 0 0 0-2 2v5.63h-5.24v-12.9h31.09v33.21h-52.09v-14.27a2.04 2.04 0 1 0-4.08 0v16.31a2 2 0 0 0 2 2h56.17a2 2 0 0 0 2.07-2z"/>
<path class="bea5a0fc-33fd-4abe-9c27-42190133ddc3" transform="translate(415.56,185.46)" d="m488.87 665.48a2 2 0 0 0 2-2v-6.28a2.04 2.04 0 0 0-4.08 0v6.28a2 2 0 0 0 2.08 2z"/>
<path class="bea5a0fc-33fd-4abe-9c27-42190133ddc3" transform="translate(415.56,185.46)" d="m477.42 651.19a2 2 0 0 0 2-2v-9.32a2 2 0 0 0-2-2h-9.31a2 2 0 0 0-2 2v9.32a2 2 0 0 0 2 2zm-7.28-9.31h5.24v5.24h-5.24z"/>
<path class="ec5503ae-b2fc-4350-8cf0-207ea5f2789d" transform="translate(415.56,185.46)" d="m-244.28 592.64h35.6v35.6h-35.6z"/>
<path class="ec5503ae-b2fc-4350-8cf0-207ea5f2789d" transform="translate(415.56,185.46)" d="m-311.7 592.64h35.6v35.6h-35.6z"/>
<path class="ec5503ae-b2fc-4350-8cf0-207ea5f2789d" transform="translate(415.56,185.46)" d="m-311.7 659.43h35.6v35.57h-35.6z"/>
<path class="e6e955ec-e082-4119-afd9-8e160ee00eeb" transform="translate(415.56,185.46)" d="m-298.61 571.69h-34v34h9.31v-24.69h24.73z"/>
<path class="e6e955ec-e082-4119-afd9-8e160ee00eeb" transform="translate(415.56,185.46)" d="m-298.61 716.61h-34v-34h9.31v24.69h24.73z"/>
<path class="e6e955ec-e082-4119-afd9-8e160ee00eeb" transform="translate(415.56,185.46)" d="m-221.76 571.69h34v34h-9.24v-24.69h-24.72z"/>
<path class="e6e955ec-e082-4119-afd9-8e160ee00eeb" transform="translate(415.56,185.46)" d="m-221.76 716.61h34v-34h-9.24v24.69h-24.72z"/>
<path class="ffafc15d-45ce-401a-977b-63c6adf03024" transform="translate(415.56,185.46)" d="m-232.64 604.28h12.32v12.32h-12.32z"/>
<path class="ffafc15d-45ce-401a-977b-63c6adf03024" transform="translate(415.56,185.46)" d="m-300.06 604.28h12.32v12.32h-12.32z"/>
<path class="ffafc15d-45ce-401a-977b-63c6adf03024" transform="translate(415.56,185.46)" d="m-300.06 671.07h12.32v12.32h-12.32z"/>
<path class="ec5503ae-b2fc-4350-8cf0-207ea5f2789d" transform="translate(415.56,185.46)" d="m-264.84 592.64h9.31v10.77h-9.31z"/>
<path class="ec5503ae-b2fc-4350-8cf0-207ea5f2789d" transform="translate(415.56,185.46)" d="m-243.88 639.49h35.2v9.32h-35.2z"/>
<path class="ec5503ae-b2fc-4350-8cf0-207ea5f2789d" transform="translate(415.56,185.46)" d="m-311.5 639.49h14.24v9.32h-14.24z"/>
<path class="ec5503ae-b2fc-4350-8cf0-207ea5f2789d" transform="translate(415.56,185.46)" d="m-243.88 658.12v17h9.31v-7.66h16.57v18.66h-37.54v-71h-9.31v80.35h56.16v-37.35z"/>
<path class="ec5503ae-b2fc-4350-8cf0-207ea5f2789d" transform="translate(415.56,185.46)" d="m-285.61 639.49h9.32v9.32h-9.32z"/>
<path class="bea5a0fc-33fd-4abe-9c27-42190133ddc3" transform="translate(415.56,185.46)" d="m-332.65 607.76h9.31a2 2 0 0 0 2-2v-22.76h22.69a2 2 0 0 0 2-2v-9.31a2 2 0 0 0-2-2h-34a2 2 0 0 0-2 2v34a2 2 0 0 0 2 2.07zm2-34h30v5.24h-22.69a2 2 0 0 0-2 2v22.69h-5.23z"/>
<path class="bea5a0fc-33fd-4abe-9c27-42190133ddc3" transform="translate(415.56,185.46)" d="m-298.61 705.26h-22.69v-22.68a2 2 0 0 0-2-2h-9.31a2 2 0 0 0-2 2v34a2 2 0 0 0 2 2h34a2 2 0 0 0 2-2v-9.28a2 2 0 0 0-2-2zm-2 9.32h-30v-30h5.23v22.72a2 2 0 0 0 2 2h22.69z"/>
<path class="bea5a0fc-33fd-4abe-9c27-42190133ddc3" transform="translate(415.56,185.46)" d="m-187.72 569.65h-34a2 2 0 0 0-2 2v9.35a2 2 0 0 0 2 2h22.69v22.68a2 2 0 0 0 2 2h9.32a2 2 0 0 0 2-2v-34a2 2 0 0 0-2.01-2.03zm-2 34h-5.28v-22.65a2 2 0 0 0-2-2h-22.69v-5.24h30z"/>
<path class="bea5a0fc-33fd-4abe-9c27-42190133ddc3" transform="translate(415.56,185.46)" d="m-187.72 680.54h-9.28a2 2 0 0 0-2 2v22.68h-22.69a2 2 0 0 0-2 2v9.31a2 2 0 0 0 2 2h26.32a2 2 0 0 0 2-2 2 2 0 0 0-2-2h-24.29v-5.24h22.66a2 2 0 0 0 2-2v-22.68h5.24v23.71a2 2 0 0 0 2 2 2 2 0 0 0 2-2v-25.74a2 2 0 0 0-1.96-2.04z"/>
<path class="bea5a0fc-33fd-4abe-9c27-42190133ddc3" transform="translate(415.56,185.46)" d="m-244.28 630.28h35.6a2 2 0 0 0 2-2v-35.6a2 2 0 0 0-2-2h-35.6a2 2 0 0 0-2 2v35.6a2 2 0 0 0 2 2zm2-35.6h31.53v31.52h-31.53z"/>
<path class="bea5a0fc-33fd-4abe-9c27-42190133ddc3" transform="translate(415.56,185.46)" d="m-220.32 602.24h-12.32a2 2 0 0 0-2 2v12.36a2 2 0 0 0 2 2h12.32a2 2 0 0 0 2-2v-12.32a2 2 0 0 0-2-2.04zm-2 12.32h-8.24v-8.24h8.24z"/>
<path class="bea5a0fc-33fd-4abe-9c27-42190133ddc3" transform="translate(415.56,185.46)" d="m-300.06 618.64h12.32a2 2 0 0 0 2-2v-12.36a2 2 0 0 0-2-2h-12.32a2 2 0 0 0-2 2v12.32a2 2 0 0 0 2 2.04zm2-12.32h8.25v8.24h-8.19z"/>
<path class="bea5a0fc-33fd-4abe-9c27-42190133ddc3" transform="translate(415.56,185.46)" d="m-300.06 685.42h12.32a2 2 0 0 0 2-2v-12.35a2 2 0 0 0-2-2h-12.32a2 2 0 0 0-2 2v12.32a2 2 0 0 0 2 2.03zm2-12.32h8.25v8.25h-8.19z"/>
<path class="bea5a0fc-33fd-4abe-9c27-42190133ddc3" transform="translate(415.56,185.46)" d="m-276.1 590.6h-35.6a2 2 0 0 0-2 2v35.6a2 2 0 0 0 2 2h35.6a2 2 0 0 0 2-2v-35.6a2 2 0 0 0-2-2zm-2 35.6h-31.53v-31.52h31.53z"/>
<path class="bea5a0fc-33fd-4abe-9c27-42190133ddc3" transform="translate(415.56,185.46)" d="m-276.1 657.39h-35.6a2 2 0 0 0-2 2v35.61a2 2 0 0 0 2 2h35.6a2 2 0 0 0 2-2v-35.6a2 2 0 0 0-2-2zm-2 35.6h-31.53v-31.53h31.53z"/>
<path class="bea5a0fc-33fd-4abe-9c27-42190133ddc3" transform="translate(415.56,185.46)" d="m-264.84 605.45h9.31a2 2 0 0 0 2-2v-10.81a2 2 0 0 0-2-2h-9.31a2 2 0 0 0-2 2v10.77a2 2 0 0 0 2 2.04zm2-10.77h5.24v6.69h-5.24z"/>
<path class="bea5a0fc-33fd-4abe-9c27-42190133ddc3" transform="translate(415.56,185.46)" d="m-208.68 637.46h-35.2a2 2 0 0 0-2 2v9.32a2 2 0 0 0 2 2h35.2a2 2 0 0 0 2-2v-9.32a2 2 0 0 0-2-2zm-2 9.31h-31.13v-5.24h31.13z"/>
<path class="bea5a0fc-33fd-4abe-9c27-42190133ddc3" transform="translate(415.56,185.46)" d="m-311.5 650.84h14.24a2 2 0 0 0 2-2v-9.32a2 2 0 0 0-2-2h-14.24a2 2 0 0 0-2 2v9.32a2 2 0 0 0 2 2zm2-9.31h10.17v5.24h-10.17z"/>
<path class="bea5a0fc-33fd-4abe-9c27-42190133ddc3" transform="translate(415.56,185.46)" d="m-206.64 695.41v-37.29a2 2 0 0 0-2-2h-35.2a2 2 0 0 0-2 2v17a2 2 0 0 0 2 2h9.31a2 2 0 0 0 2-2v-5.62h12.53v14.59h-33.46v-69a2 2 0 0 0-2-2h-9.31a2 2 0 0 0-2 2v25.71a2 2 0 0 0 2 2 2 2 0 0 0 2-2v-23.7h5.24v69a2 2 0 0 0 2 2h37.53a2 2 0 0 0 2-2v-18.67a2 2 0 0 0-2-2h-16.58a2 2 0 0 0-2 2v5.63h-5.23v-12.9h31.13v33.21h-52.1v-14.27a2 2 0 0 0-2-2 2 2 0 0 0-2 2v16.31a2 2 0 0 0 2 2h56.16a2 2 0 0 0 1.98-2z"/>
<path class="bea5a0fc-33fd-4abe-9c27-42190133ddc3" transform="translate(415.56,185.46)" d="m-264.84 665.13a2 2 0 0 0 2-2v-6.28a2 2 0 0 0-2-2 2 2 0 0 0-2 2v6.28a2 2 0 0 0 2 2z"/>
<path class="bea5a0fc-33fd-4abe-9c27-42190133ddc3" transform="translate(415.56,185.46)" d="m-276.29 650.84a2 2 0 0 0 2-2v-9.32a2 2 0 0 0-2-2h-9.32a2 2 0 0 0-2 2v9.32a2 2 0 0 0 2 2zm-7.28-9.31h5.24v5.24h-5.24z"/>
<path class="ec5503ae-b2fc-4350-8cf0-207ea5f2789d" transform="translate(415.56,185.46)" d="m212.34 318.58h11.24v11.24h-11.24z"/>
<path class="ec5503ae-b2fc-4350-8cf0-207ea5f2789d" transform="translate(415.56,185.46)" d="m191.05 318.58h11.24v11.24h-11.24z"/>
<path class="ec5503ae-b2fc-4350-8cf0-207ea5f2789d" transform="translate(415.56,185.46)" d="m191.05 339.67h11.24v11.24h-11.24z"/>
<path class="e6e955ec-e082-4119-afd9-8e160ee00eeb" transform="translate(415.56,185.46)" d="m195.18 312h-10.74v10.74h2.94v-7.8h7.8z"/>
<path class="e6e955ec-e082-4119-afd9-8e160ee00eeb" transform="translate(415.56,185.46)" d="m195.18 357.72h-10.74v-10.72h2.94v7.8h7.8z"/>
<path class="e6e955ec-e082-4119-afd9-8e160ee00eeb" transform="translate(415.56,185.46)" d="m219.45 312h10.74v10.74h-2.94v-7.8h-7.8z"/>
<path class="e6e955ec-e082-4119-afd9-8e160ee00eeb" transform="translate(415.56,185.46)" d="m219.45 357.72h10.74v-10.72h-2.94v7.8h-7.8z"/>
<path class="ffafc15d-45ce-401a-977b-63c6adf03024" transform="translate(415.56,185.46)" d="m216 322.26h3.89v3.89h-3.89z"/>
<path class="ffafc15d-45ce-401a-977b-63c6adf03024" transform="translate(415.56,185.46)" d="m194.73 322.26h3.89v3.89h-3.89z"/>
<path class="ffafc15d-45ce-401a-977b-63c6adf03024" transform="translate(415.56,185.46)" d="m194.73 343.34h3.89v3.89h-3.89z"/>
<path class="ec5503ae-b2fc-4350-8cf0-207ea5f2789d" transform="translate(415.56,185.46)" d="m205.84 318.58h2.94v3.42h-2.94z"/>
<path class="ec5503ae-b2fc-4350-8cf0-207ea5f2789d" transform="translate(415.56,185.46)" d="m212.46 333.37h11.12v2.94h-11.12z"/>
<path class="ec5503ae-b2fc-4350-8cf0-207ea5f2789d" transform="translate(415.56,185.46)" d="m191.11 333.37h4.5v2.94h-4.5z"/>
<path class="ec5503ae-b2fc-4350-8cf0-207ea5f2789d" transform="translate(415.56,185.46)" d="m212.46 339.25v5.36h2.94v-2.42h5.24v5.9h-11.86v-22.43h-2.94v25.34h17.74v-11.75z"/>
<path class="ec5503ae-b2fc-4350-8cf0-207ea5f2789d" transform="translate(415.56,185.46)" d="m199.29 333.37h2.94v2.94h-2.94z"/>
<path class="bea5a0fc-33fd-4abe-9c27-42190133ddc3" transform="translate(415.56,185.46)" d="m184.44 323.36h2.94a0.65 0.65 0 0 0 0.64-0.65v-7.16h7.16a0.65 0.65 0 0 0 0.65-0.64v-2.91a0.65 0.65 0 0 0-0.65-0.65h-10.74a0.65 0.65 0 0 0-0.65 0.65v10.74a0.65 0.65 0 0 0 0.65 0.62zm0.64-10.75h9.46v1.65h-7.16a0.65 0.65 0 0 0-0.65 0.65v7.16h-1.65z"/>
<path class="bea5a0fc-33fd-4abe-9c27-42190133ddc3" transform="translate(415.56,185.46)" d="m195.18 354.14h-7.18v-7.14a0.65 0.65 0 0 0-0.64-0.65h-2.94a0.65 0.65 0 0 0-0.65 0.65v10.74a0.65 0.65 0 0 0 0.65 0.65h10.74a0.65 0.65 0 0 0 0.65-0.65v-2.94a0.65 0.65 0 0 0-0.65-0.64zm-0.64 2.94h-9.46v-9.46h1.65v7.16a0.65 0.65 0 0 0 0.65 0.65h7.16z"/>
<path class="bea5a0fc-33fd-4abe-9c27-42190133ddc3" transform="translate(415.56,185.46)" d="m230.19 311.32h-10.74a0.65 0.65 0 0 0-0.65 0.65v2.94a0.65 0.65 0 0 0 0.65 0.64h7.16v7.16a0.65 0.65 0 0 0 0.64 0.65h2.94a0.65 0.65 0 0 0 0.65-0.65v-10.71a0.65 0.65 0 0 0-0.65-0.68zm-0.64 10.75h-1.65v-7.16a0.65 0.65 0 0 0-0.65-0.65h-7.16v-1.65h9.46z"/>
<path class="bea5a0fc-33fd-4abe-9c27-42190133ddc3" transform="translate(415.56,185.46)" d="m230.19 346.33h-2.94a0.65 0.65 0 0 0-0.64 0.65v7.16h-7.16a0.65 0.65 0 0 0-0.65 0.64v2.94a0.65 0.65 0 0 0 0.65 0.65h8.31a0.65 0.65 0 0 0 0-1.29h-7.67v-1.65h7.16a0.65 0.65 0 0 0 0.65-0.65v-7.16h1.65v7.48a0.65 0.65 0 1 0 1.29 0v-8.1a0.65 0.65 0 0 0-0.65-0.67z"/>
<path class="bea5a0fc-33fd-4abe-9c27-42190133ddc3" transform="translate(415.56,185.46)" d="m212.34 330.46h11.24a0.64 0.64 0 0 0 0.64-0.64v-11.24a0.64 0.64 0 0 0-0.64-0.64h-11.24a0.65 0.65 0 0 0-0.65 0.64v11.24a0.64 0.64 0 0 0 0.65 0.64zm0.64-11.24h10v10h-9.98z"/>
<path class="bea5a0fc-33fd-4abe-9c27-42190133ddc3" transform="translate(415.56,185.46)" d="m219.9 321.61h-3.9a0.65 0.65 0 0 0-0.64 0.65v3.89a0.64 0.64 0 0 0 0.64 0.64h3.89a0.65 0.65 0 0 0 0.65-0.64v-3.89a0.65 0.65 0 0 0-0.64-0.65zm-0.64 3.89h-2.6v-2.6h2.6z"/>
<path class="bea5a0fc-33fd-4abe-9c27-42190133ddc3" transform="translate(415.56,185.46)" d="m194.73 326.79h3.89a0.64 0.64 0 0 0 0.64-0.64v-3.89a0.65 0.65 0 0 0-0.64-0.65h-3.89a0.65 0.65 0 0 0-0.65 0.65v3.89a0.65 0.65 0 0 0 0.65 0.64zm0.64-3.89h2.63v2.6h-2.6z"/>
<path class="bea5a0fc-33fd-4abe-9c27-42190133ddc3" transform="translate(415.56,185.46)" d="m194.73 347.88h3.89a0.65 0.65 0 0 0 0.64-0.65v-3.89a0.64 0.64 0 0 0-0.64-0.64h-3.89a0.65 0.65 0 0 0-0.65 0.64v3.89a0.65 0.65 0 0 0 0.65 0.65zm0.64-3.89h2.63v2.6h-2.6z"/>
<path class="bea5a0fc-33fd-4abe-9c27-42190133ddc3" transform="translate(415.56,185.46)" d="m202.29 317.94h-11.24a0.64 0.64 0 0 0-0.64 0.64v11.24a0.64 0.64 0 0 0 0.64 0.64h11.24a0.65 0.65 0 0 0 0.65-0.64v-11.24a0.65 0.65 0 0 0-0.65-0.64zm-0.64 11.24h-10v-10h10z"/>
<path class="bea5a0fc-33fd-4abe-9c27-42190133ddc3" transform="translate(415.56,185.46)" d="m202.29 339h-11.24a0.65 0.65 0 0 0-0.64 0.65v11.24a0.64 0.64 0 0 0 0.64 0.64h11.24a0.65 0.65 0 0 0 0.65-0.64v-11.22a0.65 0.65 0 0 0-0.65-0.65zm-0.64 11.24h-10v-9.95h10z"/>
<path class="bea5a0fc-33fd-4abe-9c27-42190133ddc3" transform="translate(415.56,185.46)" d="m205.84 322.62h2.94a0.64 0.64 0 0 0 0.65-0.64v-3.4a0.65 0.65 0 0 0-0.65-0.64h-2.94a0.64 0.64 0 0 0-0.64 0.64v3.42a0.64 0.64 0 0 0 0.64 0.62zm0.65-3.4h1.65v2.12h-1.65z"/>
<path class="bea5a0fc-33fd-4abe-9c27-42190133ddc3" transform="translate(415.56,185.46)" d="m223.58 332.73h-11.12a0.64 0.64 0 0 0-0.64 0.64v2.94a0.65 0.65 0 0 0 0.64 0.65h11.12a0.65 0.65 0 0 0 0.64-0.65v-2.94a0.64 0.64 0 0 0-0.64-0.64zm-0.65 2.94h-9.82v-1.67h9.82z"/>
<path class="bea5a0fc-33fd-4abe-9c27-42190133ddc3" transform="translate(415.56,185.46)" d="m191.11 337h4.5a0.64 0.64 0 0 0 0.64-0.65v-2.94a0.64 0.64 0 0 0-0.64-0.64h-4.5a0.64 0.64 0 0 0-0.64 0.64v2.94a0.65 0.65 0 0 0 0.64 0.65zm0.65-2.94h3.24v1.65h-3.21z"/>
<path class="bea5a0fc-33fd-4abe-9c27-42190133ddc3" transform="translate(415.56,185.46)" d="m224.22 351v-11.75a0.64 0.64 0 0 0-0.64-0.64h-11.12a0.64 0.64 0 0 0-0.64 0.64v5.36a0.65 0.65 0 0 0 0.64 0.65h2.94a0.65 0.65 0 0 0 0.65-0.65v-1.77h3.95v4.6h-10.57v-21.78a0.64 0.64 0 0 0-0.65-0.64h-2.94a0.64 0.64 0 0 0-0.64 0.64v8.13a0.65 0.65 0 0 0 1.29 0v-7.49h1.65v21.79a0.64 0.64 0 0 0 0.64 0.64h11.86a0.64 0.64 0 0 0 0.64-0.64v-5.9a0.64 0.64 0 0 0-0.64-0.64h-5.24a0.64 0.64 0 0 0-0.64 0.64v1.81h-1.65v-4.1h9.82v10.48h-16.44v-4.5a0.65 0.65 0 1 0-1.29 0v5.12a0.64 0.64 0 0 0 0.64 0.64h17.74a0.64 0.64 0 0 0 0.64-0.64z"/>
<path class="bea5a0fc-33fd-4abe-9c27-42190133ddc3" transform="translate(415.56,185.46)" d="m205.84 341.47a0.65 0.65 0 0 0 0.65-0.65v-2a0.65 0.65 0 0 0-1.29 0v2a0.65 0.65 0 0 0 0.64 0.65z"/>
<path class="bea5a0fc-33fd-4abe-9c27-42190133ddc3" transform="translate(415.56,185.46)" d="m202.23 337a0.65 0.65 0 0 0 0.64-0.65v-2.94a0.64 0.64 0 0 0-0.64-0.64h-2.94a0.64 0.64 0 0 0-0.64 0.64v2.94a0.64 0.64 0 0 0 0.64 0.65zm-2.3-2.94h1.66v1.65h-1.66z"/>
<path class="ec5503ae-b2fc-4350-8cf0-207ea5f2789d" transform="translate(415.56,185.46)" d="m-86.27 136.56h11.27v11.24h-11.27z"/>
<path class="ec5503ae-b2fc-4350-8cf0-207ea5f2789d" transform="translate(415.56,185.46)" d="m-107.56 136.56h11.24v11.24h-11.24z"/>
<path class="ec5503ae-b2fc-4350-8cf0-207ea5f2789d" transform="translate(415.56,185.46)" d="m-107.56 157.65h11.24v11.24h-11.24z"/>
<path class="e6e955ec-e082-4119-afd9-8e160ee00eeb" transform="translate(415.56,185.46)" d="m-103.43 130h-10.74v10.7h2.94v-7.81h7.8z"/>
<path class="e6e955ec-e082-4119-afd9-8e160ee00eeb" transform="translate(415.56,185.46)" d="m-103.43 175.71h-10.74v-10.71h2.94v7.81h7.8z"/>
<path class="e6e955ec-e082-4119-afd9-8e160ee00eeb" transform="translate(415.56,185.46)" d="m-79.16 130h10.74v10.7h-2.94v-7.81h-7.8z"/>
<path class="e6e955ec-e082-4119-afd9-8e160ee00eeb" transform="translate(415.56,185.46)" d="m-79.16 175.71h10.74v-10.71h-2.94v7.81h-7.8z"/>
<path class="ffafc15d-45ce-401a-977b-63c6adf03024" transform="translate(415.56,185.46)" d="m-82.6 140.24h3.89v3.89h-3.89z"/>
<path class="ffafc15d-45ce-401a-977b-63c6adf03024" transform="translate(415.56,185.46)" d="m-103.88 140.24h3.88v3.89h-3.89z"/>
<path class="ffafc15d-45ce-401a-977b-63c6adf03024" transform="translate(415.56,185.46)" d="m-103.88 161.33h3.88v3.88h-3.89z"/>
<path class="ec5503ae-b2fc-4350-8cf0-207ea5f2789d" transform="translate(415.56,185.46)" d="m-92.77 136.56h2.94v3.44h-2.94z"/>
<path class="ec5503ae-b2fc-4350-8cf0-207ea5f2789d" transform="translate(415.56,185.46)" d="m-86.15 151.36h11.15v2.94h-11.15z"/>
<path class="ec5503ae-b2fc-4350-8cf0-207ea5f2789d" transform="translate(415.56,185.46)" d="m-107.5 151.36h4.5v2.94h-4.5z"/>
<path class="ec5503ae-b2fc-4350-8cf0-207ea5f2789d" transform="translate(415.56,185.46)" d="m-86.15 157.24v5.36h2.94v-2.42h5.21v5.89h-11.83v-22.43h-2.94v25.36h17.77v-11.76z"/>
<path class="ec5503ae-b2fc-4350-8cf0-207ea5f2789d" transform="translate(415.56,185.46)" d="m-99.32 151.36h2.94v2.94h-2.94z"/>
<path class="bea5a0fc-33fd-4abe-9c27-42190133ddc3" transform="translate(415.56,185.46)" d="m-114.17 141.34h2.94a0.65 0.65 0 0 0 0.64-0.65v-7.16h7.16a0.65 0.65 0 0 0 0.65-0.64v-2.89a0.64 0.64 0 0 0-0.65-0.64h-10.74a0.64 0.64 0 0 0-0.65 0.64v10.74a0.65 0.65 0 0 0 0.65 0.6zm0.64-10.75h9.46v1.66h-7.16a0.64 0.64 0 0 0-0.65 0.64v7.16h-1.65z"/>
<path class="bea5a0fc-33fd-4abe-9c27-42190133ddc3" transform="translate(415.56,185.46)" d="m-103.43 172.12h-7.16v-7.12a0.64 0.64 0 0 0-0.64-0.64h-2.94a0.64 0.64 0 0 0-0.65 0.64v10.75a0.65 0.65 0 0 0 0.65 0.64h10.74a0.65 0.65 0 0 0 0.65-0.64v-2.94a0.65 0.65 0 0 0-0.65-0.65zm-0.64 2.94h-9.46v-9.46h1.65v7.17a0.65 0.65 0 0 0 0.65 0.64h7.16z"/>
<path class="bea5a0fc-33fd-4abe-9c27-42190133ddc3" transform="translate(415.56,185.46)" d="m-68.42 129.31h-10.74a0.64 0.64 0 0 0-0.65 0.64v2.94a0.65 0.65 0 0 0 0.65 0.64h7.16v7.16a0.65 0.65 0 0 0 0.64 0.65h2.94a0.65 0.65 0 0 0 0.65-0.65v-10.69a0.64 0.64 0 0 0-0.65-0.69zm-0.64 10.74h-1.65v-7.16a0.64 0.64 0 0 0-0.65-0.64h-7.16v-1.66h9.46z"/>
<path class="bea5a0fc-33fd-4abe-9c27-42190133ddc3" transform="translate(415.56,185.46)" d="m-68.42 164.32h-2.94a0.64 0.64 0 0 0-0.64 0.68v7.16h-7.16a0.65 0.65 0 0 0-0.65 0.65v2.94a0.65 0.65 0 0 0 0.65 0.64h8.31a0.64 0.64 0 0 0 0.64-0.64 0.65 0.65 0 0 0-0.64-0.65h-7.67v-1.65h7.16a0.65 0.65 0 0 0 0.65-0.64v-7.21h1.65v7.49a0.64 0.64 0 0 0 0.64 0.64 0.65 0.65 0 0 0 0.65-0.64v-8.09a0.64 0.64 0 0 0-0.65-0.68z"/>
<path class="bea5a0fc-33fd-4abe-9c27-42190133ddc3" transform="translate(415.56,185.46)" d="m-86.27 148.45h11.27a0.65 0.65 0 0 0 0.64-0.65v-11.24a0.64 0.64 0 0 0-0.64-0.64h-11.27a0.65 0.65 0 0 0-0.65 0.64v11.24a0.65 0.65 0 0 0 0.65 0.65zm0.64-11.24h9.95v9.95h-9.95z"/>
<path class="bea5a0fc-33fd-4abe-9c27-42190133ddc3" transform="translate(415.56,185.46)" d="m-78.71 139.6h-3.89a0.64 0.64 0 0 0-0.64 0.64v3.89a0.64 0.64 0 0 0 0.64 0.64h3.89a0.65 0.65 0 0 0 0.65-0.64v-3.89a0.64 0.64 0 0 0-0.65-0.64zm-0.64 3.89h-2.6v-2.61h2.6z"/>
<path class="bea5a0fc-33fd-4abe-9c27-42190133ddc3" transform="translate(415.56,185.46)" d="m-103.88 144.77h3.88a0.64 0.64 0 0 0 0.64-0.64v-3.89a0.64 0.64 0 0 0-0.64-0.64h-3.89a0.64 0.64 0 0 0-0.65 0.64v3.89a0.65 0.65 0 0 0 0.66 0.64zm0.64-3.89h2.6v2.61h-2.6z"/>
<path class="bea5a0fc-33fd-4abe-9c27-42190133ddc3" transform="translate(415.56,185.46)" d="m-103.88 165.86h3.88a0.64 0.64 0 0 0 0.64-0.64v-3.88a0.65 0.65 0 0 0-0.64-0.65h-3.89a0.65 0.65 0 0 0-0.65 0.65v3.88a0.65 0.65 0 0 0 0.66 0.64zm0.64-3.89h2.6v2.6h-2.6z"/>
<path class="bea5a0fc-33fd-4abe-9c27-42190133ddc3" transform="translate(415.56,185.46)" d="m-96.32 135.92h-11.24a0.64 0.64 0 0 0-0.64 0.64v11.24a0.65 0.65 0 0 0 0.64 0.65h11.24a0.64 0.64 0 0 0 0.64-0.65v-11.24a0.64 0.64 0 0 0-0.64-0.64zm-0.68 11.24h-10v-9.95h10z"/>
<path class="bea5a0fc-33fd-4abe-9c27-42190133ddc3" transform="translate(415.56,185.46)" d="m-96.32 157h-11.24a0.64 0.64 0 0 0-0.64 0.64v11.24a0.64 0.64 0 0 0 0.64 0.64h11.24a0.63 0.63 0 0 0 0.64-0.64v-11.23a0.63 0.63 0 0 0-0.64-0.64zm-0.68 11.25h-10v-10h10z"/>
<path class="bea5a0fc-33fd-4abe-9c27-42190133ddc3" transform="translate(415.56,185.46)" d="m-92.77 140.61h2.94a0.65 0.65 0 0 0 0.65-0.65v-3.4a0.65 0.65 0 0 0-0.65-0.64h-2.94a0.64 0.64 0 0 0-0.64 0.64v3.44a0.65 0.65 0 0 0 0.64 0.61zm0.65-3.4h1.65v2.11h-1.65z"/>
<path class="bea5a0fc-33fd-4abe-9c27-42190133ddc3" transform="translate(415.56,185.46)" d="m-75 150.71h-11.15a0.65 0.65 0 0 0-0.64 0.65v2.94a0.64 0.64 0 0 0 0.64 0.64h11.15a0.64 0.64 0 0 0 0.64-0.64v-2.94a0.65 0.65 0 0 0-0.64-0.65zm-0.65 2.94h-9.85v-1.65h9.82z"/>
<path class="bea5a0fc-33fd-4abe-9c27-42190133ddc3" transform="translate(415.56,185.46)" d="m-107.5 154.94h4.5a0.64 0.64 0 0 0 0.64-0.64v-2.94a0.64 0.64 0 0 0-0.64-0.65h-4.5a0.65 0.65 0 0 0-0.64 0.65v2.94a0.64 0.64 0 0 0 0.64 0.64zm0.65-2.94h3.21v1.65h-3.21z"/>
<path class="bea5a0fc-33fd-4abe-9c27-42190133ddc3" transform="translate(415.56,185.46)" d="m-74.39 169v-11.76a0.65 0.65 0 0 0-0.64-0.65h-11.12a0.65 0.65 0 0 0-0.64 0.65v5.36a0.64 0.64 0 0 0 0.64 0.64h2.94a0.65 0.65 0 0 0 0.65-0.64v-1.78h3.94v4.61h-10.56v-21.79a0.65 0.65 0 0 0-0.65-0.64h-2.94a0.64 0.64 0 0 0-0.64 0.64v8.13a0.64 0.64 0 0 0 0.64 0.64 0.64 0.64 0 0 0 0.65-0.64v-7.49h1.65v21.79a0.64 0.64 0 0 0 0.64 0.64h11.83a0.64 0.64 0 0 0 0.64-0.64v-5.89a0.65 0.65 0 0 0-0.64-0.65h-5.24a0.65 0.65 0 0 0-0.64 0.65v1.82h-1.62v-4.07h9.82v10.49h-16.44v-4.51a0.65 0.65 0 0 0-0.65-0.64 0.64 0.64 0 0 0-0.64 0.64v5.09a0.64 0.64 0 0 0 0.64 0.64h17.77a0.64 0.64 0 0 0 0.61-0.64z"/>
<path class="bea5a0fc-33fd-4abe-9c27-42190133ddc3" transform="translate(415.56,185.46)" d="m-92.77 159.45a0.65 0.65 0 0 0 0.65-0.64v-2a0.65 0.65 0 0 0-0.65-0.64 0.64 0.64 0 0 0-0.64 0.64v2a0.64 0.64 0 0 0 0.64 0.64z"/>
<path class="bea5a0fc-33fd-4abe-9c27-42190133ddc3" transform="translate(415.56,185.46)" d="m-96.38 154.94a0.64 0.64 0 0 0 0.64-0.64v-2.94a0.65 0.65 0 0 0-0.64-0.65h-2.94a0.64 0.64 0 0 0-0.64 0.65v2.94a0.64 0.64 0 0 0 0.64 0.64zm-2.3-2.94h1.68v1.65h-1.66z"/>
<path class="ec5503ae-b2fc-4350-8cf0-207ea5f2789d" transform="translate(415.56,185.46)" d="m546.19 315h11.24v11.24h-11.24z"/>
<path class="ec5503ae-b2fc-4350-8cf0-207ea5f2789d" transform="translate(415.56,185.46)" d="m524.9 315h11.24v11.24h-11.24z"/>
<path class="ec5503ae-b2fc-4350-8cf0-207ea5f2789d" transform="translate(415.56,185.46)" d="m524.9 336.11h11.24v11.24h-11.24z"/>
<path class="e6e955ec-e082-4119-afd9-8e160ee00eeb" transform="translate(415.56,185.46)" d="m529 308.41h-10.72v10.75h2.94v-7.81h7.78z"/>
<path class="e6e955ec-e082-4119-afd9-8e160ee00eeb" transform="translate(415.56,185.46)" d="m529 354.17h-10.72v-10.75h2.94v7.81h7.78z"/>
<path class="e6e955ec-e082-4119-afd9-8e160ee00eeb" transform="translate(415.56,185.46)" d="m553.29 308.41h10.71v10.75h-2.9v-7.81h-7.81z"/>
<path class="e6e955ec-e082-4119-afd9-8e160ee00eeb" transform="translate(415.56,185.46)" d="m553.29 354.17h10.71v-10.75h-2.9v7.81h-7.81z"/>
<path class="ffafc15d-45ce-401a-977b-63c6adf03024" transform="translate(415.56,185.46)" d="m549.86 318.7h3.89v3.89h-3.89z"/>
<path class="ffafc15d-45ce-401a-977b-63c6adf03024" transform="translate(415.56,185.46)" d="m528.57 318.7h3.89v3.89h-3.89z"/>
<path class="ffafc15d-45ce-401a-977b-63c6adf03024" transform="translate(415.56,185.46)" d="m528.57 339.79h3.89v3.89h-3.89z"/>
<path class="ec5503ae-b2fc-4350-8cf0-207ea5f2789d" transform="translate(415.56,185.46)" d="m539.69 315h2.94v3.4h-2.94z"/>
<path class="ec5503ae-b2fc-4350-8cf0-207ea5f2789d" transform="translate(415.56,185.46)" d="m546.31 329.82h11.12v2.94h-11.12z"/>
<path class="ec5503ae-b2fc-4350-8cf0-207ea5f2789d" transform="translate(415.56,185.46)" d="m525 329.82h4.5v2.94h-4.5z"/>
<path class="ec5503ae-b2fc-4350-8cf0-207ea5f2789d" transform="translate(415.56,185.46)" d="m546.31 335.7v5.36h2.94v-2.42h5.24v5.89h-11.86v-22.42h-2.94v25.36h17.74v-11.77z"/>
<path class="ec5503ae-b2fc-4350-8cf0-207ea5f2789d" transform="translate(415.56,185.46)" d="m533.14 329.82h2.94v2.94h-2.94z"/>
<path class="bea5a0fc-33fd-4abe-9c27-42190133ddc3" transform="translate(415.56,185.46)" d="m518.28 319.8h2.94a0.65 0.65 0 0 0 0.65-0.64v-7.16h7.13a0.64 0.64 0 0 0 0.64-0.65v-2.94a0.64 0.64 0 0 0-0.64-0.64h-10.72a0.64 0.64 0 0 0-0.64 0.64v10.75a0.64 0.64 0 0 0 0.64 0.64zm0.65-10.74h9.46v1.65h-7.17a0.64 0.64 0 0 0-0.64 0.64v7.17h-1.65z"/>
<path class="bea5a0fc-33fd-4abe-9c27-42190133ddc3" transform="translate(415.56,185.46)" d="m529 350.59h-7.16v-7.17a0.65 0.65 0 0 0-0.65-0.64h-2.94a0.64 0.64 0 0 0-0.64 0.64v10.75a0.64 0.64 0 0 0 0.64 0.64h10.75a0.64 0.64 0 0 0 0.64-0.64v-2.94a0.63 0.63 0 0 0-0.64-0.64zm-0.64 2.94h-9.46v-9.46h1.65v7.16a0.64 0.64 0 0 0 0.64 0.64h7.17z"/>
<path class="bea5a0fc-33fd-4abe-9c27-42190133ddc3" transform="translate(415.56,185.46)" d="m564 307.77h-10.71a0.64 0.64 0 0 0-0.64 0.64v2.94a0.65 0.65 0 0 0 0.64 0.65h7.17v7.16a0.64 0.64 0 0 0 0.64 0.64h2.9a0.64 0.64 0 0 0 0.64-0.64v-10.75a0.64 0.64 0 0 0-0.64-0.64zm-0.64 10.75h-1.66v-7.17a0.64 0.64 0 0 0-0.64-0.64h-7.16v-1.65h9.46z"/>
<path class="bea5a0fc-33fd-4abe-9c27-42190133ddc3" transform="translate(415.56,185.46)" d="m564 342.78h-2.9a0.64 0.64 0 0 0-0.64 0.64v7.17h-7.17a0.64 0.64 0 0 0-0.64 0.64v2.94a0.64 0.64 0 0 0 0.64 0.64h8.32a0.64 0.64 0 0 0 0.64-0.64 0.64 0.64 0 0 0-0.64-0.64h-7.67v-1.66h7.16a0.64 0.64 0 0 0 0.64-0.64v-7.16h1.66v7.48a0.64 0.64 0 1 0 1.28 0v-8.13a0.64 0.64 0 0 0-0.68-0.64z"/>
<path class="bea5a0fc-33fd-4abe-9c27-42190133ddc3" transform="translate(415.56,185.46)" d="m546.19 326.91h11.24a0.64 0.64 0 0 0 0.64-0.64v-11.27a0.64 0.64 0 0 0-0.64-0.64h-11.24a0.63 0.63 0 0 0-0.65 0.64v11.24a0.64 0.64 0 0 0 0.64 0.64zm0.64-11.24h9.95v10h-9.95z"/>
<path class="bea5a0fc-33fd-4abe-9c27-42190133ddc3" transform="translate(415.56,185.46)" d="m553.75 318.06h-3.89a0.64 0.64 0 0 0-0.64 0.64v3.89a0.64 0.64 0 0 0 0.64 0.65h3.89a0.64 0.64 0 0 0 0.64-0.65v-3.89a0.64 0.64 0 0 0-0.64-0.64zm-0.64 3.89h-2.61v-2.6h2.61z"/>
<path class="bea5a0fc-33fd-4abe-9c27-42190133ddc3" transform="translate(415.56,185.46)" d="m528.57 323.24h3.89a0.65 0.65 0 0 0 0.65-0.65v-3.89a0.65 0.65 0 0 0-0.65-0.64h-3.89a0.64 0.64 0 0 0-0.64 0.64v3.89a0.65 0.65 0 0 0 0.64 0.65zm0.65-3.89h2.6v2.65h-2.6z"/>
<path class="bea5a0fc-33fd-4abe-9c27-42190133ddc3" transform="translate(415.56,185.46)" d="m528.57 344.32h3.89a0.65 0.65 0 0 0 0.65-0.64v-3.89a0.64 0.64 0 0 0-0.65-0.64h-3.89a0.64 0.64 0 0 0-0.64 0.64v3.89a0.64 0.64 0 0 0 0.64 0.64zm0.65-3.89h2.6v2.57h-2.6z"/>
<path class="bea5a0fc-33fd-4abe-9c27-42190133ddc3" transform="translate(415.56,185.46)" d="m536.14 314.39h-11.24a0.63 0.63 0 0 0-0.64 0.64v11.24a0.64 0.64 0 0 0 0.64 0.64h11.24a0.64 0.64 0 0 0 0.64-0.64v-11.27a0.64 0.64 0 0 0-0.64-0.64zm-0.64 11.24h-10v-10h10z"/>
<path class="bea5a0fc-33fd-4abe-9c27-42190133ddc3" transform="translate(415.56,185.46)" d="m536.14 335.47h-11.24a0.64 0.64 0 0 0-0.64 0.64v11.24a0.64 0.64 0 0 0 0.64 0.65h11.24a0.64 0.64 0 0 0 0.64-0.64v-11.25a0.64 0.64 0 0 0-0.64-0.64zm-0.64 11.24h-10v-9.95h10z"/>
<path class="bea5a0fc-33fd-4abe-9c27-42190133ddc3" transform="translate(415.56,185.46)" d="m539.69 319.07h2.94a0.65 0.65 0 0 0 0.65-0.64v-3.43a0.64 0.64 0 0 0-0.65-0.64h-2.94a0.64 0.64 0 0 0-0.64 0.64v3.4a0.64 0.64 0 0 0 0.64 0.67zm0.65-3.4h1.66v2.11h-1.65z"/>
<path class="bea5a0fc-33fd-4abe-9c27-42190133ddc3" transform="translate(415.56,185.46)" d="m557.43 329.18h-11.12a0.64 0.64 0 0 0-0.64 0.64v2.94a0.64 0.64 0 0 0 0.64 0.64h11.12a0.64 0.64 0 0 0 0.64-0.64v-2.94a0.64 0.64 0 0 0-0.64-0.64zm-0.65 2.94h-9.78v-1.66h9.83z"/>
<path class="bea5a0fc-33fd-4abe-9c27-42190133ddc3" transform="translate(415.56,185.46)" d="m525 333.4h4.5a0.64 0.64 0 0 0 0.64-0.64v-2.94a0.64 0.64 0 0 0-0.64-0.64h-4.5a0.64 0.64 0 0 0-0.64 0.64v2.94a0.64 0.64 0 0 0 0.64 0.64zm0.65-2.94h3.21v1.66h-3.21z"/>
<path class="bea5a0fc-33fd-4abe-9c27-42190133ddc3" transform="translate(415.56,185.46)" d="m558.07 347.47v-11.77a0.64 0.64 0 0 0-0.64-0.64h-11.12a0.64 0.64 0 0 0-0.64 0.64v5.36a0.64 0.64 0 0 0 0.64 0.64h2.94a0.63 0.63 0 0 0 0.64-0.64v-1.78h4v4.61h-10.61v-21.78a0.65 0.65 0 0 0-0.65-0.65h-2.94a0.65 0.65 0 0 0-0.64 0.65v8.12a0.65 0.65 0 1 0 1.29 0v-7.48h1.66v21.78a0.65 0.65 0 0 0 0.64 0.65h11.86a0.65 0.65 0 0 0 0.64-0.65v-5.89a0.64 0.64 0 0 0-0.64-0.64h-5.24a0.64 0.64 0 0 0-0.64 0.64v1.78h-1.62v-4.08h9.83v10.49h-16.49v-4.51a0.65 0.65 0 0 0-1.29 0v5.15a0.65 0.65 0 0 0 0.64 0.65h17.74a0.65 0.65 0 0 0 0.64-0.65z"/>
<path class="bea5a0fc-33fd-4abe-9c27-42190133ddc3" transform="translate(415.56,185.46)" d="m539.69 337.91a0.64 0.64 0 0 0 0.65-0.64v-2a0.65 0.65 0 0 0-1.29 0v2a0.64 0.64 0 0 0 0.64 0.64z"/>
<path class="bea5a0fc-33fd-4abe-9c27-42190133ddc3" transform="translate(415.56,185.46)" d="m536.08 333.4a0.64 0.64 0 0 0 0.64-0.64v-2.94a0.64 0.64 0 0 0-0.64-0.64h-2.94a0.65 0.65 0 0 0-0.65 0.64v2.94a0.64 0.64 0 0 0 0.65 0.64zm-2.3-2.94h1.65v1.66h-1.65z"/>
</g>
</g>
</svg>
