<?xml version="1.0" encoding="UTF-8"?>
<svg width="400mm" height="250mm" version="1.1" viewBox="0 0 400 250" xmlns="http://www.w3.org/2000/svg" xmlns:cc="http://creativecommons.org/ns#" xmlns:dc="http://purl.org/dc/elements/1.1/" xmlns:rdf="http://www.w3.org/1999/02/22-rdf-syntax-ns#">
<metadata>
<rdf:RDF>
<cc:Work rdf:about="">
<dc:format>image/svg+xml</dc:format>
<dc:type rdf:resource="http://purl.org/dc/dcmitype/StillImage"/>
<dc:title/>
</cc:Work>
</rdf:RDF>
</metadata>
<rect x="-3.4917" y="-13.26" width="405.26" height="264.75" fill="#111b47" fill-rule="evenodd" stroke-width=".27285"/>
<g transform="matrix(2.4037 0 0 2.4037 127.89 52.89)" fill="none">
<path d="m30.208 48.6c-2.7666 0-5.45-0.3667-8.05-1.1-2.5666-0.7667-4.6333-1.75-6.2-2.95l2.75-6.1c1.5 1.1 3.2834 1.9833 5.35 2.65 2.0667 0.6667 4.1334 1 6.2 1 2.3 0 4-0.3333 5.1-1 1.1-0.7 1.65-1.6167 1.65-2.75 0-0.8333-0.3333-1.5167-1-2.05-0.6333-0.5667-1.4666-1.0167-2.5-1.35-1-0.3333-2.3666-0.7-4.1-1.1-2.6666-0.6333-4.85-1.2667-6.55-1.9s-3.1666-1.65-4.4-3.05c-1.2-1.4-1.8-3.2667-1.8-5.6 0-2.0333 0.55-3.8667 1.65-5.5 1.1-1.6667 2.75-2.9833 4.95-3.95 2.2334-0.9667 4.95-1.45 8.15-1.45 2.2334 0 4.4167 0.2667 6.55 0.8 2.1334 0.5333 4 1.3 5.6 2.3l-2.5 6.15c-3.2333-1.8333-6.4666-2.75-9.7-2.75-2.2666 0-3.95 0.3667-5.05 1.1-1.0666 0.7333-1.6 1.7-1.6 2.9s0.6167 2.1 1.85 2.7c1.2667 0.5667 3.1834 1.1333 5.75 1.7 2.6667 0.6333 4.85 1.2667 6.55 1.9s3.15 1.6333 4.35 3c1.2334 1.3667 1.85 3.2167 1.85 5.55 0 2-0.5666 3.8333-1.7 5.5-1.1 1.6333-2.7666 2.9333-5 3.9-2.2333 0.9667-4.95 1.45-8.15 1.45z" fill="#fff"/>
</g>
</svg>
