<?xml version="1.0" encoding="UTF-8" standalone="no"?>
<svg
   width="400mm"
   height="250mm"
   viewBox="0 0 400 250"
   version="1.1"
   id="svg16"
   inkscape:version="1.1 (c4e8f9ed74, 2021-05-24)"
   sodipodi:docname="studium.svg"
   inkscape:export-filename="/home/maartenvn/Development/Website/src/content/projects/img/directus.png"
   inkscape:export-xdpi="100"
   inkscape:export-ydpi="100"
   xmlns:inkscape="http://www.inkscape.org/namespaces/inkscape"
   xmlns:sodipodi="http://sodipodi.sourceforge.net/DTD/sodipodi-0.dtd"
   xmlns="http://www.w3.org/2000/svg"
   xmlns:svg="http://www.w3.org/2000/svg"
   xmlns:rdf="http://www.w3.org/1999/02/22-rdf-syntax-ns#"
   xmlns:cc="http://creativecommons.org/ns#"
   xmlns:dc="http://purl.org/dc/elements/1.1/">
  <defs
     id="defs10" />
  <sodipodi:namedview
     id="base"
     pagecolor="#ffffff"
     bordercolor="#666666"
     borderopacity="1.0"
     inkscape:pageopacity="0.0"
     inkscape:pageshadow="2"
     inkscape:zoom="0.35"
     inkscape:cx="842.85715"
     inkscape:cy="207.14286"
     inkscape:document-units="mm"
     inkscape:current-layer="g35"
     inkscape:document-rotation="0"
     showgrid="false"
     inkscape:window-width="1720"
     inkscape:window-height="1384"
     inkscape:window-x="1920"
     inkscape:window-y="124"
     inkscape:window-maximized="0"
     inkscape:pagecheckerboard="0" />
  <metadata
     id="metadata13">
    <rdf:RDF>
      <cc:Work
         rdf:about="">
        <dc:format>image/svg+xml</dc:format>
        <dc:type
           rdf:resource="http://purl.org/dc/dcmitype/StillImage" />
        <dc:title />
      </cc:Work>
    </rdf:RDF>
  </metadata>
  <g
     inkscape:label="Layer 1"
     inkscape:groupmode="layer"
     id="layer1">
    <rect
       style="fill:#111b47;fill-opacity:1;fill-rule:evenodd;stroke-width:0.272846"
       id="rect853"
       width="405.26022"
       height="264.74841"
       x="-3.4916608"
       y="-13.26004" />
    <g
       style="fill:none"
       id="g35"
       transform="matrix(2.4036762,0,0,2.4036762,127.88971,52.889714)">
      <path
         d="m 30.2076,48.6 c -2.7666,0 -5.45,-0.3667 -8.05,-1.1 -2.5666,-0.7667 -4.6333,-1.75 -6.2,-2.95 l 2.75,-6.1 c 1.5,1.1 3.2834,1.9833 5.35,2.65 2.0667,0.6667 4.1334,1 6.2,1 2.3,0 4,-0.3333 5.1,-1 1.1,-0.7 1.65,-1.6167 1.65,-2.75 0,-0.8333 -0.3333,-1.5167 -1,-2.05 -0.6333,-0.5667 -1.4666,-1.0167 -2.5,-1.35 -1,-0.3333 -2.3666,-0.7 -4.1,-1.1 -2.6666,-0.6333 -4.85,-1.2667 -6.55,-1.9 -1.7,-0.6333 -3.1666,-1.65 -4.4,-3.05 -1.2,-1.4 -1.8,-3.2667 -1.8,-5.6 0,-2.0333 0.55,-3.8667 1.65,-5.5 1.1,-1.6667 2.75,-2.9833 4.95,-3.95 2.2334,-0.9667 4.95,-1.45 8.15,-1.45 2.2334,0 4.4167,0.2667 6.55,0.8 2.1334,0.5333 4,1.3 5.6,2.3 l -2.5,6.15 c -3.2333,-1.8333 -6.4666,-2.75 -9.7,-2.75 -2.2666,0 -3.95,0.3667 -5.05,1.1 -1.0666,0.7333 -1.6,1.7 -1.6,2.9 0,1.2 0.6167,2.1 1.85,2.7 1.2667,0.5667 3.1834,1.1333 5.75,1.7 2.6667,0.6333 4.85,1.2667 6.55,1.9 1.7,0.6333 3.15,1.6333 4.35,3 1.2334,1.3667 1.85,3.2167 1.85,5.55 0,2 -0.5666,3.8333 -1.7,5.5 -1.1,1.6333 -2.7666,2.9333 -5,3.9 -2.2333,0.9667 -4.95,1.45 -8.15,1.45 z"
         fill="#ffffff"
         id="path25" />
    </g>
  </g>
</svg>
