<?xml version="1.0" encoding="UTF-8"?>
<svg width="400mm" height="250mm" version="1.1" viewBox="0 0 400 250" xmlns="http://www.w3.org/2000/svg" xmlns:cc="http://creativecommons.org/ns#" xmlns:dc="http://purl.org/dc/elements/1.1/" xmlns:rdf="http://www.w3.org/1999/02/22-rdf-syntax-ns#">
<defs>
<style>.a7e91070-bc4e-4d7e-a1a4-375ce9b112ea{fill:#668362;}.e069c3a9-1290-428d-a99d-a7a75a876e99{fill:#cfdc96;}.ec5503ae-b2fc-4350-8cf0-207ea5f2789d{fill:#d7fc7e;}.e6e955ec-e082-4119-afd9-8e160ee00eeb{fill:#a7adf0;}.ffafc15d-45ce-401a-977b-63c6adf03024{fill:#57a4ff;}.bea5a0fc-33fd-4abe-9c27-42190133ddc3{fill:#231f20;}</style>
</defs>
<metadata>
<rdf:RDF>
<cc:Work rdf:about="">
<dc:format>image/svg+xml</dc:format>
<dc:type rdf:resource="http://purl.org/dc/dcmitype/StillImage"/>
<dc:title/>
</cc:Work>
</rdf:RDF>
</metadata>
<rect x="-2.5657" y="-4.1669" width="410.52" height="259.26" fill="#b1c9f6" fill-rule="evenodd" stroke-width=".27175"/>
<path transform="scale(.26458)" d="m-8.914 474.22v-489.08h1549.8v978.16h-1549.8z" fill="#222" stroke-width="1.1885"/>
<g transform="matrix(.26458 0 0 .26458 125.65 50.652)">
<rect x="1" y="1" width="560" height="560" fill="#222"/>
<path d="m291.9 289.88c-6.81 6.49-14.01 12.92-22.38 20.66 7.38 6.72 14.56 13 21.45 19.6 8.51 8.181 8.36 11.07-0.03 19.69-6.69 6.87-13.31 13.8-20.89 21.66 6.21 6.529 12.75 13.399 19.32 20.25 8.45 8.84 8.45 10.55-0.46 18.439-6.77 5.99-13.6 11.9-20.63 18.021-1.52 1.319-3.05 2.649-4.59 4 1.9 3.37 3.6 6.41 5.3 9.45-0.23 0.369-0.44 0.77-0.68 1.149-4.11-2.67-8.6-4.939-12.1-8.26-0.89-0.84-0.43-4.22 0.6-6.34 0.19-0.41 0.41-0.76 0.64-1.05 6.88-8.511 14.28-16.631 21.96-25.42-8.31-7.931-16.28-15.421-24.11-23.04-6.75-6.551-6.69-9.61-0.02-16.48 7.06-7.229 14.11-14.479 22.56-23.18-8.04-7.4-15.64-14.09-22.87-21.17-2.83-2.78-4.47-4.95-4.97-7.03v-2.78c0.51-2.149 2.16-4.46 4.92-7.5 3.2-3.52 6.39-7.05 9.63-10.67 3.12-3.45 6.29-6.979 9.59-10.65-7.59-7-14.88-13.61-22.06-20.33-0.76-0.71-1.45-1.41-2.08-2.1-5.68-6.22-6.16-11.84 0-17.67 0.41-0.39 0.85-0.78 1.32-1.17 14.55-12.12 18.48-26.85 17.13-45.07-1.4-18.639-18.45-21.889-18.45-21.889h55.87c-3.95 0.42-8.4 2.33-10.67 9.71 0.48 12.08-0.22 24.2 0.36 36.29 0.48 9.62-2.29 17.13-10.19 22.84-3.3 2.4-6.09 5.5-9.76 8.89 6.61 7.26 13.07 14.27 19.42 21.35 5.85 6.51 5.92 10.979-0.33 17.09-0.92 0.91-1.86 1.8-2.8 2.71z" fill="#fff"/>
<path d="m404 119v52s-1.46 0-4-0.01c-17.28-0.03-84.75-0.13-88 0.01-0.24 0.01-0.5 0.01-0.78 0-1.41-0.03-3.31-0.21-5.35 0h-147.87v-52z" fill="#fe8f08"/>
</g>
</svg>
